<?xml version="1.0" encoding="UTF-8" standalone="no"?>
<svg
   id="af79b24e-56bc-4cf8-a8c1-027f138a6249"
   data-name="Layer 1"
   width="865.76"
   height="682.89"
   viewBox="0 0 865.76 682.89"
   version="1.1"
   sodipodi:docname="iskusan-umetnicki-direktor.svg"
   inkscape:version="1.1 (c68e22c387, 2021-05-23)"
   xmlns:inkscape="http://www.inkscape.org/namespaces/inkscape"
   xmlns:sodipodi="http://sodipodi.sourceforge.net/DTD/sodipodi-0.dtd"
   xmlns="http://www.w3.org/2000/svg"
   xmlns:svg="http://www.w3.org/2000/svg">
  <defs
     id="defs4469" />
  <sodipodi:namedview
     id="namedview4467"
     pagecolor="#505050"
     bordercolor="#eeeeee"
     borderopacity="1"
     inkscape:pageshadow="0"
     inkscape:pageopacity="0"
     inkscape:pagecheckerboard="0"
     showgrid="false"
     inkscape:zoom="1.2300663"
     inkscape:cx="376.80895"
     inkscape:cy="341.44501"
     inkscape:window-width="1920"
     inkscape:window-height="1025"
     inkscape:window-x="-8"
     inkscape:window-y="-8"
     inkscape:window-maximized="1"
     inkscape:current-layer="af79b24e-56bc-4cf8-a8c1-027f138a6249" />
  <circle
     style="fill:#f9f9f9;stroke-width:2;stroke-miterlimit:4;stroke-dasharray:none"
     id="path5254"
     cx="291.55441"
     cy="361.7691"
     r="261.77451" />
  <polygon
     points="632.75,250.53 647.45,261.25 608.97,312.33 578.24,312.33 "
     fill="#a7a9ac"
     id="polygon4236"
     transform="matrix(0.80513337,0,0,0.80513337,84.354839,66.535969)" />
  <polygon
     points="631.65,244.39 647.45,244.39 611.15,161.23 603.95,164.58 603.95,184.26 "
     fill="#a7a9ac"
     id="polygon4238"
     transform="matrix(0.80513337,0,0,0.80513337,84.354839,66.535969)" />
  <ellipse
     cx="572.74072"
     cy="183.24811"
     rx="7.9225125"
     ry="18.598581"
     fill="#a7a9ac"
     id="ellipse4240"
     style="stroke-width:0.805133" />
  <rect
     x="357.71371"
     y="132.66962"
     width="207.10446"
     height="103.97492"
     fill="#bcbec0"
     id="rect4242"
     style="stroke-width:0.805133" />
  <rect
     x="370.19327"
     y="141.75153"
     width="179.71382"
     height="85.030136"
     fill="#ffffff"
     id="rect4244"
     style="stroke-width:0.805133" />
  <path
     d="m 564.81818,132.66962 h 6.48937 a 2.7455048,2.7455048 0 0 1 2.74551,2.74551 v 98.49196 a 2.7455048,2.7455048 0 0 1 -2.74551,2.74551 h -6.48937 z"
     fill="#a7a9ac"
     id="path4246"
     style="stroke-width:0.805133" />
  <polygon
     points="463.44,109.79 471.43,123.65 437.8,181.89 421.81,181.89 "
     fill="#0061f2"
     id="polygon4248"
     transform="matrix(0.80513337,0,0,0.80513337,116.35484,66.535969)" />
  <polygon
     points="476.02,131.59 484.04,145.46 463,181.89 446.99,181.89 "
     fill="#2f2e41"
     id="polygon4250"
     transform="matrix(0.80513337,0,0,0.80513337,80.354839,66.535969)" />
  <polygon
     points="489.02,181.89 481.2,168.34 489.01,154.11 505.05,181.89 "
     fill="#2f2e41"
     id="polygon4252"
     transform="matrix(0.80513337,0,0,0.80513337,92.354839,66.535969)" />
  <path
     d="m 471.97825,209.35053 a 3.6311515,3.6311515 0 1 1 -3.63115,-3.63115 3.6311515,3.6311515 0 0 1 3.63115,3.63115 z"
     fill="#0061f2"
     id="path4254"
     style="stroke-width:0.805133" />
  <polygon
     points="468.13,101.98 416.06,191.59 415.82,191.45 467.89,101.84 "
     fill="#d1d3d4"
     id="polygon4256"
     transform="matrix(0.80513337,0,0,0.80513337,100.35484,66.535969)" />
  <polygon
     points="431.96,192.6 431.72,192.46 483.79,102.85 484.04,102.99 "
     fill="#d1d3d4"
     id="polygon4258"
     transform="matrix(0.80513337,0,0,0.80513337,142.35484,66.535969)" />
  <polygon
     points="440.81,191.74 492.88,102.13 493.13,102.27 441.05,191.88 "
     fill="#d1d3d4"
     id="polygon4260"
     transform="matrix(0.80513337,0,0,0.80513337,76.354839,66.535969)" />
  <polygon
     points="456.74,192.46 508.81,102.85 509.06,102.99 456.98,192.6 "
     fill="#d1d3d4"
     id="polygon4262"
     transform="matrix(0.80513337,0,0,0.80513337,44.354839,66.535969)" />
  <polygon
     points="466.97,192.46 519.04,102.85 519.28,102.99 467.21,192.6 "
     fill="#d1d3d4"
     id="polygon4264"
     transform="matrix(0.80513337,0,0,0.80513337,84.354839,66.535969)"
     style="fill:#c9a9ba" />
  <rect
     x="420.39334"
     y="212.86896"
     width="76.262238"
     height="0.22543734"
     fill="#d1d3d4"
     id="rect4266"
     style="stroke-width:0.805133" />
  <polygon
     points="507.17,186.12 458.99,101.98 459.23,101.84 507.41,185.98 "
     fill="#d1d3d4"
     id="polygon4268"
     transform="matrix(0.80513337,0,0,0.80513337,62.354839,66.535969)" />
  <rect
     x="547.75635"
     y="342.27805"
     width="112.65426"
     height="257.80371"
     fill="#d1d3d4"
     id="rect4270"
     style="stroke-width:0.805133" />
  <rect
     x="660.41058"
     y="342.27805"
     width="41.013493"
     height="257.80371"
     fill="#bcbec0"
     id="rect4272"
     style="stroke-width:0.805133" />
  <rect
     x="559.12482"
     y="368.86356"
     width="88.081589"
     height="29.814087"
     fill="#ffffff"
     opacity="0.2"
     id="rect4274"
     style="stroke-width:0.805133" />
  <rect
     x="559.12482"
     y="418.76572"
     width="88.081589"
     height="26.883404"
     fill="#ffffff"
     opacity="0.2"
     id="rect4276"
     style="stroke-width:0.805133" />
  <rect
     x="559.12482"
     y="463.26544"
     width="88.081589"
     height="125.95507"
     fill="#ffffff"
     opacity="0.2"
     id="rect4278"
     style="stroke-width:0.805133" />
  <rect
     x="490.54462"
     y="429.78799"
     width="150.86589"
     height="101.22942"
     fill="#0061f2"
     id="rect4280"
     style="stroke-width:0.805133" />
  <rect
     x="490.54462"
     y="429.78799"
     width="150.86589"
     height="18.767658"
     opacity="0.2"
     id="rect4282"
     style="stroke-width:0.805133" />
  <rect
     x="490.54462"
     y="429.78799"
     width="70.465271"
     height="18.767658"
     opacity="0.2"
     id="rect4284"
     style="stroke-width:0.805133" />
  <rect
     x="506.46213"
     y="459.91608"
     width="18.679094"
     height="18.679094"
     opacity="0.4"
     id="rect4286"
     style="stroke-width:0.805133" />
  <rect
     x="508.78091"
     y="500.62366"
     width="18.679094"
     height="18.679094"
     fill="#ffffff"
     opacity="0.1"
     id="rect4288"
     style="stroke-width:0.805133" />
  <polygon
     points="550.35,551.5 550.35,562.35 540.43,562.35 "
     fill="#ffffff"
     id="polygon4290"
     transform="matrix(0.80513337,0,0,0.80513337,84.354839,66.535969)" />
  <rect
     x="533.89301"
     y="500.62366"
     width="18.679094"
     height="18.679094"
     fill="#ffffff"
     opacity="0.2"
     id="rect4292"
     style="stroke-width:0.805133" />
  <polygon
     points="581.54,551.5 581.54,562.35 571.62,562.35 "
     fill="#ffffff"
     id="polygon4294"
     transform="matrix(0.80513337,0,0,0.80513337,84.354839,66.535969)" />
  <rect
     x="559.19836"
     y="500.62366"
     width="18.679094"
     height="18.679094"
     fill="#ffffff"
     opacity="0.3"
     id="rect4296"
     style="stroke-width:0.805133" />
  <polygon
     points="612.98,551.5 612.98,562.35 603.06,562.35 "
     fill="#ffffff"
     id="polygon4298"
     transform="matrix(0.80513337,0,0,0.80513337,84.354839,66.535969)" />
  <rect
     x="584.39905"
     y="500.62366"
     width="18.679094"
     height="18.679094"
     fill="#ffffff"
     opacity="0.4"
     id="rect4300"
     style="stroke-width:0.805133" />
  <polygon
     points="644.27,551.5 644.27,562.35 634.35,562.35 "
     fill="#ffffff"
     id="polygon4302"
     transform="matrix(0.80513337,0,0,0.80513337,84.354839,66.535969)" />
  <rect
     x="609.39038"
     y="500.62366"
     width="18.679094"
     height="18.679094"
     fill="#ffffff"
     opacity="0.5"
     id="rect4304"
     style="stroke-width:0.805133" />
  <polygon
     points="675.31,551.5 675.31,562.35 665.39,562.35 "
     fill="#ffffff"
     id="polygon4306"
     transform="matrix(0.80513337,0,0,0.80513337,84.354839,66.535969)" />
  <rect
     x="603.07812"
     y="463.26544"
     width="9.7984734"
     height="9.7984734"
     opacity="0.3"
     id="rect4308"
     style="stroke-width:0.805133" />
  <rect
     x="619.18079"
     y="463.26544"
     width="9.7984734"
     height="9.7984734"
     opacity="0.35"
     id="rect4310"
     style="stroke-width:0.805133" />
  <rect
     x="146.71677"
     y="342.27805"
     width="10.402324"
     height="257.80371"
     fill="#bcbec0"
     id="rect4312"
     style="stroke-width:0.805133" />
  <path
     d="m 389.22664,476.14757 -51.78618,72.66329 a 159.63379,159.63379 0 0 1 8.80011,13.79999 c 0.17713,0.2979 0.34621,0.60385 0.52334,0.91785 5.08039,9.15436 9.50862,19.92705 5.10454,23.92051 l -18.08329,-17.29426 -0.66021,-0.61996 -38.37266,-36.70603 38.71081,-58.77473 -5.95798,-6.06266 36.01361,-41.27113 29.39542,26.27955 c 0,0 5.98214,7.30256 -3.68751,23.14758 z"
     fill="#f9b499"
     id="path4314"
     style="stroke-width:0.805133" />
  <path
     d="m 346.76391,563.5287 c -6.29614,-0.41062 -10.99812,4.22695 -12.97875,6.62625 a 17.237906,17.237906 0 0 0 -1.05473,1.38483 l -0.75682,-0.48308 a 15.587382,15.587382 0 0 1 1.15134,-1.52171 c 2.06114,-2.46371 6.76312,-7.06102 13.11562,-6.92414 0.17713,0.2979 0.34621,0.60385 0.52334,0.91785 z"
     fill="#0061f2"
     id="path4316"
     style="stroke-width:0.805133" />
  <path
     d="m 441.52811,466.87244 -51.39972,72.65523 c 0,0 4.15449,6.56989 8.22846,14.00932 l 0.70047,1.30432 c 4.60536,8.57467 8.7518,17.86591 6.15122,19.46812 l -22.29414,-19.26684 -0.74878,-0.65216 -28.64664,-24.75785 -6.81948,-5.90162 -1.40093,-1.2077 1.40093,-2.18192 6.81948,-10.63581 33.13124,-51.68956 -5.91773,-6.09486 33.36472,-35.51443 29.34711,26.27955 c 0,0 7.75344,8.34118 -1.91621,24.18621 z"
     fill="#f9b499"
     id="path4318"
     style="stroke-width:0.805133" />
  <rect
     x="82.814705"
     y="318.01132"
     width="695.60999"
     height="14.444093"
     rx="3.8778152"
     fill="#bcbec0"
     id="rect4320"
     style="stroke-width:1.04119" />
  <rect
     x="100.21105"
     y="332.45541"
     width="659.87476"
     height="13.2847"
     fill="#d1d3d4"
     id="rect4322"
     style="stroke-width:1.04119" />
  <path
     d="m 547.58027,227.72367 -70.32034,90.28766 H 310.74224 l 67.38161,-89.69186 a 6.2558863,6.2558863 0 0 1 4.99183,-2.50397 h 163.53064 a 1.1835461,1.1835461 0 0 1 0.93395,1.90817 z"
     fill="#d1d3d4"
     id="path4324"
     style="stroke-width:0.805133" />
  <path
     d="m 385.69211,233.27909 h 137.24303 a 2.6408375,2.6408375 0 0 1 2.06919,4.27526 l -54.80542,68.99188 a 6.0868083,6.0868083 0 0 1 -4.70198,2.31073 l -100.00562,1.25601 -10.74853,-36.31152 28.82377,-39.45153 a 2.6327861,2.6327861 0 0 1 2.12556,-1.07083 z"
     fill="#ffffff"
     opacity="0.2"
     id="path4326"
     style="stroke-width:0.805133" />
  <path
     d="m 346.76391,196.34762 c 0,0 9.99975,8.42975 0,11.00618 z"
     fill="#f7a48b"
     id="path4328"
     style="stroke-width:0.805133" />
  <path
     d="m 302.66675,230.63825 v -60.48162 l 40.17616,-1.39288 c 0,0 4.18669,2.23022 3.9049,11.99649 v 29.8946 c 0,0 0.28179,10.04807 -11.15915,17.02052 0,0 -2.75356,1.26406 -3.91295,3.00315 z"
     fill="#f9b499"
     id="path4330"
     style="stroke-width:0.805133" />
  <path
     d="m 291.38683,195.00305 c 0,0 2.7133,12.17362 7.64877,19.21048 a 9.4442145,9.4442145 0 0 0 12.53593,2.77771 18.332887,18.332887 0 0 0 6.25588,-6.24783 l 6.71482,-14.7903 c 0,0 5.99019,-3.35741 2.37514,-21.4246 l 19.84654,-7.2462 c 0,0 -2.18191,-18.46976 -24.86252,-18.46976 0,0 -27.10079,-0.99837 -29.51619,18.87232 0,0 -21.48096,-9.83873 -24.08959,9.83873 0,0 -2.00478,14.04958 15.05599,11.84352 a 14.049577,14.049577 0 0 1 -6.22368,10.31375 16.384464,16.384464 0 0 0 14.25891,-4.67782 z"
     fill="#2f2e41"
     id="path4332"
     style="stroke-width:0.805133" />
  <path
     d="m 283.3516,189.38322 a 23.574305,23.574305 0 0 0 5.95799,-1.85986 16.642107,16.642107 0 0 0 2.65694,-1.56196 26.504991,26.504991 0 0 0 2.4154,-2.00478 9.3798038,9.3798038 0 0 1 -1.98868,2.55227 12.954596,12.954596 0 0 1 -1.28016,1.02252 14.782249,14.782249 0 0 1 -1.43314,0.80514 12.157514,12.157514 0 0 1 -3.10781,0.99031 9.7099085,9.7099085 0 0 1 -3.22054,0.0564 z"
     opacity="0.2"
     id="path4334"
     style="stroke-width:0.805133" />
  <path
     d="m 297.61052,186.66992 a 10.957865,10.957865 0 0 1 -0.88565,2.51202 15.442458,15.442458 0 0 1 -1.36068,2.30268 10.998122,10.998122 0 0 1 -3.97736,3.51843 c 0.57165,-0.68436 1.15135,-1.32042 1.69078,-1.99673 0.53944,-0.67631 1.06278,-1.34457 1.55391,-2.05309 1.01447,-1.39288 1.94843,-2.84212 2.979,-4.28331 z"
     opacity="0.2"
     id="path4336"
     style="stroke-width:0.805133" />
  <path
     d="m 292.3852,167.70098 a 16.65821,16.65821 0 0 1 3.41377,16.25564 c 0,0 6.51352,-0.55554 4.49264,-10.61971 a 6.8355823,6.8355823 0 0 0 -7.90641,-5.63593 z"
     opacity="0.2"
     id="path4338"
     style="stroke-width:0.805133" />
  <path
     d="m 294.49465,238.97138 c 2.55227,-0.45892 -1.45729,-3.87269 -0.80513,-5.25752 a 5.5071123,5.5071123 0 0 1 5.03208,-3.07561 h 32.96216 c 0,0 0.0966,-0.98226 3.91295,-3.00314 0,0 6.61819,4.25915 0.80513,12.66474 a 58.348016,58.348016 0 0 1 33.37278,16.97222 l 34.13766,31.56122 27.05248,-22.9302 c 0,0 19.58084,13.68727 23.44548,31.40021 l -38.6464,35.29704 c 0,0 -6.95635,12.36685 -18.51807,4.37993 l -34.00883,-26.79484 0.51528,21.89963 c 0,0 8.05134,5.63593 5.76476,18.71935 a 4.3235662,4.3235662 0 0 1 -4.36383,3.607 l -99.83653,-2.6811 a 3.2768928,3.2768928 0 0 1 -3.05951,-2.35904 c -1.36873,-4.66172 -3.22053,-15.29753 5.4266,-21.40849 l 0.56359,-68.10624 a 14.009321,14.009321 0 0 1 4.61342,-10.2735 44.105206,44.105206 0 0 1 21.63393,-10.61166 z"
     fill="#0061f2"
     id="path4340"
     style="stroke-width:0.805133;fill:#0061f2;fill-opacity:1" />
  <path
     d="m 336.15225,267.96424 c 0,2.4154 0.12077,4.75833 0.33011,7.11738 a 62.075783,62.075783 0 0 0 0.93395,7.03686 32.205335,32.205335 0 0 0 1.95647,6.75507 c 0.9098,2.1175 2.23022,4.16254 4.2028,5.24142 h 0.0403 v 0 c 3.28494,2.65694 6.60209,5.25752 9.85483,7.94666 3.25274,2.68915 6.51353,5.36219 9.70991,8.11575 -3.41377,-2.47981 -6.77923,-5.03208 -10.12858,-7.59241 -3.34935,-2.56032 -6.6504,-5.18506 -9.98365,-7.77759 l 0.0644,0.0483 a 8.2043091,8.2043091 0 0 1 -2.78576,-2.48786 15.788665,15.788665 0 0 1 -1.7713,-3.22053 30.925173,30.925173 0 0 1 -1.89206,-6.95636 62.518606,62.518606 0 0 1 -0.68436,-7.13348 68.307515,68.307515 0 0 1 0.15297,-7.09322 z"
     opacity="0.2"
     id="path4342"
     style="stroke-width:0.805133" />
  <path
     d="m 413.96034,298.36607 a 53.509164,53.509164 0 0 1 -10.04806,-9.53278 45.683268,45.683268 0 0 1 5.33803,4.44434 46.271015,46.271015 0 0 1 4.71003,5.08844 z"
     opacity="0.2"
     id="path4344"
     style="stroke-width:0.805133" />
  <path
     d="m 414.09721,416.40668 -33.36472,35.51443 a 4.2430529,4.2430529 0 0 1 -5.7245,0.41867 l -4.91937,-3.91295 a 4.2350015,4.2350015 0 0 1 -0.80513,-5.7406 l -11.54561,-9.12216 -31.51292,36.59331 a 2.5281188,2.5281188 0 0 1 -3.53454,0.2979 l -7.68902,-6.36861 a 2.5200675,2.5200675 0 0 1 -0.43478,-3.41376 l 1.88402,-2.65694 -34.91864,-35.54664 a 52.88116,52.88116 0 0 1 -11.56976,-17.59216 c -3.56675,-8.62298 -5.19311,-17.82566 -5.79696,-26.12658 a 117.1308,117.1308 0 0 1 1.09498,-26.98807 l 99.83654,2.68109 -0.0966,10.30571 40.4338,36.231 a 11.489253,11.489253 0 0 1 9.21072,3.8888 6.5698883,6.5698883 0 0 1 1.5056,2.60863 8.9369805,8.9369805 0 0 1 -2.05309,8.92893 z"
     fill="#2f2e41"
     id="path4346"
     style="stroke-width:0.805133" />
  <line
     x1="334.36484"
     y1="439.10339"
     x2="316.42648"
     y2="458.01599"
     fill="none"
     stroke="#000000"
     stroke-miterlimit="10"
     opacity="0.2"
     id="line4348"
     style="stroke-width:0.805133" />
  <line
     x1="369.25931"
     y1="442.68622"
     x2="392.83365"
     y2="416.88974"
     fill="none"
     stroke="#000000"
     stroke-miterlimit="10"
     opacity="0.2"
     id="line4350"
     style="stroke-width:0.805133" />
  <path
     d="m 301.09674,378.75864 h 24.29893 c 0,0 0.0483,16.15903 2.00478,22.0365 0,0 2.18191,6.95635 -10.97397,6.52158 0,0 -10.11247,1.73909 -13.59065,-10.87735 a 55.433433,55.433433 0 0 1 -1.73909,-17.68073 z"
     opacity="0.2"
     id="path4352"
     style="stroke-width:0.805133" />
  <path
     d="m 269.96224,404.87717 c -3.56675,-8.62298 -5.19311,-17.82566 -5.79696,-26.12658 h 7.04491 a 2.7938128,2.7938128 0 0 1 2.79382,2.72135 c 0.11271,4.56511 0.52333,13.68727 1.95647,17.63242 0.0161,0 1.57001,4.62952 -5.99824,5.77281 z"
     opacity="0.2"
     id="path4354"
     style="stroke-width:0.805133" />
  <path
     d="m 345.29857,522.52326 -3.73582,5.15285 57.55093,49.22585 a 3.3332522,3.3332522 0 0 0 5.02403,-0.80513 l 1.06278,-1.77129 z"
     fill="#0061f2"
     id="path4356"
     style="stroke-width:0.805133" />
  <path
     d="m 294.75229,532.82896 c 0,0 -5.49101,4.12229 -1.86791,8.7357 l 55.61057,47.63169 3.38961,-1.76324 z"
     fill="#0061f2"
     id="path4358"
     style="stroke-width:0.805133" />
  <polyline
     points="325.84 563.63 375.46 486.23 368.11 478.66"
     fill="none"
     stroke="#f7a48b"
     stroke-miterlimit="10"
     id="polyline4360"
     transform="matrix(0.80513337,0,0,0.80513337,84.354839,66.535969)" />
  <rect
     x="262.47449"
     y="424.18427"
     width="6.8114285"
     height="175.89749"
     fill="#d1d3d4"
     id="rect4362"
     style="stroke-width:0.805133" />
  <polygon
     points="325.84,662.68 325.84,444.21 334.3,449.27 334.3,662.68 "
     fill="#d1d3d4"
     id="polygon4364"
     transform="matrix(0.80513337,0,0,0.80513337,84.354839,66.535969)" />
  <rect
     x="307.44925"
     y="424.18427"
     width="7.9627695"
     height="174.65758"
     fill="#d1d3d4"
     id="rect4366"
     style="stroke-width:0.805133" />
  <g
     opacity="0.2"
     id="g4370"
     transform="matrix(0.80513337,0,0,0.80513337,84.354839,66.535969)">
    <path
       d="m 251.7,381.56 c 0.21,3.81 0.31,7.63 0.39,11.44 0.08,3.81 0.07,7.63 0.11,11.45 v 2.86 1.43 a 6.67,6.67 0 0 0 0.1,1.34 6.34,6.34 0 0 0 1,2.45 c 0.5,0.7 1.21,1.41 1.82,2.13 l 3.76,4.32 c 1.23,1.46 2.48,2.89 3.69,4.38 -1.38,-1.33 -2.7,-2.7 -4.05,-4.05 l -4,-4.13 a 21.76,21.76 0 0 1 -2,-2.16 7.22,7.22 0 0 1 -1.2,-2.77 8.72,8.72 0 0 1 -0.13,-1.51 v -1.43 -2.86 c 0.05,-3.82 0,-7.63 0.12,-11.45 0.12,-3.82 0.19,-7.63 0.39,-11.44 z"
       id="path4368" />
  </g>
  <path
     d="m 265.26026,351.76252 99.83654,2.68109 -0.0805,8.26067 h -100.851 a 85.980193,85.980193 0 0 1 1.09498,-10.94176 z"
     opacity="0.2"
     id="path4372"
     style="stroke-width:0.805133" />
  <rect
     x="270.13132"
     y="350.44211"
     width="5.112597"
     height="12.262181"
     fill="#0061f2"
     id="rect4374"
     style="stroke-width:0.805133" />
  <polygon
     points="291.32,367.85 291.32,354.91 298.64,356.05 298.64,367.85 "
     fill="#0061f2"
     id="polygon4376"
     transform="matrix(0.80513337,0,0,0.80513337,84.354839,66.535969)" />
  <path
     d="m 489.20005,258.47171 -6.93219,1.38483 a 0.47502869,0.47502869 0 0 1 -0.18519,0 l -59.99853,-7.41528 a 3.1239175,3.1239175 0 0 1 0.38646,-6.23173 2.8904288,2.8904288 0 0 1 0.37841,0 l 59.94218,7.41528 a 0.51528536,0.51528536 0 0 1 0.2818,0.11272 l 6.14317,4.60536 a 0.06491193,0.06491193 0 0 1 -0.0161,0.12882 z"
     fill="#2f2e41"
     id="path4378"
     style="stroke-width:0.805133" />
  <path
     d="m 551.20337,229.97804 a 7.479689,7.479689 0 0 1 -1.69078,4.66978 l -66.22222,83.36351 h -6.03044 l 70.32034,-90.28766 a 1.1835461,1.1835461 0 0 0 -0.93395,-1.91622 c 3.67141,0 4.54095,2.18997 4.55705,4.17059 z"
     fill="#a7a9ac"
     id="path4380"
     style="stroke-width:0.805133" />
  <circle
     cx="525.00433"
     cy="246.98245"
     r="2.6649914"
     opacity="0.2"
     id="circle4382"
     style="stroke-width:0.805133" />
  <circle
     cx="514.22357"
     cy="260.62949"
     r="2.6649914"
     opacity="0.2"
     id="circle4384"
     style="stroke-width:0.805133" />
  <circle
     cx="504.07086"
     cy="274.21207"
     r="2.6649914"
     opacity="0.2"
     id="circle4386"
     style="stroke-width:0.805133" />
  <polygon
     points="559,312.34 530.59,268.16 495.49,312.33 "
     fill="#d1d3d4"
     id="polygon4388"
     transform="matrix(0.80513337,0,0,0.80513337,84.354839,66.535969)" />
  <ellipse
     cx="314.6713"
     cy="198.28799"
     rx="10.040013"
     ry="13.123673"
     fill="#f9b499"
     id="ellipse4390"
     style="stroke-width:0.805133" />
  <path
     d="m 320.49241,203.88367 a 0.45087469,0.45087469 0 0 1 -0.45088,-0.45087 9.1704691,9.1704691 0 0 0 -7.2462,-9.39591 0.44282336,0.44282336 0 0 1 -0.35426,-0.52334 0.45892602,0.45892602 0 0 1 0.52334,-0.36231 c 0.0805,0 7.99497,1.61027 7.99497,10.28156 a 0.45087469,0.45087469 0 0 1 -0.46697,0.45087 z"
     fill="#f7a48b"
     id="path4392"
     style="stroke-width:0.805133" />
  <path
     d="m 312.86779,200.18811 a 0.45087469,0.45087469 0 0 1 -0.25764,-0.80513 16.014103,16.014103 0 0 1 6.0385,-2.4154 0.44282336,0.44282336 0 0 1 0.50723,0.37841 0.45087469,0.45087469 0 0 1 -0.38646,0.50723 15.579331,15.579331 0 0 0 -5.68424,2.18996 0.49113136,0.49113136 0 0 1 -0.21739,0.14493 z"
     fill="#f7a48b"
     id="path4394"
     style="stroke-width:0.805133" />
  <path
     d="m 353.51093,428.25824 h -97.66268 a 4.1786422,4.1786422 0 0 1 -4.17864,-4.17864 v -10.62776 a 4.1786422,4.1786422 0 0 1 4.17864,-4.17865 h 77.23644 z"
     fill="#bcbec0"
     id="path4396"
     style="stroke-width:0.805133" />
  <path
     d="m 283.48848,409.27319 12.391,-0.23348 12.391,-0.12883 12.391,-0.0564 c 4.13034,0 8.26067,-0.0483 12.39101,0 h 0.17713 l 0.12882,0.12077 c 5.24947,4.99987 10.53919,9.9595 15.75646,14.99158 5.21726,5.03208 10.46673,10.06417 15.60348,15.16066 q -8.09159,-7.2462 -16.05436,-14.67758 c -5.34608,-4.90326 -10.6036,-9.89509 -15.90943,-14.83861 l 0.2979,0.12077 c -4.13034,0 -8.26067,0 -12.39101,0 l -12.391,-0.0483 -12.391,-0.16102 z"
     fill="#2f2e41"
     id="path4398"
     style="stroke-width:0.805133" />
  <path
     d="m 283.48848,409.27319 12.391,-0.23348 12.391,-0.12883 12.391,-0.0564 c 4.13034,0 8.26067,-0.0483 12.39101,0 h 0.17713 l 0.12882,0.12077 c 5.24947,4.99987 10.53919,9.9595 15.75646,14.99158 5.21726,5.03208 10.46673,10.06417 15.60348,15.16066 q -8.09159,-7.2462 -16.05436,-14.67758 c -5.34608,-4.90326 -10.6036,-9.89509 -15.90943,-14.83861 l 0.2979,0.12077 c -4.13034,0 -8.26067,0 -12.39101,0 l -12.391,-0.0483 -12.391,-0.16102 z"
     opacity="0.2"
     id="path4400"
     style="stroke-width:0.805133" />
  <path
     d="m 399.05732,554.84131 c -6.74702,-3.3252 -13.27665,-1.13524 -16.14292,0.20128 a 13.228341,13.228341 0 0 0 -1.52976,0.80514 l -0.49113,-0.75683 a 12.688902,12.688902 0 0 1 1.27211,-0.68436 c 2.6811,-1.28822 9.22683,-3.73582 16.19123,-0.85344 z"
     fill="#0061f2"
     id="path4402"
     style="stroke-width:0.805133" />
  <path
     d="m 432.54282,267.07859 12.72916,-18.51807 a 4.1222829,4.1222829 0 0 1 3.39766,-1.78739 h 11.13499 a 4.1464369,4.1464369 0 0 1 2.84212,1.13523 l 13.38937,12.74527 a 3.8807429,3.8807429 0 0 1 1.19965,2.86627 c -0.0644,3.65531 -1.32042,11.94013 -11.05448,15.42636 0,0 -4.63757,13.63895 -13.20419,13.6309 0,-0.0242 -4.87105,-14.25086 -20.43428,-25.49857 z"
     fill="#f9b499"
     id="path4404"
     style="stroke-width:0.805133" />
  <path
     d="m 453.50044,249.96951 a 28.485619,28.485619 0 0 1 5.30583,-0.80514 27.801255,27.801255 0 0 1 5.36219,0.12882 27.116892,27.116892 0 0 1 -5.30583,0.80514 27.817358,27.817358 0 0 1 -5.36219,-0.12882 z"
     fill="#f7a48b"
     id="path4406"
     style="stroke-width:0.805133" />
  <path
     d="m 457.4778,256.02411 a 41.408009,41.408009 0 0 1 6.44107,-0.80513 40.441849,40.441849 0 0 1 6.44106,0.0564 39.548151,39.548151 0 0 1 -6.44106,0.80514 40.441849,40.441849 0 0 1 -6.44107,-0.0564 z"
     fill="#f7a48b"
     id="path4408"
     style="stroke-width:0.805133" />
  <path
     d="m 465.42446,262.07871 a 28.364849,28.364849 0 0 1 5.24947,-1.16744 27.624126,27.624126 0 0 1 5.36219,-0.2818 31.706152,31.706152 0 0 1 -10.61166,1.44924 z"
     fill="#f7a48b"
     id="path4410"
     style="stroke-width:0.805133" />
  <path
     d="m 466.18129,278.9221 a 13.816089,13.816089 0 0 1 -0.80513,-3.64725 13.542343,13.542343 0 0 1 0.0644,-3.73582 13.590651,13.590651 0 0 1 0.80513,3.64725 13.856345,13.856345 0 0 1 -0.0644,3.73582 z"
     fill="#f7a48b"
     id="path4412"
     style="stroke-width:0.805133" />
  <circle
     cx="597.62738"
     cy="271.65173"
     r="11.787153"
     fill="#bcbec0"
     id="circle4414"
     style="stroke-width:0.805133" />
  <rect
     x="596.87054"
     y="181.15475"
     width="124.48167"
     height="41.383858"
     rx="4.0578723"
     fill="#0061f2"
     id="rect4416"
     style="stroke-width:0.805133" />
  <rect
     x="596.87054"
     y="181.15475"
     width="124.48167"
     height="41.383858"
     rx="4.0578723"
     fill="#ffffff"
     opacity="0.5"
     id="rect4418"
     style="stroke-width:0.805133" />
  <rect
     x="612.34521"
     y="188.89209"
     width="23.469637"
     height="23.469637"
     rx="2.874326"
     fill="#0061f2"
     id="rect4420"
     style="stroke-width:0.805133" />
  <rect
     x="647.37653"
     y="188.89209"
     width="23.469637"
     height="23.469637"
     rx="2.874326"
     fill="#0061f2"
     id="rect4422"
     style="stroke-width:0.805133" />
  <rect
     x="682.41595"
     y="188.89209"
     width="23.469637"
     height="23.469637"
     rx="2.874326"
     fill="#0061f2"
     id="rect4424"
     style="stroke-width:0.805133" />
  <g
     opacity="0.5"
     id="g4428"
     transform="matrix(0.80513337,0,0,0.80513337,84.354839,66.535969)">
    <path
       d="m 728.63,186.87 h -30.78 a 4.28,4.28 0 0 1 -4.28,-4.28 v -30.78 a 4.28,4.28 0 0 1 4.28,-4.28 h 30.78 a 4.28,4.28 0 0 1 4.28,4.28 v 30.78 a 4.28,4.28 0 0 1 -4.28,4.28 z m -30.78,-38.78 a 3.73,3.73 0 0 0 -3.72,3.72 v 30.78 a 3.73,3.73 0 0 0 3.72,3.72 h 30.78 a 3.73,3.73 0 0 0 3.72,-3.72 v -30.78 a 3.73,3.73 0 0 0 -3.72,-3.72 z"
       fill="#ffffff"
       id="path4426" />
  </g>
  <path
     d="m 619.52699,202.20094 -0.91785,2.81797 h -1.18355 l 3.0112,-8.85647 h 1.37678 l 3.0273,8.85647 h -1.2238 l -0.95006,-2.78576 z m 2.90653,-0.8937 -0.86954,-2.55227 c -0.19323,-0.57969 -0.32205,-1.10303 -0.45893,-1.61027 v 0 c -0.12882,0.53139 -0.27374,1.07083 -0.45087,1.61027 l -0.88565,2.55227 z"
     fill="#ffffff"
     id="path4430"
     style="stroke-width:0.805133" />
  <path
     d="m 629.67972,205.01891 -0.0966,-0.80513 h -0.0403 a 2.3670921,2.3670921 0 0 1 -1.94037,0.95005 1.8196014,1.8196014 0 0 1 -1.94842,-1.82765 c 0,-1.5378 1.36872,-2.4154 3.82438,-2.36709 v -0.12882 a 1.3123674,1.3123674 0 0 0 -1.44119,-1.4734 3.1722255,3.1722255 0 0 0 -1.65857,0.47503 l -0.2657,-0.76488 a 4.0256669,4.0256669 0 0 1 2.09335,-0.56359 c 1.94037,0 2.4154,1.32847 2.4154,2.60058 v 2.37515 a 9.7179598,9.7179598 0 0 0 0.10467,1.52975 z m -0.16907,-3.22053 c -1.26406,0 -2.6972,0.19323 -2.6972,1.43313 a 1.0225194,1.0225194 0 0 0 1.08693,1.10304 1.6102667,1.6102667 0 0 0 1.5378,-1.06278 1.2560081,1.2560081 0 0 0 0.0725,-0.37036 z"
     fill="#ffffff"
     id="path4432"
     style="stroke-width:0.805133" />
  <path
     d="m 656.94959,203.08659 h -4.02566 l -0.73268,2.03699 h -1.26406 l 3.3091,-9.10606 h 1.38483 l 3.30105,9.10606 h -1.23186 z m -0.33815,-0.97421 -1.65858,-4.62147 -1.65052,4.62147 z"
     fill="#ffffff"
     id="path4434"
     style="stroke-width:0.805133" />
  <path
     d="m 660.39556,199.5601 a 3.2205335,3.2205335 0 0 1 1.23186,-1.29626 3.3815602,3.3815602 0 0 1 1.73908,-0.45893 3.2205335,3.2205335 0 0 1 1.61027,0.40257 2.7132995,2.7132995 0 0 1 1.03862,1.03057 v -1.32042 h 1.25601 v 7.20595 h -1.2077 v -1.33652 a 2.7857615,2.7857615 0 0 1 -1.05472,1.03862 3.1078148,3.1078148 0 0 1 -1.61027,0.41867 3.2768928,3.2768928 0 0 1 -1.73909,-0.47503 3.3171495,3.3171495 0 0 1 -1.2238,-1.32847 4.1303342,4.1303342 0 0 1 -0.44282,-1.94037 4.0256669,4.0256669 0 0 1 0.40256,-1.94038 z m 5.32193,0.53139 a 2.2865788,2.2865788 0 0 0 -0.88564,-0.9259 2.4154001,2.4154001 0 0 0 -1.22381,-0.32205 2.4154001,2.4154001 0 0 0 -1.2238,0.314 2.3187841,2.3187841 0 0 0 -0.88564,0.91785 2.9548395,2.9548395 0 0 0 -0.32206,1.42509 2.9870448,2.9870448 0 0 0 0.32206,1.43313 2.3107328,2.3107328 0 0 0 0.88564,0.93396 2.3348868,2.3348868 0 0 0 1.2238,0.32205 2.4154001,2.4154001 0 0 0 1.22381,-0.32205 2.2624248,2.2624248 0 0 0 0.88564,-0.93396 3.2205335,3.2205335 0 0 0 0,-2.84212 z"
     fill="#ffffff"
     id="path4436"
     style="stroke-width:0.805133" />
  <path
     d="m 691.03089,195.89675 3.22053,8.26872 a 1.3767781,1.3767781 0 0 0 0.44282,0.66021 0.94200605,0.94200605 0 0 0 0.46698,0.17713 v 0.26569 h -0.65216 -1.71493 -0.72462 v -0.24959 a 1.2721107,1.2721107 0 0 0 0.85344,-0.22544 c 0.12077,-0.13687 0.0966,-0.42672 -0.0805,-0.87759 l -2.4154,-6.52964 0.21738,-0.16907 -2.28658,5.94188 a 3.0031475,3.0031475 0 0 0 -0.26569,1.11109 0.6441067,0.6441067 0 0 0 0.2979,0.57164 1.7873961,1.7873961 0 0 0 0.84539,0.17713 v 0.26569 h -0.80513 -1.29627 -0.42672 v -0.26569 a 1.3284701,1.3284701 0 0 0 0.53944,-0.30595 2.2382708,2.2382708 0 0 0 0.49918,-0.80513 l 3.08366,-7.96277 h 0.20934 z m 1.61026,5.58762 v 0.2657 h -3.921 l 0.12883,-0.2657 z"
     fill="#ffffff"
     id="path4438"
     style="stroke-width:0.805133" />
  <path
     d="m 697.21431,205.36512 a 1.4411887,1.4411887 0 0 1 -1.61026,-1.61027 1.4572914,1.4572914 0 0 1 0.27374,-0.9098 2.0772441,2.0772441 0 0 1 0.69242,-0.5958 5.9016276,5.9016276 0 0 1 0.88564,-0.39451 l 0.88565,-0.32206 a 2.7777101,2.7777101 0 0 0 0.69241,-0.35426 0.5957987,0.5957987 0 0 0 0.2657,-0.49918 v -0.80513 a 1.7712934,1.7712934 0 0 0 -0.16103,-0.80514 0.86954404,0.86954404 0 0 0 -0.44282,-0.39451 1.8518068,1.8518068 0 0 0 -0.61996,-0.0966 2.8099155,2.8099155 0 0 0 -0.70046,0.0966 0.99836538,0.99836538 0 0 0 -0.5958,0.37841 0.80513337,0.80513337 0 0 1 0.6119,0.80513 0.65215803,0.65215803 0 0 1 -0.20933,0.52334 0.74877404,0.74877404 0 0 1 -0.53944,0.19323 0.63605537,0.63605537 0 0 1 -0.55554,-0.24959 0.95005738,0.95005738 0 0 1 0,-1.09498 2.0852954,2.0852954 0 0 1 0.43477,-0.39452 3.0836608,3.0836608 0 0 1 0.80513,-0.36231 3.7680242,3.7680242 0 0 1 1.08693,-0.15297 3.0353528,3.0353528 0 0 1 0.91785,0.12882 1.5055994,1.5055994 0 0 1 0.62801,0.36231 1.4653427,1.4653427 0 0 1 0.45087,0.76488 4.7824922,4.7824922 0 0 1 0.10467,1.08693 v 3.6553 a 0.99836538,0.99836538 0 0 0 0.0886,0.46698 0.36231002,0.36231002 0 0 0 0.32206,0.15298 0.70851737,0.70851737 0 0 0 0.32205,-0.0805 1.9242688,1.9242688 0 0 0 0.26569,-0.20128 l 0.14493,0.22544 a 3.8887942,3.8887942 0 0 1 -0.52334,0.3462 1.3606754,1.3606754 0 0 1 -0.67631,0.14493 0.97421138,0.97421138 0 0 1 -0.98226,-0.35426 1.4572914,1.4572914 0 0 1 -0.22544,-0.80513 2.1899628,2.1899628 0 0 1 -0.95006,0.93395 2.6569401,2.6569401 0 0 1 -1.08693,0.21739 z m 0.5797,-0.53139 a 1.4975481,1.4975481 0 0 0 0.80513,-0.22544 2.1577574,2.1577574 0 0 0 0.70852,-0.80513 v -2.57643 a 1.3123674,1.3123674 0 0 1 -0.6119,0.45893 c -0.27375,0.11272 -0.5636,0.24154 -0.85344,0.37841 a 2.4637081,2.4637081 0 0 0 -0.75683,0.54749 1.4411887,1.4411887 0 0 0 -0.314,0.99837 1.2238027,1.2238027 0 0 0 0.30595,0.90175 1.0386221,1.0386221 0 0 0 0.71657,0.32205 z"
     fill="#ffffff"
     id="path4440"
     style="stroke-width:0.805133" />
  <polygon
     points="143.34,661.82 148.57,661.82 156.32,619.24 151.28,619.24 "
     fill="#2f2e41"
     id="polygon4442"
     transform="matrix(0.80513337,0,0,0.80513337,84.354839,66.535969)" />
  <polygon
     points="213.57,662.68 208.34,662.68 200.59,620.1 205.63,620.1 "
     fill="#2f2e41"
     id="polygon4444"
     transform="matrix(0.80513337,0,0,0.80513337,84.354839,66.535969)" />
  <path
     d="m 226.9037,549.78507 c 0,0 -1.56196,-14.66953 -3.74387,-20.93347 0,0 -3.27689,-8.26066 -3.58284,-16.52938 l -2.02894,-39.45154 10.92566,23.25225 c 0,0 6.08681,13.2525 5.14481,33.8156 0,0 -0.93396,15.29754 -4.02567,19.81434 z"
     fill="#0061f2"
     id="path4446"
     style="stroke-width:0.805133" />
  <path
     d="m 275.30027,512.20145 c -4.67782,4.49264 -26.5694,25.14431 -44.78152,35.69156 a 47.543126,47.543126 0 0 0 2.31073,-10.2574 l 8.89673,-8.05134 c 0,0 9.58109,-10.8854 23.17174,-14.11398 a 11.915974,11.915974 0 0 0 1.65857,-0.49919 l 8.47,-3.22053 a 0.26373843,0.26373843 0 0 1 0.27375,0.45088 z"
     fill="#0061f2"
     id="path4448"
     style="stroke-width:0.805133" />
  <path
     d="m 275.30027,512.20145 c -4.67782,4.49264 -26.5694,25.14431 -44.78152,35.69156 a 47.543126,47.543126 0 0 0 2.31073,-10.2574 l 8.89673,-8.05134 c 0,0 9.58109,-10.8854 23.17174,-14.11398 a 11.915974,11.915974 0 0 0 1.65857,-0.49919 l 8.47,-3.22053 a 0.26373843,0.26373843 0 0 1 0.27375,0.45088 z"
     fill="#231f20"
     opacity="0.2"
     id="path4450"
     style="stroke-width:0.805133" />
  <path
     d="m 226.91175,549.78507 h -3.43792 c 0,0 -7.11737,-11.45705 -13.34911,-17.71293 a 41.866935,41.866935 0 0 1 -3.77607,-4.24306 l -1.56196,-2.06919 a 147.81444,147.81444 0 0 1 -9.39591,-13.98517 l -15.29753,-26.24734 19.66136,15.1365 c 0,0 14.97548,12.01259 22.77722,33.38083 a 63.605537,63.605537 0 0 1 4.37992,15.74036 z"
     fill="#0061f2"
     id="path4452"
     style="stroke-width:0.805133" />
  <path
     d="m 223.47383,549.78507 h -1.24795 l -5.88553,-4.19474 a 21.263572,21.263572 0 0 0 -2.78576,-1.69883 c -10.78879,-5.40245 -29.69332,-23.34887 -34.70125,-28.17967 a 0.43477202,0.43477202 0 0 1 0.43478,-0.72462 c 11.07058,3.40571 25.49857,10.77268 25.49857,10.77268 l 1.56196,2.06919 a 41.866935,41.866935 0 0 0 3.77607,4.24306 c 6.27199,6.27199 13.34911,17.71293 13.34911,17.71293 z"
     fill="#0061f2"
     id="path4454"
     style="stroke-width:0.805133" />
  <path
     d="m 223.47383,549.78507 h -1.24795 l -5.88553,-4.19474 a 21.263572,21.263572 0 0 0 -2.78576,-1.69883 c -10.78879,-5.40245 -29.69332,-23.34887 -34.70125,-28.17967 a 0.43477202,0.43477202 0 0 1 0.43478,-0.72462 c 11.07058,3.40571 25.49857,10.77268 25.49857,10.77268 l 1.56196,2.06919 a 41.866935,41.866935 0 0 0 3.77607,4.24306 c 6.27199,6.27199 13.34911,17.71293 13.34911,17.71293 z"
     fill="#231f20"
     opacity="0.2"
     id="path4456"
     style="stroke-width:0.805133" />
  <polygon
     points="157.29,643.41 149.59,600.21 205.15,600.21 200.11,643.41 "
     fill="#2f2e41"
     id="polygon4458"
     transform="matrix(0.80513337,0,0,0.80513337,84.354839,66.535969)" />
  <polygon
     points="157.29,643.41 149.59,600.21 205.15,600.21 200.11,643.41 "
     opacity="0.2"
     id="polygon4460"
     transform="matrix(0.80513337,0,0,0.80513337,84.354839,66.535969)" />
  <rect
     x="202.72556"
     y="563.04559"
     width="48.356312"
     height="4.1303344"
     fill="#2f2e41"
     id="rect4462"
     style="stroke-width:0.805133" />
  <path
     style="fill:none;stroke:#000000;stroke-width:3;stroke-linecap:butt;stroke-linejoin:miter;stroke-miterlimit:4;stroke-dasharray:none;stroke-opacity:1"
     d="M 182.67016,599.38934 H 851.15337"
     id="path4944" />
</svg>
