<?xml version="1.0" encoding="UTF-8" standalone="no"?>
<svg
   xmlns:dc="http://purl.org/dc/elements/1.1/"
   xmlns:cc="http://creativecommons.org/ns#"
   xmlns:rdf="http://www.w3.org/1999/02/22-rdf-syntax-ns#"
   xmlns:svg="http://www.w3.org/2000/svg"
   xmlns="http://www.w3.org/2000/svg"
   xmlns:xlink="http://www.w3.org/1999/xlink"
   xmlns:sodipodi="http://sodipodi.sourceforge.net/DTD/sodipodi-0.dtd"
   xmlns:inkscape="http://www.inkscape.org/namespaces/inkscape"
   width="148.36935mm"
   height="71.021118mm"
   viewBox="0 0 148.36935 71.021118"
   version="1.1"
   id="svg8"
   inkscape:version="1.0.1 (3bc2e813f5, 2020-09-07)"
   sodipodi:docname="kreativni_direktor.svg">
  <defs
     id="defs2">
    <linearGradient
       inkscape:collect="always"
       id="linearGradient1104">
      <stop
         style="stop-color:#106ddb;stop-opacity:1"
         offset="0"
         id="stop1100" />
      <stop
         style="stop-color:#0f9bdc;stop-opacity:1"
         offset="1"
         id="stop1102" />
    </linearGradient>
    <radialGradient
       inkscape:collect="always"
       xlink:href="#linearGradient1104"
       id="radialGradient1106"
       cx="120.63916"
       cy="33.679352"
       fx="120.63916"
       fy="33.679352"
       r="0.25207955"
       gradientTransform="matrix(2.6712426,0.15060201,-1.1784538,21.417006,-164.87759,-756.89734)"
       gradientUnits="userSpaceOnUse" />
  </defs>
  <sodipodi:namedview
     id="base"
     pagecolor="#ffffff"
     bordercolor="#666666"
     borderopacity="1.0"
     inkscape:pageopacity="0.0"
     inkscape:pageshadow="2"
     inkscape:zoom="1.4142136"
     inkscape:cx="215.32221"
     inkscape:cy="160.57004"
     inkscape:document-units="mm"
     inkscape:current-layer="g1046"
     inkscape:document-rotation="0"
     showgrid="false"
     inkscape:window-width="1920"
     inkscape:window-height="1017"
     inkscape:window-x="-8"
     inkscape:window-y="-8"
     inkscape:window-maximized="1"
     fit-margin-top="0"
     fit-margin-left="0"
     fit-margin-right="0"
     fit-margin-bottom="0" />
  <metadata
     id="metadata5">
    <rdf:RDF>
      <cc:Work
         rdf:about="">
        <dc:format>image/svg+xml</dc:format>
        <dc:type
           rdf:resource="http://purl.org/dc/dcmitype/StillImage" />
        <dc:title />
      </cc:Work>
    </rdf:RDF>
  </metadata>
  <g
     inkscape:label="Layer 1"
     inkscape:groupmode="layer"
     id="layer1"
     transform="translate(-34.564471,-63.039651)">
    <g
       id="g1055"
       transform="translate(33.300554,-49.390688)" />
    <g
       id="g1122"
       transform="translate(115.35833,167.74583)">
      <g
         id="g1034">
        <g
           id="g1035"
           transform="translate(-29.89854,-127.42839)">
          <g
             id="g1029">
            <path
               style="fill:#fcffe8;fill-opacity:1;stroke:none;stroke-width:1.63636"
               id="circle877"
               sodipodi:type="arc"
               sodipodi:cx="-18.075026"
               sodipodi:cy="59.893021"
               sodipodi:rx="32.97504"
               sodipodi:ry="32.97504"
               sodipodi:start="3.2385103"
               sodipodi:end="4.5780676"
               sodipodi:arc-type="slice"
               d="m -50.895319,56.702158 a 32.97504,32.97504 0 0 1 28.404347,-29.487153 l 4.415946,32.678016 z" />
            <circle
               style="fill:#f3f1f2;fill-opacity:1;stroke:none;stroke-width:1.63636"
               id="path875"
               cx="-17.90074"
               cy="60.768291"
               r="32.97504" />
          </g>
          <path
             style="fill:none;stroke:#1a0017;stroke-width:0.440796;stroke-linecap:butt;stroke-linejoin:miter;stroke-miterlimit:4;stroke-dasharray:none;stroke-opacity:1"
             d="M -37.25256,76.291925 H 97.474032"
             id="path879" />
        </g>
        <path
           style="fill:#ffffff;fill-opacity:1;stroke:#000021;stroke-width:0.35269;stroke-linecap:butt;stroke-linejoin:miter;stroke-miterlimit:4;stroke-dasharray:none;stroke-opacity:1"
           d="m -13.63464,-64.663333 c 0.74759,-3.293434 -2.548,-4.969598 -3.97216,-7.394331 -0.1824,-0.347092 -0.24028,-0.96678 0.10694,-1.420814 0.63097,-0.701255 1.62873,-0.425142 2.01664,-0.381939 l 0.0153,-4.002716 c 0.0274,-0.422986 0.54656,-0.770861 0.97776,-0.366662 l 3.6055,3.483281 c 0.20879,0.519436 0.29027,0.901376 0.42777,1.283314 l -0.12222,1.649976 c 0.17276,0.124335 0.27494,0.262785 0.24444,0.427771 v 6.661012 z"
           id="path1084"
           sodipodi:nodetypes="cccccccccccc" />
        <path
           style="fill:none;stroke:#000021;stroke-width:0.35269;stroke-linecap:butt;stroke-linejoin:miter;stroke-miterlimit:4;stroke-dasharray:none;stroke-opacity:1"
           d="m -15.31517,-71.293788 -0.93193,-0.93193 c -0.14408,-0.0731 -0.55276,-0.586813 -0.18336,-0.748601 l 0.94721,-0.01527 c 0.20106,-0.01985 0.34354,-0.112923 0.38194,-0.336106 0.0826,-0.268202 -0.19886,-0.380379 -0.38194,-0.534717"
           id="path1086"
           sodipodi:nodetypes="cccccc" />
        <path
           style="fill:none;stroke:#000021;stroke-width:0.35269;stroke-linecap:butt;stroke-linejoin:miter;stroke-miterlimit:4;stroke-dasharray:none;stroke-opacity:1"
           d="m -14.16935,-77.145088 -0.15278,1.955524 0.47361,-0.977762 z"
           id="path1088" />
        <path
           style="fill:none;stroke:#000021;stroke-width:0.35269;stroke-linecap:butt;stroke-linejoin:miter;stroke-miterlimit:4;stroke-dasharray:none;stroke-opacity:1"
           d="m -12.48882,-74.838178 -1.41272,1.690775 c -0.36596,0.351393 -0.63255,0.271563 -0.98586,0.203639"
           id="path1090"
           sodipodi:nodetypes="ccc" />
        <path
           style="fill:none;stroke:#000021;stroke-width:0.35269;stroke-linecap:butt;stroke-linejoin:miter;stroke-miterlimit:4;stroke-dasharray:none;stroke-opacity:1"
           d="m -14.30685,-72.729878 c -0.22554,0.87325 0.3301,0.830262 0.86944,0.456331 0.65041,-0.45094 1.35345,-1.38317 1.63608,-1.770199"
           id="path1092"
           sodipodi:nodetypes="csc" />
        <path
           style="fill:none;stroke:#000021;stroke-width:0.35269;stroke-linecap:butt;stroke-linejoin:miter;stroke-miterlimit:4;stroke-dasharray:none;stroke-opacity:1"
           d="m -13.46901,-72.172087 c -0.22953,0.787387 0.33595,0.748626 0.88483,0.411462 0.66191,-0.406601 1.3774,-1.247169 1.66503,-1.596143"
           id="path1094"
           sodipodi:nodetypes="csc" />
        <rect
           style="fill:#7c7ebb;fill-opacity:1;stroke:#7c7ebb;stroke-width:0.353319;stroke-miterlimit:4;stroke-dasharray:none;stroke-opacity:1"
           id="rect1098"
           width="0.77806544"
           height="10.995947"
           x="-50.618984"
           y="-69.636208"
           ry="0.12116855"
           transform="matrix(0.90141599,0.43295406,-0.50741655,0.8617009,0,0)" />
        <g
           id="g949"
           style="stroke:#000021;stroke-width:0.35269;stroke-miterlimit:4;stroke-dasharray:none;stroke-opacity:1"
           transform="translate(-252.14896,-214.99155)">
          <g
             id="g1063"
             transform="translate(0.26458334,0.09921875)">
            <ellipse
               style="fill:#7c7ebb;fill-opacity:1;stroke:none;stroke-width:0.369912;stroke-linecap:round;stroke-linejoin:bevel;stroke-miterlimit:4;stroke-dasharray:none;stroke-opacity:1"
               id="path943"
               cx="208.93071"
               cy="114.79366"
               rx="4.4123969"
               ry="4.607511" />
            <path
               style="fill:#00031d;fill-opacity:1;stroke:none;stroke-width:0.264583px;stroke-linecap:butt;stroke-linejoin:miter;stroke-opacity:1"
               d="m 205.24745,112.20858 c -0.80694,4.09514 2.75245,6.37073 6.15556,6.47427 -5.03327,2.5932 -8.36878,-2.59077 -6.15556,-6.47427 z"
               id="path945"
               sodipodi:nodetypes="ccc" />
          </g>
        </g>
        <g
           id="g1062"
           transform="translate(-78.912477,-106.55436)"
           style="stroke-width:1;stroke-miterlimit:4;stroke-dasharray:none">
          <g
             id="g1046"
             style="stroke-width:1;stroke-miterlimit:4;stroke-dasharray:none">
            <path
               style="fill:#fcffb5;fill-opacity:1;stroke:none;stroke-width:1.00367;stroke-miterlimit:4;stroke-dasharray:none;stroke-opacity:0.160804"
               id="path1039"
               sodipodi:type="arc"
               sodipodi:cx="32.375435"
               sodipodi:cy="22.84305"
               sodipodi:rx="15.977021"
               sodipodi:ry="12.562004"
               sodipodi:start="3.2385108"
               sodipodi:end="3.229038"
               sodipodi:arc-type="arc"
               d="M 16.473392,21.627469 A 15.977021,12.562004 0 0 1 33.883812,10.337154 15.977021,12.562004 0 0 1 48.284622,23.999398 15.977021,12.562004 0 0 1 30.94241,35.354423 15.977021,12.562004 0 0 1 16.45946,21.745961"
               sodipodi:open="true"
               transform="matrix(0.99269794,0.12062666,0,1,0,0)" />
            <path
               style="fill:#040002;fill-opacity:1;stroke:none;stroke-width:1.00367;stroke-miterlimit:4;stroke-dasharray:none;stroke-opacity:0.160804"
               id="path1041"
               sodipodi:type="arc"
               sodipodi:cx="32.375435"
               sodipodi:cy="24.430552"
               sodipodi:rx="15.977021"
               sodipodi:ry="12.562004"
               sodipodi:start="0.42567287"
               sodipodi:end="3.339117"
               sodipodi:arc-type="arc"
               d="M 46.926684,29.617826 A 15.977021,12.562004 0 0 1 27.477189,36.387628 15.977021,12.562004 0 0 1 16.70908,21.965353"
               transform="matrix(0.99269794,0.12062666,0,1,0,0)"
               sodipodi:open="true" />
            <path
               style="fill:#ccb9d6;fill-opacity:1;stroke:none;stroke-width:1.00367;stroke-miterlimit:4;stroke-dasharray:none;stroke-opacity:0.160804"
               id="path1037"
               sodipodi:type="arc"
               sodipodi:cx="32.908493"
               sodipodi:cy="23.307917"
               sodipodi:rx="15.977021"
               sodipodi:ry="12.562004"
               sodipodi:start="3.2385108"
               sodipodi:end="3.229038"
               sodipodi:arc-type="arc"
               d="M 17.00645,22.092336 A 15.977021,12.562004 0 0 1 34.41687,10.802021 15.977021,12.562004 0 0 1 48.81768,24.464265 15.977021,12.562004 0 0 1 31.475468,35.819289 15.977021,12.562004 0 0 1 16.992519,22.210827"
               sodipodi:open="true"
               transform="matrix(0.99269794,0.12062666,0,1,0,0)" />
          </g>
          <path
             style="fill:none;stroke:#000000;stroke-width:1;stroke-linecap:butt;stroke-linejoin:miter;stroke-miterlimit:4;stroke-dasharray:none;stroke-opacity:1"
             d="m 27.710301,39.06289 c 0.140094,2.267594 1.696821,5.468283 5.785369,10.336615"
             id="path1048"
             sodipodi:nodetypes="cc" />
        </g>
        <path
           style="fill:#7c7ebb;fill-opacity:1;stroke:none;stroke-width:0.264583px;stroke-linecap:butt;stroke-linejoin:miter;stroke-opacity:1"
           d="m -79.702624,-26.348198 0.13131,0.787868 -9.323091,32.1712283 c 9.964255,9.6287877 21.969619,7.3439857 29.151077,-1.0504881 l -1.444424,-5.90900286 c 1.255021,-1.03218394 2.597885,-2.04240794 2.494912,-3.41409094 v -0.9191757 l 4.595892,3.2827777 9.585714,-0.131312 c 1.428061,-0.584048 1.802169,-1.4315838 1.838356,-2.3636 v -9.7170234 l -6.434246,-0.656555 -1.313113,6.3029348 -3.545401,-0.13131 c -9.958646,-9.4290058 -6.77052,-12.3684518 -14.222009,-14.5664478 l -0.747462,-2.372692 c -0.284476,-1.321605 -0.09634,-1.95681 -0.351832,-2.857667 l -4.37537,-2.526091 c 0.93062,4.616294 0.739655,4.372385 0.656555,4.595892 -2.359732,-1.062403 -5.577251,-2.678975 -6.696868,-0.525245 z"
           id="path1064"
           sodipodi:nodetypes="cccccccccccccccccccc"
           transform="translate(33.300554,-49.390689)" />
        <g
           id="g1113"
           transform="translate(-80.999597,-106.01155)"
           style="stroke:#000021;stroke-width:0.396875;stroke-miterlimit:4;stroke-dasharray:none;stroke-opacity:1">
          <path
             style="fill:none;stroke:#000021;stroke-width:0.396875;stroke-linecap:butt;stroke-linejoin:miter;stroke-miterlimit:4;stroke-dasharray:none;stroke-opacity:1"
             d="m 46.175254,47.491845 c 3.156904,0.27288 5.246885,-1.81541 3.939336,-5.121137"
             id="path1066"
             sodipodi:nodetypes="cc" />
          <path
             style="fill:none;stroke:#000021;stroke-width:0.396875;stroke-linecap:butt;stroke-linejoin:miter;stroke-miterlimit:4;stroke-dasharray:none;stroke-opacity:1"
             d="m 36.58954,40.007109 2.888845,16.676517"
             id="path1068" />
          <path
             style="fill:none;stroke:#000021;stroke-width:0.396875;stroke-linecap:butt;stroke-linejoin:miter;stroke-miterlimit:4;stroke-dasharray:none;stroke-opacity:1"
             d="m 34.291594,57.537148 18.317908,-2.987328 0.525245,2.035321"
             id="path1070"
             sodipodi:nodetypes="ccc" />
        </g>
        <path
           style="fill:none;stroke:#000000;stroke-width:0.35269;stroke-linecap:butt;stroke-linejoin:miter;stroke-miterlimit:4;stroke-dasharray:none;stroke-opacity:1"
           d="m -72.946567,-26.527741 c 0.63333,0.293884 0.479015,-0.43014 1.12513,-0.325669 0.622826,0.100705 0.413346,1.093952 0.941954,1.082217 0.928169,-0.02061 1.277684,-0.550971 2.331839,0.490909"
           id="path1072"
           sodipodi:nodetypes="cssc"
           transform="translate(33.300554,-49.390689)" />
        <g
           id="g1082"
           transform="translate(-98.480515,-105.45769)"
           style="fill:#000000;fill-opacity:1">
          <rect
             style="fill:#232323;fill-opacity:1;stroke:none;stroke-width:1.42024;stroke-miterlimit:4;stroke-dasharray:none;stroke-opacity:1"
             id="rect1076"
             width="14.312916"
             height="13.469481"
             x="100.57544"
             y="46.337151"
             ry="0.73922247"
             transform="matrix(1,0,-0.49718884,0.86764236,0,0)" />
          <circle
             style="fill:#ffffff;fill-opacity:1;stroke:none;stroke-width:1.32292;stroke-miterlimit:4;stroke-dasharray:none;stroke-opacity:1"
             id="path1078"
             cx="86.106644"
             cy="46.047421"
             r="0.45958906" />
        </g>
        <path
           style="fill:#ffffff;fill-opacity:1;stroke:none;stroke-width:0.264583px;stroke-linecap:butt;stroke-linejoin:miter;stroke-opacity:1"
           d="m -61.522666,-0.39012866 c 2.829826,-3.37255494 3.004757,-0.40513321 2.494912,-3.80409964 h 1.7727 l -0.06565,0.2586987 c 0,0.9506515 3.808023,-7.0907974 3.808023,-7.0907974 0.09959,-0.779622 0.499696,-0.807971 0.919179,-0.787869 l -0.131313,0.787869 -1.969667,5.3180983 0.13131,0.06566 3.217124,-4.9898223 c 0.416587,-1.728128 2.682267,-2.927496 2.177344,-1.600501 -1.383675,1.623324 -3.06544,5.1171765 -4.081351,6.9842563 -0.39377,0.4212484 -0.389195,0.7429106 -0.328279,1.0504874 l 2.082532,-1.6504177 c 0.518537,-0.5185371 4.338299,-3.9202404 4.338299,-3.9202404 0.458637,1.2761629 -2.193955,2.9874249 -7.468609,8.3697247 -1.424674,2.35716533 -3.104675,4.088637 -5.452127,6.5512949 z"
           id="path1074"
           sodipodi:nodetypes="cccccccccccccccccc"
           transform="translate(33.300554,-49.390689)" />
        <path
           style="fill:none;stroke:#000000;stroke-width:0.35269;stroke-linecap:butt;stroke-linejoin:miter;stroke-miterlimit:4;stroke-dasharray:none;stroke-opacity:1"
           d="m -54.194,-1.7015617 c -0.345692,0.30248 -5.343901,6.5273774 -5.776015,6.9594917"
           id="path1126"
           sodipodi:nodetypes="cc"
           transform="translate(33.300554,-49.390689)" />
        <path
           style="fill:#fcffff;fill-opacity:1;stroke:none;stroke-width:0.264583px;stroke-linecap:butt;stroke-linejoin:miter;stroke-opacity:1"
           d="m -69.286941,-27.892754 -4.37537,-2.526091 -0.218865,-3.158779 -1.408824,-1.288401 c -5.823778,-3.509562 -1.507057,-6.137014 0.94181,-2.493234 -2.201297,-2.179738 -3.342668,-6.150531 -0.07249,-9.091028 3.320869,-2.227222 12.01306,0.295222 12.84211,7.699576 l -0.14319,3.149564 c 0.606707,-0.153611 1.213415,-0.247475 1.820122,0.08118 0.422944,1.019505 0.259696,1.969791 -0.172845,2.510605 -0.534468,0.422959 -1.020855,0.767737 -2.03401,0.640759 -1.384941,5.571131 -6.821416,1.917403 -8.50958,0.783048 l 0.914709,0.527978 z"
           id="path1128"
           sodipodi:nodetypes="cccccccccccccc"
           transform="translate(33.300554,-49.390689)" />
        <path
           style="fill:#000000;fill-opacity:1;stroke:none;stroke-width:0.264583px;stroke-linecap:butt;stroke-linejoin:miter;stroke-opacity:1"
           d="m -45.810625,-76.401073 -2.701812,10.368163 -2.689738,-1.458558 z"
           id="path1108"
           sodipodi:nodetypes="cccc" />
        <path
           style="fill:#000000;fill-opacity:1;stroke:none;stroke-width:0.202997px;stroke-linecap:butt;stroke-linejoin:miter;stroke-opacity:1"
           d="m -40.527105,-82.017704 c 0.284171,3.210179 1.181804,6.804427 0.821903,6.804063 l -1.713027,-0.70799 z"
           id="path1130"
           sodipodi:nodetypes="cccc" />
        <g
           id="g916"
           transform="translate(-107.71168,-104.28378)">
          <path
             style="fill:none;stroke:#000000;stroke-width:0.35269;stroke-linecap:round;stroke-linejoin:miter;stroke-miterlimit:4;stroke-dasharray:none;stroke-opacity:1"
             d="m 72.873906,18.669164 c 0.585689,1.064287 1.3372,2.054416 3.513836,1.43609"
             id="path882"
             sodipodi:nodetypes="cc" />
          <path
             style="fill:none;stroke:#000000;stroke-width:0.35269;stroke-linecap:round;stroke-linejoin:bevel;stroke-miterlimit:4;stroke-dasharray:none;stroke-opacity:1"
             d="m 78.862704,13.719238 c 1.252159,7.377613 0.103869,12.023925 -3.238838,11.733157"
             id="path884"
             sodipodi:nodetypes="cc" />
          <path
             style="fill:none;stroke:#000000;stroke-width:0.35269;stroke-linecap:round;stroke-linejoin:miter;stroke-miterlimit:4;stroke-dasharray:none;stroke-opacity:1"
             d="M 71.30887,23.835515 70.086664,22.827197"
             id="path886" />
          <path
             style="fill:none;stroke:#000000;stroke-width:0.35269;stroke-linecap:butt;stroke-linejoin:miter;stroke-miterlimit:4;stroke-dasharray:none;stroke-opacity:1"
             d="m 79.229367,18.913605 c 1.304544,0.01549 1.878542,0.09118 2.016636,1.344424 -0.06206,1.63031 -1.851495,2.028775 -2.261079,1.986082"
             id="path888"
             sodipodi:nodetypes="ccc" />
          <path
             style="fill:none;stroke:#000000;stroke-width:0.35269;stroke-linecap:butt;stroke-linejoin:miter;stroke-miterlimit:4;stroke-dasharray:none;stroke-opacity:1"
             d="m 65.662904,18.262218 c -0.217873,2.334731 2.624434,2.385983 5.561026,2.444408"
             id="path890"
             sodipodi:nodetypes="cc" />
          <path
             style="fill:none;stroke:#000000;stroke-width:0.264583px;stroke-linecap:round;stroke-linejoin:miter;stroke-opacity:1"
             d="m 63.768488,16.438642 c 1.266658,0.803998 2.388502,1.632132 2.688846,2.597183"
             id="path892"
             sodipodi:nodetypes="cc" />
          <path
             style="fill:none;stroke:#000000;stroke-width:0.264583px;stroke-linecap:round;stroke-linejoin:miter;stroke-opacity:1"
             d="m 80.583519,19.860813 -1.283313,1.099983"
             id="path894" />
          <ellipse
             style="fill:#060108;fill-opacity:1;stroke-width:0.599368;stroke-linecap:round;stroke-miterlimit:4;stroke-dasharray:none"
             id="path896"
             cx="68.962914"
             cy="20.689091"
             rx="0.50338209"
             ry="0.64244252"
             transform="matrix(0.99760334,-0.06919236,0.0934198,0.99562681,0,0)" />
          <ellipse
             style="fill:#060108;fill-opacity:1;stroke-width:0.529167;stroke-linecap:round;stroke-miterlimit:4;stroke-dasharray:none"
             id="path898"
             cx="79.430542"
             cy="-9.2565174"
             rx="0.36666116"
             ry="0.51943666"
             transform="rotate(18.957388)" />
          <path
             style="fill:#060108;fill-opacity:1;stroke:#000000;stroke-width:0.243856px;stroke-linecap:butt;stroke-linejoin:miter;stroke-opacity:1"
             d="m 64.913147,17.471407 c 0.02832,1.10235 0.190855,1.170274 1.101921,1.057981 z"
             id="path900"
             sodipodi:nodetypes="ccc" />
          <path
             style="fill:#060108;fill-opacity:1;stroke:#000000;stroke-width:0.264583px;stroke-linecap:butt;stroke-linejoin:miter;stroke-opacity:1"
             d="m 72.283629,20.126079 -5e-6,1.405534 -1.374978,-0.06111 5e-6,-1.25276 z"
             id="path902"
             sodipodi:nodetypes="ccccc" />
          <g
             id="g941"
             transform="translate(-107.59828,-104.37965)"
             style="stroke:#026bf9;stroke-width:0.529167;stroke-miterlimit:4;stroke-dasharray:none;stroke-opacity:1">
            <path
               style="fill:none;stroke:#7c7ebb;stroke-width:0.529167;stroke-linecap:butt;stroke-linejoin:miter;stroke-miterlimit:4;stroke-dasharray:none;stroke-opacity:1"
               d="m 184.28275,118.52246 c 0.52172,0.15862 0.77971,-0.0218 2.3833,1.52775"
               id="path936"
               sodipodi:nodetypes="cc" />
            <path
               style="fill:#7c7ebb;fill-opacity:1;stroke:none;stroke-width:0.529167;stroke-linecap:butt;stroke-linejoin:miter;stroke-miterlimit:4;stroke-dasharray:none;stroke-opacity:1"
               d="m 174.19453,122.05896 c 0.40613,-1.81294 -0.4291,-3.67909 0.12725,-5.36981 4.04721,1.20661 6.80775,0.23579 8.73876,-2.13886 1.16781,2.5114 2.39069,3.09209 3.40044,3.5486 -0.40311,-3.00116 -4.61706,-5.99851 -8.21514,-6.41175 -4.16716,-0.47859 -9.0536,4.24387 -4.05131,10.37182 z"
               id="path932"
               sodipodi:nodetypes="ccccsc" />
            <path
               style="fill:none;stroke:#7c7ebb;stroke-width:0.529167;stroke-linecap:butt;stroke-linejoin:miter;stroke-miterlimit:4;stroke-dasharray:none;stroke-opacity:1"
               d="m 176.70509,119.13356 c 0.2037,-0.97776 0.8148,-1.87405 1.8333,-2.68885"
               id="path934"
               sodipodi:nodetypes="cc" />
            <path
               style="fill:#e1e1e1;fill-opacity:1;stroke:none;stroke-width:0.264583px;stroke-linecap:butt;stroke-linejoin:miter;stroke-opacity:1"
               d="m 188.53227,164.42495 5.45213,-6.55129 -1.84073,1.45716 -4.04845,3.59512 z"
               id="path909"
               sodipodi:nodetypes="ccccc" />
          </g>
          <path
             style="fill:none;stroke:#745373;stroke-width:0.35269;stroke-linecap:butt;stroke-linejoin:miter;stroke-miterlimit:4;stroke-dasharray:none;stroke-opacity:1"
             d="m 76.513866,17.819917 c -0.126124,2.285337 4.59673,1.553208 4.280789,-1.273741 -0.440593,-3.162449 -5.055733,-2.5496 -4.555785,0.05154"
             id="path922"
             sodipodi:nodetypes="ccc" />
          <path
             style="fill:none;stroke:#000000;stroke-width:0.35269;stroke-linecap:round;stroke-linejoin:miter;stroke-miterlimit:4;stroke-dasharray:none;stroke-opacity:1"
             d="m 74.248886,14.574781 c 0.488882,3.24438 2.383298,1.461061 2.719404,2.536073 -0.03824,0.322387 -0.611102,0.886098 -1.55831,1.527755"
             id="path880"
             sodipodi:nodetypes="ccc" />
          <path
             style="fill:none;stroke:#745373;stroke-width:0.35269;stroke-linecap:butt;stroke-linejoin:miter;stroke-miterlimit:4;stroke-dasharray:none;stroke-opacity:1"
             d="m 73.48891,15.37551 c 0.70518,-0.3536 1.40871,-0.71089 2.74996,0.36666"
             id="path920"
             sodipodi:nodetypes="cc" />
          <path
             style="fill:none;stroke:#745373;stroke-width:0.35269;stroke-linecap:butt;stroke-linejoin:miter;stroke-miterlimit:4;stroke-dasharray:none;stroke-opacity:1"
             d="m 65.6057,16.47549 1.16109,-0.85554 c 0.32632,-5.87951 6.91763,-4.17541 6.72212,-0.24444 -0.171,1.74676 -1.05007,2.6717 -2.38329,2.93329 -1.75723,0.14258 -3.20059,-0.11699 -4.39994,-2.62774"
             id="path918"
             sodipodi:nodetypes="ccccc" />
        </g>
      </g>
    </g>
  </g>
</svg>
