<?xml version="1.0" encoding="UTF-8" standalone="no"?>
<svg
   width="865.76"
   height="682.89"
   viewBox="0 0 865.76 682.89"
   version="1.1"
   id="svg2236"
   sodipodi:docname="odgovoran-menadzer-projekta.svg"
   inkscape:version="1.1 (c68e22c387, 2021-05-23)"
   xmlns:inkscape="http://www.inkscape.org/namespaces/inkscape"
   xmlns:sodipodi="http://sodipodi.sourceforge.net/DTD/sodipodi-0.dtd"
   xmlns="http://www.w3.org/2000/svg"
   xmlns:svg="http://www.w3.org/2000/svg">
  <defs
     id="defs2240" />
  <sodipodi:namedview
     id="namedview2238"
     pagecolor="#505050"
     bordercolor="#eeeeee"
     borderopacity="1"
     inkscape:pageshadow="0"
     inkscape:pageopacity="0"
     inkscape:pagecheckerboard="0"
     showgrid="false"
     inkscape:zoom="0.61503315"
     inkscape:cx="386.15805"
     inkscape:cy="227.63001"
     inkscape:window-width="1920"
     inkscape:window-height="1025"
     inkscape:window-x="-8"
     inkscape:window-y="-8"
     inkscape:window-maximized="1"
     inkscape:current-layer="svg2236" />
  <ellipse
     style="fill:#f9f9f9;stroke-width:0"
     id="path2504"
     cx="324.70212"
     cy="322.42175"
     rx="276.74777"
     ry="289.96661" />
  <rect
     x="324.02249"
     y="73.896912"
     width="366.23178"
     height="247.61922"
     rx="30.546974"
     fill="#e6e6e6"
     id="rect1974"
     style="stroke-width:0.948369" />
  <rect
     x="314.66205"
     y="82.223579"
     width="369.35193"
     height="235.13867"
     rx="30.546974"
     fill="#ffffff"
     id="rect1976"
     style="stroke-width:0.948369" />
  <rect
     x="492.57617"
     y="252.85422"
     width="124.85281"
     height="8.3266821"
     fill="#ffc800"
     opacity="0.37"
     id="rect1978"
     style="stroke-width:0.948369" />
  <rect
     x="492.57617"
     y="267.42114"
     width="81.151955"
     height="8.3266821"
     fill="#ffc800"
     opacity="0.37"
     id="rect1980"
     style="stroke-width:0.948369" />
  <rect
     x="492.57617"
     y="281.97861"
     width="109.24265"
     height="8.3266821"
     fill="#ffc800"
     opacity="0.37"
     id="rect1982"
     style="stroke-width:0.948369" />
  <rect
     x="344.82965"
     y="109.27107"
     width="173.75075"
     height="112.36279"
     rx="6.1264653"
     fill="#ffc800"
     opacity="0.37"
     id="rect1984"
     style="stroke-width:0.948369" />
  <polygon
     points="416.74,236.1 558.39,236.1 558.39,237.2 415.64,237.2 415.64,156.83 416.74,156.83 "
     fill="#ffffff"
     id="polygon1986"
     transform="matrix(0.94836928,0,0,0.94836928,-21.383124,-30.129721)" />
  <rect
     x="388.53052"
     y="174.82236"
     width="4.163341"
     height="19.764017"
     fill="#ffffff"
     id="rect1988"
     style="stroke-width:0.948369" />
  <rect
     x="401.02054"
     y="171.69276"
     width="4.163341"
     height="22.893635"
     fill="#ffffff"
     id="rect1990"
     style="stroke-width:0.948369" />
  <rect
     x="458.24518"
     y="171.69276"
     width="4.163341"
     height="22.893635"
     fill="#ffffff"
     id="rect1992"
     style="stroke-width:0.948369" />
  <rect
     x="470.72574"
     y="150.88551"
     width="4.163341"
     height="43.700859"
     fill="#ffffff"
     id="rect1994"
     style="stroke-width:0.948369" />
  <path
     d="m 411.42418,201.86986 h -39.6134 a 0.521605,0.521605 0 0 1 0,-1.04321 h 39.6134 a 0.521605,0.521605 0 0 1 0,1.04321 z"
     fill="#ffffff"
     id="path1996"
     style="stroke-width:0.948369" />
  <path
     d="m 411.42418,207.06692 h -39.6134 a 0.5216031,0.5216031 0 1 1 0,-1.03373 h 39.6134 a 0.5216031,0.5216031 0 1 1 0,1.03373 z"
     fill="#ffffff"
     id="path1998"
     style="stroke-width:0.948369" />
  <path
     d="m 411.42418,212.27346 h -39.6134 a 0.52160381,0.52160381 0 0 1 0,-1.0432 h 39.6134 a 0.52160381,0.52160381 0 0 1 0,1.0432 z"
     fill="#ffffff"
     id="path2000"
     style="stroke-width:0.948369" />
  <rect
     x="360.96146"
     y="129.48083"
     width="5.718667"
     height="1.0432062"
     fill="#ffffff"
     id="rect2002"
     style="stroke-width:0.948369" />
  <rect
     x="360.96146"
     y="138.85069"
     width="5.718667"
     height="1.0432062"
     fill="#ffffff"
     id="rect2004"
     style="stroke-width:0.948369" />
  <rect
     x="360.96146"
     y="147.16792"
     width="5.718667"
     height="1.0432062"
     fill="#ffffff"
     id="rect2006"
     style="stroke-width:0.948369" />
  <rect
     x="360.96146"
     y="155.49458"
     width="5.718667"
     height="1.0432062"
     fill="#ffffff"
     id="rect2008"
     style="stroke-width:0.948369" />
  <rect
     x="360.96146"
     y="163.82129"
     width="5.718667"
     height="1.0432062"
     fill="#ffffff"
     id="rect2010"
     style="stroke-width:0.948369" />
  <rect
     x="360.96146"
     y="171.10477"
     width="5.718667"
     height="1.0432062"
     fill="#ffffff"
     id="rect2012"
     style="stroke-width:0.948369" />
  <rect
     x="360.96146"
     y="179.42195"
     width="5.718667"
     height="1.0432062"
     fill="#ffffff"
     id="rect2014"
     style="stroke-width:0.948369" />
  <rect
     x="360.96146"
     y="188.79184"
     width="5.718667"
     height="1.0432062"
     fill="#ffffff"
     id="rect2016"
     style="stroke-width:0.948369" />
  <g
     opacity="0.37"
     id="g2020"
     transform="matrix(0.94836928,0,0,0.94836928,-21.383124,-30.129721)"
     style="fill:#ffffff">
    <polygon
       points="494.72,177.1 507.87,182.57 537.25,162.99 537.86,163.9 507.99,183.81 494.81,178.32 469.58,193.12 447.68,184.91 426.23,201.18 425.57,200.31 447.5,183.67 469.48,191.91 "
       fill="#ffc800"
       id="polygon2018"
       style="fill:#ffffff" />
  </g>
  <g
     opacity="0.37"
     id="g2024"
     transform="matrix(0.94836928,0,0,0.94836928,-21.383124,-30.129721)"
     style="fill:#ffffff">
    <polygon
       points="528.86,163.53 538.1,162.35 538.1,169.48 537,169.48 537,163.6 529,164.62 "
       fill="#ffc800"
       id="polygon2022"
       style="fill:#ffffff" />
  </g>
  <path
     d="m 415.16074,218.34304 37.35627,-3.49 5.69022,64.0244 c 0,0 -6.29717,10.88729 -7.58696,11.38044 -1.28977,0.49315 -37.65026,-1.50791 -37.65026,-1.50791 l -3.57535,-15.27823 z"
     fill="#e6e6e6"
     id="path2026"
     style="stroke-width:0.948369" />
  <path
     d="m 467.08397,505.96447 c 0,0 0.42676,22.59015 11.17179,27.80618 a 6.4868458,6.4868458 0 0 0 7.06535,-0.94837 c 3.85986,-3.35722 8.96209,-11.82616 1.01476,-31.29618 z"
     fill="#ffc800"
     id="path2028"
     style="stroke-width:0.948369;fill:#1c1f24" />
  <path
     d="m 473.76997,379.70807 3.196,51.06967 c 0,0 2.08642,36.4079 2.08642,47.85472 0,11.44682 7.28348,22.89364 7.28348,22.89364 -1.04321,11.44682 -9.3699,12.48053 -9.3699,12.48053 -4.16334,1.04321 -7.28347,-3.12013 -9.3604,-6.24026 -2.07693,-3.12014 2.07693,-17.68709 2.07693,-17.68709 -9.36041,-19.76401 -15.60068,-75.95489 -15.60068,-75.95489 -4.16333,-10.43206 -6.24975,-28.09071 -6.24975,-28.09071 z"
     fill="#f9b499"
     id="path2030"
     style="stroke-width:0.948369;fill:#c8b7b7" />
  <path
     d="m 415.3599,196.29345 c 0,0 -4.07798,10.63122 -7.65333,14.86094 a 60.32577,60.32577 0 0 1 16.19813,-4.08747 V 201.206 c 0,0 -4.16333,-0.37935 -8.5448,-4.91255 z"
     fill="#2f2e41"
     id="path2032"
     style="stroke-width:0.948369" />
  <path
     d="m 349.42927,231.93316 1.8019,3.79348 c 0,0 7.64386,-2.1528 13.41942,-11.58907 l -1.3941,-2.33298 a 1.2802986,1.2802986 0 0 0 -1.89674,-0.3604 l -11.5701,8.9052 a 1.2802986,1.2802986 0 0 0 -0.36038,1.58377 z"
     fill="#2f2e41"
     id="path2034"
     style="stroke-width:0.948369" />
  <path
     d="m 424.22715,519.92446 v 0 a 1.3466844,1.3466844 0 0 1 -2.68388,0 v -10.43207 a 27.189747,27.189747 0 0 1 -7.74817,8.41205 18.019016,18.019016 0 0 1 -10.61226,3.41413 H 385.4104 c -4.16333,-1.04321 12.48055,-13.52376 12.48055,-13.52376 0,0 6.24975,6.24028 16.65337,-5.20655 0,0 4.16333,-6.24026 9.36038,-7.27398 z"
     fill="#ffc800"
     id="path2036"
     style="stroke-width:0.948369;fill:#1c1f24" />
  <path
     d="m 475.93226,334.04409 v 41.20665 a 5.6902158,5.6902158 0 0 1 -3.70814,5.36777 105.0888,105.0888 0 0 1 -36.03802,6.75238 v 0 a 70.511256,70.511256 0 0 1 -26.55435,-4.98843 5.5384766,5.5384766 0 0 1 -3.40465,-5.14964 v -87.02237 a 43.45428,43.45428 0 0 1 14.76613,-8.94312 37.773548,37.773548 0 0 1 29.69343,1.43205 l 3.68916,7.51107 z"
     fill="#2f2e41"
     id="path2038"
     style="stroke-width:0.948369" />
  <path
     d="m 454.36634,290.21045 -7.05588,4.9505 a 155.6843,155.6843 0 0 0 0.55006,26.02325 v 0 c -6.2213,4.87461 -26.02326,9.70181 -26.02326,9.70181 l -0.51211,2.89254 c 15.09804,0.80611 27.10439,-8.62069 27.10439,-8.62069 v -0.0665 c 2.24764,13.44788 7.86199,24.43949 21.27194,15.17392 0,0 2.73129,35.89578 -33.47745,47.08653 a 105.0888,105.0888 0 0 0 36.03802,-6.75239 5.6902158,5.6902158 0 0 0 3.70813,-5.36776 v -41.18763 z"
     opacity="0.2"
     id="path2040"
     style="stroke-width:0.948369" />
  <path
     d="m 450.67718,282.69938 c -8.60171,4.88409 -19.48899,-0.72076 -19.48899,-0.72076 -5.19707,-2.07694 -10.26135,2.41834 -10.26135,2.41834 l 0.0568,-3.12963 a 37.773548,37.773548 0 0 1 29.69345,1.43205 z"
     opacity="0.2"
     id="path2042"
     style="stroke-width:0.948369" />
  <ellipse
     cx="231.42372"
     cy="523.36707"
     rx="43.700859"
     ry="11.446817"
     fill="#b3b3b3"
     id="ellipse2044"
     style="stroke-width:0.948369" />
  <path
     d="m 216.03165,431.07175 9.00002,86.0076 a 2.8451079,2.8451079 0 0 0 2.78822,2.51319 h 6.52477 a 2.8451079,2.8451079 0 0 0 2.84511,-2.84512 v -88.81477 h -18.36992 a 2.8451079,2.8451079 0 0 0 -2.7882,3.1391 z"
     fill="#a7a9ac"
     id="path2046"
     style="stroke-width:0.948369" />
  <path
     d="m 171.07894,295.51184 c 0,0 -18.73028,2.07693 -19.76401,27.04749 0,0 -3.12014,28.62179 9.88201,81.93911 0,0 5.02636,31.82727 44.38368,29.04855 l 44.57336,-1.65016 1.80189,-34.19819 -42.54384,-83.45651 z"
     fill="#b3b3b3"
     id="path2048"
     style="stroke-width:0.948369" />
  <path
     d="m 207.32562,296.61195 30.85994,-2.66491 4.95049,39.16763 1.81138,12.95475 c 0,0 -9.88201,11.38042 -10.91573,11.87356 -1.03372,0.49317 -13.01162,-11.87356 -13.01162,-11.87356 z"
     fill="#f2f2f2"
     id="path2050"
     style="stroke-width:0.948369" />
  <path
     d="m 243.58177,275.73834 c 0,0 10.73555,-3.12013 14.8989,4.16334 l 13.52373,29.13391 v 34.7767 l -32.24455,-18.13283 z"
     fill="#ffc800"
     id="path2052"
     style="fill:#ffe680;stroke-width:0.948369" />
  <path
     d="m 235.5491,247.99854 c 0,0 1.08113,5.88937 9.39833,12.13913 0,0 -5.26345,2.2097 -9.39833,0.5785 a 4.2961129,4.2961129 0 0 0 2.11485,3.57535 21.812494,21.812494 0 0 1 -10.43205,1.55534 c 0,0 8.28874,-3.97368 8.3172,-17.84832 z"
     fill="#2f2e41"
     id="path2054"
     style="stroke-width:0.948369" />
  <path
     style="fill:#2b2200;stroke:#000000;stroke-width:3;stroke-linecap:butt;stroke-linejoin:miter;stroke-miterlimit:4;stroke-dasharray:none;stroke-opacity:1"
     d="M 154.86371,548.93727 H 852.04143"
     id="path2901" />
  <path
     d="m 643.18666,526.86652 -2.97788,1.64069 a 4.8651345,4.8651345 0 0 1 -2.92099,0.56902 c -5.43415,-0.73025 -10.49843,6.77136 -10.49843,6.77136 a 13.732387,13.732387 0 0 1 -8.31721,6.24027 c -19.77349,7.28347 -24.11703,-2.84512 -24.11703,-2.84512 -4.35301,-4.93152 10.58381,-10.68812 10.58381,-10.68812 5.94628,-0.85353 9.80614,-13.45736 11.02005,-18.0854 8.33616,-0.43625 21.23399,-7.40676 21.23399,-7.40676 a 5.5953788,5.5953788 0 0 0 1.68809,-1.4605 l 7.68179,20.71239 c 0.50264,1.73551 -1.79241,3.67967 -3.37619,4.55217 z"
     fill="#2f2e41"
     id="path2056"
     style="stroke-width:0.948369" />
  <path
     d="m 643.18666,526.86652 -2.97788,1.64069 a 4.8651345,4.8651345 0 0 1 -2.92099,0.56902 c -5.43415,-0.73025 -10.49843,6.77136 -10.49843,6.77136 a 13.732387,13.732387 0 0 1 -8.31721,6.24027 c -19.77349,7.28347 -24.11703,-2.84512 -24.11703,-2.84512 -4.35301,-4.93152 10.58381,-10.68812 10.58381,-10.68812 5.94628,-0.85353 9.80614,-13.45736 11.02005,-18.0854 8.33616,-0.43625 21.23399,-7.40676 21.23399,-7.40676 a 5.5953788,5.5953788 0 0 0 1.68809,-1.4605 l 7.68179,20.71239 c 0.50264,1.73551 -1.79241,3.67967 -3.37619,4.55217 z"
     opacity="0.2"
     id="path2058"
     style="stroke-width:0.948369" />
  <ellipse
     cx="666.32684"
     cy="537.41241"
     rx="39.537514"
     ry="10.925215"
     fill="#a7a9ac"
     id="ellipse2060"
     style="stroke-width:0.948369" />
  <path
     d="m 638.88106,501.61146 a 5.5953788,5.5953788 0 0 1 -1.68809,1.46048 c 0,0 -12.89783,6.97051 -21.27193,7.36883 a 9.4836928,9.4836928 0 0 1 -3.96419,-0.48366 3.4046457,3.4046457 0 0 1 -2.10537,-3.35723 4.5711399,4.5711399 0 0 1 1.29927,-3.04427 c 0,0 2.07692,-2.07692 0,-7.28348 l -10.16652,-22.14441 -24.13601,-46.47959 16.65337,-21.81249 -11.12437,-19.47002 c 0,0 21.32882,-9.33196 36.50274,-7.41626 l 7.98526,62.26045 9.82511,46.4701 a 16.615429,16.615429 0 0 0 1.47945,4.08747 c 1.23288,2.41835 2.95892,6.89464 0.71128,9.84408 z"
     fill="#ffc800"
     id="path2062"
     style="fill:#162d50;stroke-width:0.948369" />
  <ellipse
     cx="425.72559"
     cy="178.97624"
     rx="16.387821"
     ry="22.372032"
     fill="#f9b499"
     id="ellipse2066"
     style="stroke-width:0.948369" />
  <path
     d="m 423.9047,201.206 v 5.86092 c 0,0 -4.2392,0.8156 -5.75659,0.94837 l 0.55954,17.80089 c 0,0 15.76189,11.76927 27.12336,-3.48051 0,0 -4.941,-11.38043 -5.1117,-17.47846 l -0.37936,-15.77138 c 0,0 -4.98841,13.82723 -16.43525,12.12017 z"
     fill="#f9b499"
     id="path2068"
     style="stroke-width:0.948369" />
  <path
     d="m 423.9047,201.206 v 4.30559 c 0,0 15.17392,0.94837 16.43525,-16.44472 0,0 -4.98841,13.56168 -16.43525,12.13913 z"
     fill="#f7a48b"
     id="path2070"
     style="stroke-width:0.948369" />
  <path
     d="m 365.43775,222.99952 c -1.08114,1.69758 -6.42047,9.4837 -14.09277,12.71764 a 1.3182333,1.3182333 0 0 0 -0.68282,1.79241 c 2.8451,5.87041 14.99371,29.77881 24.14547,35.08966 a 6.7049708,6.7049708 0 0 0 5.15914,0.62593 34.53961,34.53961 0 0 0 20.01058,-15.17391 l 2.07694,78.03182 c 0,0 2.08641,0 6.24975,3.12015 0,0 11.43733,8.32668 13.52374,-8.31721 l -1.04321,-66.59449 -2.07692,-38.4943 -0.55954,-17.8009 c 0,0 -13.99793,2.039 -22.45738,11.5132 a 18.426815,18.426815 0 0 0 -1.6312,2.20971 c -2.75027,4.22024 -12.67022,19.09067 -18.01901,21.76507 l -10.23291,-20.45632 a 0.21812494,0.21812494 0 0 0 -0.36986,-0.0285 z"
     fill="#ffc800"
     id="path2072"
     style="fill:#0000ff;stroke-width:0.948369" />
  <path
     d="m 395.4157,262.82155 c 0,0 -0.6449,-23.50059 3.51845,-34.93792 0,0 -2.07693,19.76401 0,30.16762 0,0 -0.79663,1.21391 -3.51845,4.7703 z"
     fill="#ffffff"
     opacity="0.2"
     id="path2074"
     style="stroke-width:0.948369" />
  <path
     d="m 409.41363,210.75608 c 0,0 -0.82509,55.21405 11.51321,62.72514 l -2.77873,-65.43748 a 47.684007,47.684007 0 0 0 -8.73448,2.71234 z"
     fill="#ffc800"
     id="path2076"
     style="stroke-width:0.948369;fill:#000080;fill-opacity:1" />
  <path
     d="m 451.99541,329.84281 c 0,0 -5.03584,-21.09174 -6.1644,-62.0518 V 222.3167 l 9.68286,-16.79562 c 0,0 13.1349,0.51211 27.70187,14.03587 l 14.82301,10.57431 c 0,0 6.84722,4.34353 11.09591,0 l 9.48369,-8.53532 a 34.511158,34.511158 0 0 0 16.64388,12.49002 l -19.77349,21.8125 c 0,0 -4.15386,6.24026 -16.64389,1.03372 l -22.91259,-8.24134 c 0,0 -5.20655,9.36041 -5.20655,14.56697 0,0 -2.07694,34.33096 10.43205,50.97485 0,0 9.36042,10.43204 -5.19705,19.77349 -0.0285,0.038 -21.87889,18.73029 -23.9653,-4.16334 z"
     fill="#ffc800"
     id="path2080"
     style="stroke-width:0.948369;fill:#0000ff" />
  <path
     d="m 455.11555,306.94918 c 0,0 9.36988,8.32669 21.81248,10.43206 0.038,-0.0285 -25.96634,1.01476 -21.81248,-10.43206 z"
     fill="#ffffff"
     opacity="0.2"
     id="path2082"
     style="stroke-width:0.948369" />
  <path
     d="m 500.49502,231.29776 c 0,0 -0.63541,11.15281 7.69128,15.30669 0,0 -4.34354,-8.44999 -2.69338,-14.62386 0,0 -3.31929,0.66385 -4.9979,-0.68283 z"
     fill="#ffffff"
     opacity="0.2"
     id="path2084"
     style="stroke-width:0.948369" />
  <path
     d="m 445.89739,269.80154 c 0,0 8.03269,-0.2845 7.58697,-33.06962 l 2.02951,-31.21084 -9.68286,16.79562 z"
     fill="#ffc800"
     id="path2086"
     style="stroke-width:0.948369;fill:#000080;fill-opacity:1" />
  <path
     d="m 406.21763,337.72377 v 3.56585 c 0,0 6.52477,6.63859 10.02427,-0.32244 0,0 -3.79348,1.35617 -7.93786,-1.76396 z"
     opacity="0.2"
     id="path2090"
     style="stroke-width:0.948369" />
  <path
     d="m 405.17442,330.88601 c 0,0 11.44682,-4.16334 12.49002,-11.44681 0.0474,0 6.24026,9.3604 -12.49002,11.44681 z"
     fill="#ffffff"
     opacity="0.2"
     id="path2092"
     style="stroke-width:0.948369" />
  <path
     d="m 422.86151,314.23266 c 0,0 8.00423,4.21075 22.21081,3.14858 0,0 -10.76399,10.38464 -22.21081,-3.14858 z"
     opacity="0.2"
     id="path2094"
     style="stroke-width:0.948369" />
  <path
     d="m 422.86151,270.50334 c 0,0 18.73029,12.48054 20.81671,1.03373 z"
     fill="#ffffff"
     opacity="0.2"
     id="path2096"
     style="stroke-width:0.948369" />
  <path
     d="m 376.68542,245.35258 c 0,0 3.51844,15.81881 6.63857,15.81881 0,0 3.12014,1.04321 1.03373,-3.12014 z"
     fill="#ffffff"
     opacity="0.2"
     id="path2098"
     style="stroke-width:0.948369" />
  <path
     d="m 519.65208,223.08488 3.09169,-2.49422 13.51426,9.3699 -2.72183,3.49948 c 0,0 -8.65861,-3.73657 -13.88412,-10.37516 z"
     fill="#2f2e41"
     id="path2100"
     style="stroke-width:0.948369" />
  <path
     d="m 524.2327,221.62439 c 0,0 13.07801,-13.51427 16.19814,-12.47106 0,0 1.04321,2.07693 -2.07692,8.32668 0,0 1.62171,0.94837 8.09907,-2.12434 0,0 10.63122,-3.79348 11.59856,1.32772 a 1.2897822,1.2897822 0 0 1 -0.46471,1.22339 l -7.7292,6.17388 a 9.663883,9.663883 0 0 1 -4.86515,2.05797 l -12.09169,1.48893 z"
     fill="#f9b499"
     id="path2102"
     style="stroke-width:0.948369" />
  <path
     d="m 433.83414,387.33296 -1.60275,33.01273 c 0,33.28776 -8.32669,67.24886 -8.32669,67.24886 v 7.67232 c -5.19705,1.03371 -9.36038,7.27398 -9.36038,7.27398 -10.43207,11.44682 -16.65337,5.20655 -16.65337,5.20655 l 14.02637,-19.22344 v -83.82637 a 18.180239,18.180239 0 0 0 -0.58799,-4.74185 c -1.98209,-7.18863 -1.70706,-17.62069 -1.70706,-17.62069 9.64492,4.64701 24.21187,4.99791 24.21187,4.99791 z"
     fill="#f9b499"
     id="path2104"
     style="stroke-width:0.948369;fill:#c8b7b7" />
  <path
     d="m 664.49652,538.96772 v 0 a 7.1127697,7.1127697 0 0 1 -7.08432,-6.4584 l -8.77243,-96.54399 h 23.92737 l -0.94836,95.96549 a 7.103286,7.103286 0 0 1 -7.12226,7.0369 z"
     fill="#bcbec0"
     id="path2106"
     style="stroke-width:0.948369" />
  <path
     d="m 608.05906,503.59355 1.82087,7.28348 a 5.8704058,5.8704058 0 0 1 0.0948,2.4373 12.034806,12.034806 0 0 1 -2.73131,5.73764 c -7.28349,8.62067 -25.60597,8.91466 -25.60597,8.91466 -5.31087,0.3509 -3.22445,-8.70603 -2.15279,-12.41415 a 5.462607,5.462607 0 0 0 -0.0665,-3.28136 c -3.66066,-11.21921 -10.2613,-25.72926 -12.32876,-30.19608 a 8.8008669,8.8008669 0 0 0 -1.10957,-1.89674 c -2.35196,-2.902 -1.74501,-6.96102 -1.12857,-9.21814 a 3.793477,3.793477 0 0 0 -0.66386,-3.32878 l -1.25185,-1.67861 a 4.4004335,4.4004335 0 0 0 -1.34668,-1.19495 c -2.98736,-1.68809 -2.98736,-5.37725 -2.72182,-7.48264 a 5.6902158,5.6902158 0 0 0 -0.49315,-3.18651 c -10.65018,-22.51429 -10.65018,-48.29097 -10.65018,-48.29097 -4.15386,-21.8125 68.00755,-21.88836 68.00755,-21.88836 l -19.58382,55.85895 -0.48366,1.40358 c 0.0664,2.07694 5.13067,31.21084 5.13067,31.21084 1.02424,9.3604 7.26451,31.21084 7.26451,31.21084 z"
     fill="#ffc800"
     id="path2108"
     style="fill:#214478;stroke-width:0.948369" />
  <path
     d="m 607.24346,519.05197 a 16.340403,16.340403 0 0 0 0.8156,-10.25188 c -3.12013,8.31719 -10.43206,7.28348 -10.43206,7.28348 12.49002,-7.28348 5.20654,-22.89364 5.20654,-22.89364 l -10.83038,-43.44479 a 7.9093997,7.9093997 0 0 0 -2.39937,-3.99264 l -8.59223,-7.72921 c -14.56694,-14.56695 -8.44047,-29.62706 -8.44047,-29.62706 l 7.39726,3.61329 16.12229,27.73033 -0.48366,1.40357 c 0.0663,2.07693 5.13066,31.21084 5.13066,31.21084 1.03374,9.3604 7.274,31.21083 7.274,31.21083 l 1.82087,7.28348 a 5.8704058,5.8704058 0 0 1 0.0948,2.4373 12.034806,12.034806 0 0 1 -2.68389,5.7661 z"
     opacity="0.3"
     id="path2110"
     style="stroke-width:0.948369" />
  <path
     d="m 583.08849,480.7094 a 72.825278,72.825278 0 0 1 -10.1096,-5.5859 c -3.17704,-2.16228 -6.46789,-4.39095 -8.80087,-7.49212 5.94628,4.87462 12.72711,8.53533 18.91047,13.07802 z"
     opacity="0.2"
     id="path2112"
     style="stroke-width:0.948369" />
  <path
     d="m 583.08849,527.90025 c 0,0 -0.51211,12.63228 -8.31719,17.30774 0,0 -14.9463,5.7566 -10.59328,10.68812 0,0 4.35301,10.12858 24.11702,2.84511 a 13.779806,13.779806 0 0 0 8.32669,-6.24975 c 0,0 5.06429,-7.49212 10.49844,-6.77135 a 4.7418464,4.7418464 0 0 0 2.92098,-0.56904 l 2.97789,-1.64068 a 3.793477,3.793477 0 0 0 1.82085,-4.44785 l -6.42993,-21.62282 c 0,0 -3.99264,8.52585 -25.32147,10.46052 z"
     fill="#2f2e41"
     id="path2114"
     style="stroke-width:0.948369" />
  <ellipse
     cx="110.08673"
     cy="307.71964"
     rx="17.962112"
     ry="23.699749"
     transform="rotate(-21.85)"
     fill="#f9b499"
     id="ellipse2116"
     style="stroke-width:0.948369" />
  <path
     d="m 199.47312,231.48744 c 0,0 16.34989,14.08327 20.50375,1.59325 0,0 14.32986,7.65334 20.69342,-3.97366 0,0 1.89673,-6.01267 -8.87674,-11.38043 a 3.0063307,3.0063307 0 0 1 2.75026,-1.25185 c 0,0 -3.42361,-10.43207 -17.83881,-11.46579 0,0 -17.53536,-2.05796 -23.77563,10.43206 0,0 -18.73028,-2.07694 -14.56694,23.92736 0,0 7.64384,20.00111 -4.50476,21.96423 0,0 3.46155,6.13595 14.90837,3.00632 0,0 -2.07694,5.20656 -4.16334,5.20656 0,0 10.43205,2.07693 17.68707,-6.24027 0,0 1.04321,3.12013 -1.03371,4.16334 0,0 6.37303,0.2276 5.26346,-6.13595 0,-0.0474 -12.99268,-12.70815 -7.0464,-29.84517 z"
     fill="#2f2e41"
     id="path2118"
     style="stroke-width:0.948369" />
  <path
     d="m 206.51952,261.28519 c 0,0 3.05374,11.38043 -4.22975,14.45315 l 9.36989,23.92735 c 0,0 17.68709,2.08642 23.92736,-2.07692 l -3.12014,-20.80722 a 12.55641,12.55641 0 0 1 -6.15491,-10.43206 c 0,0 -8.93364,4.7039 -19.79245,-5.0643 z"
     fill="#f9b499"
     id="path2120"
     style="stroke-width:0.948369" />
  <path
     d="m 206.51952,261.28519 c 0,0 4.74183,11.38043 21.07274,10.29929 a 23.29195,23.29195 0 0 1 -1.28029,-5.27293 c 0,0 -9.32247,5.50054 -19.79245,-5.02636 z"
     fill="#f7a48b"
     id="path2122"
     style="stroke-width:0.948369" />
  <path
     d="m 232.46688,276.78155 c 0,0 -2.07692,-2.35196 0,-2.74079 0,0 11.44682,-1.77345 12.48055,4.12541 0,0 5.20655,29.82621 -5.19707,47.51329 l -4.1254,-28.09069 z"
     fill="#2f2e41"
     id="path2124"
     style="fill:#ffe680;stroke-width:0.948369" />
  <path
     d="m 219.97687,406.83143 c -7.86199,14.15914 -22.86518,9.29402 -29.71241,6.06956 a 25.738742,25.738742 0 0 1 -6.47736,-4.3625 15.392033,15.392033 0 0 1 -4.67546,-6.9231 16.122278,16.122278 0 0 1 -0.68283,-2.18124 v 0 a 17.563799,17.563799 0 0 1 -0.0474,-8.44998 l 6.22131,-25.7577 c -8.31721,-2.07693 -9.3604,-14.56696 -9.3604,-14.56696 l -1.07167,-24.44897 a 21.9832,21.9832 0 0 0 -3.03478,-10.5174 c -5.27296,-8.63016 -3.1581,-20.1813 -3.1581,-20.1813 4.16334,-19.7735 22.19185,-19.7735 22.19185,-19.7735 l 11.08643,15.62913 19.76402,46.82099 c 0,0 2.69338,19.74504 3.91677,35.89578 0.0948,1.23287 0.1707,2.44679 0.24658,3.64173 a 62.35528,62.35528 0 0 1 -5.20656,29.10546 z"
     fill="#ffc800"
     id="path2126"
     style="fill:#ffe680;stroke-width:0.948369" />
  <path
     d="m 227.26034,405.7977 c -3.12013,23.92736 -21.67972,22.13495 -21.67972,22.13495 -26.55434,-3.79348 -27.14233,-27.88207 -27.15181,-28.50799 a 16.122278,16.122278 0 0 0 0.68283,2.18125 15.392033,15.392033 0 0 0 4.67546,6.9231 25.738742,25.738742 0 0 0 6.47736,4.3625 c 6.84723,3.22446 21.81249,8.08959 29.71241,-6.06957 a 62.35528,62.35528 0 0 0 5.21602,-29.15287 c -0.0759,-1.19494 -0.15174,-2.40885 -0.24657,-3.64174 4.93151,15.10753 2.31402,31.77037 2.31402,31.77037 z"
     fill="#ffc800"
     id="path2128"
     style="stroke-width:0.948369" />
  <path
     d="m 227.26034,405.7977 c -3.12013,23.92736 -21.67972,22.13495 -21.67972,22.13495 -26.55434,-3.79348 -27.14233,-27.88207 -27.15181,-28.50799 a 16.122278,16.122278 0 0 0 0.68283,2.18125 15.392033,15.392033 0 0 0 4.67546,6.9231 25.738742,25.738742 0 0 0 6.47736,4.3625 c 6.84723,3.22446 21.81249,8.08959 29.71241,-6.06957 a 62.35528,62.35528 0 0 0 5.21602,-29.15287 c -0.0759,-1.19494 -0.15174,-2.40885 -0.24657,-3.64174 4.93151,15.10753 2.31402,31.77037 2.31402,31.77037 z"
     opacity="0.2"
     id="path2130"
     style="stroke-width:0.948369" />
  <path
     d="m 325.4545,492.21311 a 7.5869543,7.5869543 0 0 1 -3.50897,5.14016 37.3942,37.3942 0 0 1 -12.59435,3.79347 v 0 c -1.18545,0.15175 -2.45628,0.28452 -3.79346,0.34143 a 2.5890481,2.5890481 0 0 1 -2.70286,-2.24764 c -0.49315,-3.62277 -1.14753,-10.59329 0.3509,-14.33934 0,0 -20.80724,-32.24457 -26.01378,-54.05705 l -9.22763,-22.25824 a 5.8229875,5.8229875 0 0 0 -4.48579,-3.54689 c -4.80823,-0.74921 -13.78929,-0.77766 -19.91575,7.58696 a 16.046408,16.046408 0 0 1 -6.78085,5.27292 46.963247,46.963247 0 0 1 -5.2824,1.89675 39.945314,39.945314 0 0 1 -10.49846,1.57429 c 0,0 11.98739,-10.34671 3.91678,-47.27622 l 6.63856,0.44575 62.31736,4.21075 30.16762,99.90122 c 0,0 2.75977,7.74819 1.41308,13.56168 z"
     fill="#2f2e41"
     id="path2132"
     style="stroke-width:0.948369" />
  <path
     d="m 231.53749,419.74821 v 0 a 39.945314,39.945314 0 0 1 -10.49845,1.57431 c 0,0 11.98739,-10.34672 3.91677,-47.27622 l 6.63858,0.44573 c 0,0 4.22025,35.27935 -0.057,45.25618 z"
     opacity="0.2"
     id="path2134"
     style="stroke-width:0.948369" />
  <path
     d="m 272.0044,377.2423 c 0,0 14.58593,2.99685 27.57859,20.45634 l -5.69022,-18.9674 z"
     opacity="0.2"
     id="path2136"
     style="stroke-width:0.948369" />
  <path
     d="m 234.54381,517.07935 c 0,0 11.44683,6.24975 20.81672,3.12015 l 20.09595,-93.67044 -7.49213,-17.94316 c 0,0 -0.84406,-6.08852 -12.97369,-3.40464 a 17.838826,17.838826 0 0 0 -11.38044,7.42574 l -1.75448,1.99157 z"
     fill="#2f2e41"
     id="path2138"
     style="stroke-width:0.948369" />
  <path
     d="m 234.54381,517.07935 c 0,0 11.44683,6.24975 20.81672,3.12015 l 20.09595,-93.67044 -7.49213,-17.94316 c 0,0 -0.84406,-6.08852 -12.97369,-3.40464 a 17.838826,17.838826 0 0 0 -11.38044,7.42574 l -1.75448,1.99157 z"
     opacity="0.2"
     id="path2140"
     style="stroke-width:0.948369" />
  <path
     d="m 260.91797,494.3185 c 0,0 -7.19813,24.93262 -21.4616,24.91365 0,0 9.6544,3.11065 15.90416,1.02424 z"
     opacity="0.2"
     id="path2142"
     style="stroke-width:0.948369" />
  <path
     d="m 346.5083,520.95818 h -18.6734 a 2.8451079,2.8451079 0 0 1 -2.67441,-1.89674 c -1.10009,-2.95891 -3.37619,-8.66808 -5.33931,-11.12436 a 1.0337225,1.0337225 0 0 0 -0.73972,-0.34142 h -2.84511 a 1.0337225,1.0337225 0 0 0 -1.04321,1.0527 l 0.21813,12.2719 h -3.33826 l -2.64595,-19.84938 v 0 a 37.3942,37.3942 0 0 0 12.59434,-3.79347 7.5869543,7.5869543 0 0 0 3.50896,-5.14017 v 0 a 36.417381,36.417381 0 0 0 19.36571,21.8125 c 0,0 8.49738,4.60906 1.61223,7.00844 z"
     fill="#ffc800"
     id="path2144"
     style="fill:#917c6f;stroke-width:0.948369" />
  <path
     d="m 236.26036,517.95185 c 0,0 -10.03374,18.9674 -10.03374,25.17922 0,0 0,14.56694 6.24026,12.49001 0,0 14.56697,-4.16334 16.64389,-15.61015 l 4.01161,-19.2519 c 0,0 -6.81879,1.13803 -16.86202,-2.80718 z"
     fill="#ffc800"
     id="path2146"
     style="fill:#6c5d53;stroke-width:0.948369" />
  <polygon
     points="229.66,429.55 181.75,609.96 199.21,609.96 255.6,429.55 "
     fill="#bcbec0"
     id="polygon2148"
     transform="matrix(0.94836928,0,0,0.94836928,-21.383124,-30.129721)" />
  <polygon
     points="630.07,429.55 677.98,609.96 660.52,609.96 604.13,429.55 "
     fill="#bcbec0"
     id="polygon2150"
     transform="matrix(0.94836928,0,0,0.94836928,-21.383124,-30.129721)" />
  <polygon
     points="556.25,411.93 651.65,411.38 637.7,355.43 544.41,355.43 "
     fill="#e6e6e6"
     id="polygon2152"
     transform="matrix(0.94836928,0,0,0.94836928,-21.383124,-30.129721)" />
  <polygon
     points="544.41,355.43 543.04,351.05 635.85,351.05 637.7,355.43 "
     fill="#ffc800"
     id="polygon2154"
     transform="matrix(0.94836928,0,0,0.94836928,-21.383124,-30.129721)"
     style="fill:#53676c" />
  <path
     d="m 493.5814,302.79532 -1.27082,4.15386 11.0011,56.62713 94.83692,0.59746 -1.55532,-4.16333 -90.46495,0.5216 c -3.49,-14.57644 -5.77557,-26.36467 -8.8957,-41.61444 -0.37935,-1.83035 -1.46998,-8.35515 -2.08642,-11.44682 a 43.624987,43.624987 0 0 0 -1.56481,-4.67546 z"
     fill="#ffc800"
     id="path2156"
     style="stroke-width:0.948369;fill:#374548" />
  <polygon
     points="563.02,355.43 551.03,387.88 554.78,404.88 575.56,355.43 "
     fill="#ffffff"
     opacity="0.2"
     id="polygon2158"
     transform="matrix(0.94836928,0,0,0.94836928,-21.383124,-30.129721)" />
  <polygon
     points="595.93,355.43 578.06,411.93 592.48,411.73 610.78,355.43 "
     fill="#ffffff"
     opacity="0.2"
     id="polygon2160"
     transform="matrix(0.94836928,0,0,0.94836928,-21.383124,-30.129721)" />
  <polygon
     points="640.99,368.6 637.7,355.43 625.79,355.43 610.78,411.62 627.51,411.93 "
     fill="#ffffff"
     opacity="0.2"
     id="polygon2162"
     transform="matrix(0.94836928,0,0,0.94836928,-21.383124,-30.129721)" />
  <path
     d="m 658.15193,140.48191 a 59.434303,59.434303 0 0 1 1.89674,15.08856 c 0,31.89366 -25.16025,57.7462 -56.1814,57.7462 a 55.090771,55.090771 0 0 1 -12.20551,-1.36565 l 12.28137,-55.49857 z"
     fill="#b3b3b3"
     id="path2164"
     style="stroke-width:0.948369;fill:#d7d7f4" />
  <path
     d="M 637.47747,109.28056 A 54.920065,54.920065 0 0 0 603.9052,97.833744 c -24.44895,0 -45.23721,16.046416 -52.96643,38.437406 l 53.04231,20.19078 z"
     fill="#2f2e41"
     id="path2166"
     style="stroke-width:0.948369;fill:#d7e3f4" />
  <path
     d="M 591.75659,211.96051 C 566.5679,206.27029 547.71432,183.1775 547.71432,155.57047 a 59.235146,59.235146 0 0 1 3.21498,-19.29932 l 53.05178,20.1813 z"
     fill="#ffc800"
     id="path2168"
     style="stroke-width:0.948369;fill:#e2dbe3" />
  <path
     d="m 658.13296,140.44398 a 57.850527,57.850527 0 0 0 -20.65549,-31.16342 l -33.49639,47.18137 z"
     fill="#cccccc"
     id="path2170"
     style="stroke-width:0.948369;fill:#beb7c8" />
  <path
     d="m 674.65356,274.69514 v 6.82826 c 0,0 10.43205,-6.82826 17.68708,-5.78506 v -10.78296 l -10.43206,-1.69757 z"
     fill="#f9b499"
     id="path2172"
     style="stroke-width:0.948369" />
  <path
     d="m 674.65356,274.69514 v 4.79875 c 0,0 9.79664,-3.67021 13.22027,-8.39307 v -5.76609 l -3.33827,-1.65965 z"
     fill="#f7a48b"
     id="path2174"
     style="stroke-width:0.948369" />
  <ellipse
     cx="-134.24414"
     cy="707.32867"
     rx="22.220293"
     ry="13.855675"
     transform="rotate(-79.95)"
     fill="#f9b499"
     id="ellipse2176"
     style="stroke-width:0.948369" />
  <path
     d="m 661.09187,247.00276 -1.24236,4.02108 c 0,0 3.42362,1.43203 4.48578,-2.79769 0,0 2.62698,6.02214 8.70603,4.59959 a 2.342472,2.342472 0 0 1 0,-2.41834 c 0,0 6.52478,8.36461 15.28772,5.20655 l -7.08433,-12.67021 -8.20339,-4.56167 -9.41731,3.44258 a 12.802986,12.802986 0 0 0 -1.40359,2.18125 13.827224,13.827224 0 0 0 -1.12855,2.99686 z"
     fill="#f7a48b"
     id="path2178"
     style="stroke-width:0.948369" />
  <path
     d="m 664.28787,245.57071 a 8.2602964,8.2602964 0 0 0 7.28348,4.15386 c 0,0 -0.54056,-3.29084 1.28979,-3.20548 0,0 5.38673,10.43205 15.05061,9.48369 v 15.17391 c 0,0 12.78403,3.59431 21.1107,-16.16971 0,0 11.44682,-20.80722 -7.28346,-29.1339 0,0 -20.80724,-7.28348 -31.21085,1.04321 0,0 -19.7735,9.36041 -16.64387,16.64388 3.12961,7.28347 5.15912,5.13067 10.4036,2.01054 z"
     fill="#2f2e41"
     id="path2180"
     style="stroke-width:0.948369" />
  <ellipse
     cx="-49.05254"
     cy="734.46582"
     rx="6.7618732"
     ry="4.296113"
     transform="rotate(-73)"
     fill="#f9b499"
     id="ellipse2182"
     style="stroke-width:0.948369" />
  <path
     d="m 667.37008,286.14195 c 0,0 15.60068,-12.48054 28.0907,-10.43206 0,0 9.77767,-1.27082 8.01371,5.08325 z"
     fill="#ffc800"
     id="path2184"
     style="fill:#424478;stroke-width:0.948369;fill-opacity:1" />
  <path
     d="m 726.6716,304.87224 1.38463,-6.24026 a 17.070648,17.070648 0 0 0 -0.36988,-9.1897 c -4.82719,-14.3109 -23.93683,-8.53532 -24.21186,-8.62068 -0.27502,-0.0853 -36.10441,5.32035 -36.10441,5.32035 -21.8125,-1.03373 -24.97056,22.89364 -24.97056,22.89364 0,0 -14.56695,18.73029 -12.49003,21.81248 0,0 -7.28348,3.12014 -6.24027,14.56697 l -49.94113,6.24026 v 11.88306 h 52.30258 z"
     fill="#2f2e41"
     id="path2186"
     style="stroke-width:0.948369" />
  <path
     d="m 629.90949,330.88601 c -6.84722,3.94522 -5.42467,12.95472 -2.90201,19.16654 0.84404,2.25712 1.89674,4.40993 2.90201,6.63859 -0.68283,-1.00526 -1.30875,-2.03899 -1.96312,-3.06324 a 30.120209,30.120209 0 0 1 -3.86935,-10.27083 c -0.94837,-4.74184 0.94837,-10.73553 5.83247,-12.45209 z"
     opacity="0.2"
     id="path2188"
     style="stroke-width:0.948369" />
  <path
     d="m 541.99566,363.57631 h 31.73243 v -6.90413 l -11.38043,-2.57009 a 10.707089,10.707089 0 0 0 -8.24133,1.50791 z"
     fill="#f9b499"
     id="path2190"
     style="stroke-width:0.948369" />
  <path
     d="m 740.95405,347.17899 c -0.72076,15.76191 -3.79348,46.4132 -16.35937,70.05605 0,0 -14.56695,23.93683 -34.34046,23.93683 h -92.07717 a 24.78089,24.78089 0 0 1 -8.725,-2.02001 v 0 a 25.093851,25.093851 0 0 1 -12.60383,-11.50373 c 0,0 -14.56694,-22.89364 7.28348,-30.17712 0,0 3.59432,-2.15279 12.5564,-2.84509 a 25.511134,25.511134 0 0 0 19.03378,-10.67864 c 0.22761,-0.32245 0.44574,-0.66386 0.66386,-1.00527 a 10.801926,10.801926 0 0 0 0.74922,-1.0432 c 1.19494,-1.83985 3.96419,-6.5817 9.00003,-17.6871 2.62697,-5.77556 5.86092,-13.27717 9.80613,-22.96002 0,0 16.66285,-60.69564 67.74202,-49.04966 0,0 38.44689,9.94839 37.47955,44.63026 0,-0.038 0.0948,3.91676 -0.20864,10.3467 z"
     fill="#b3b3b3"
     id="path2192"
     style="stroke-width:0.948369" />
  <path
     d="m 740.95405,347.17899 c -0.72076,15.76191 -3.79348,46.4132 -16.35937,70.05605 0,0 -14.56695,23.93683 -34.34046,23.93683 h -92.07717 a 24.78089,24.78089 0 0 1 -8.725,-2.02001 v 0 c 0,0 -11.55114,-8.3836 1.97262,-20.86413 0,0 5.20654,-7.28348 19.77349,-6.24027 0,0 38.49432,4.60907 56.1814,-35.15605 -0.01,-0.01 15.03166,-60.24042 73.57449,-29.71242 z"
     fill="#a7a9ac"
     id="path2194"
     style="stroke-width:0.948369" />
  <circle
     cx="198.13593"
     cy="248.69086"
     r="6.2402697"
     fill="#f9b499"
     id="circle2196"
     style="stroke-width:0.948369" />
  <path
     d="m 198.13592,342.32335 a 75.537613,75.537613 0 0 1 -11.96842,22.37203 h 53.10869 l -2.07694,-18.62596 z"
     fill="#ffc800"
     id="path2198"
     style="fill:#ffe680;stroke-width:0.948369" />
  <path
     d="m 191.88617,298.5561 c 0,0 6.09802,21.92631 3.56587,39.61339 a 5.832471,5.832471 0 0 0 -5.30139,4.15386 8.6301606,8.6301606 0 0 1 6.94206,-1.03373 c 0,0 -8.32667,4.16335 -9.3604,9.36042 0,0 6.24027,-7.28348 10.43206,-8.32669 0,0 21.8125,5.05481 35.89578,5.13068 v -2.22867 c 0,0 -24.75244,-0.8156 -36.56913,-7.05587 -0.0285,0 1.67862,-28.24244 -5.60485,-39.61339 z"
     fill="#ffc800"
     id="path2200"
     style="stroke-width:0.948369" />
  <path
     d="m 191.88617,298.5561 c 0,0 6.09802,21.92631 3.56587,39.61339 a 5.832471,5.832471 0 0 0 -5.30139,4.15386 8.6301606,8.6301606 0 0 1 6.94206,-1.03373 c 0,0 -8.32667,4.16335 -9.3604,9.36042 0,0 6.24027,-7.28348 10.43206,-8.32669 0,0 21.8125,5.05481 35.89578,5.13068 v -2.22867 c 0,0 -24.75244,-0.8156 -36.56913,-7.05587 -0.0285,0 1.67862,-28.24244 -5.60485,-39.61339 z"
     opacity="0.2"
     id="path2202"
     style="stroke-width:0.948369" />
  <path
     d="m 202.28977,275.73834 a 18.161272,18.161272 0 0 0 -12.13912,0 q 0.86301,4.58063 2.03899,9.4837 c 1.07166,4.44785 2.56061,9.97684 4.43838,15.47738 a 30.679746,30.679746 0 0 0 3.79347,7.42573 l 20.646,30.08227 c 0,0 -3.12013,-27.05698 -9.3604,-38.50379 z"
     fill="#2f2e41"
     id="path2204"
     style="fill:#ffe680;stroke-width:0.948369" />
  <polygon
     points="384.26,351.05 353.09,416.49 260.11,416.49 283.03,351.05 "
     fill="#ffc800"
     id="polygon2206"
     transform="matrix(0.94836928,0,0,0.94836928,-21.383124,-30.129721)"
     style="fill:#1c2224" />
  <circle
     cx="293.8548"
     cy="314.23264"
     r="3.1201348"
     fill="#ffffff"
     id="circle2212"
     style="stroke-width:0.948369" />
  <path
     d="m 626.13499,364.17377 c -5.03584,11.10541 -7.80509,15.84725 -9.00003,17.6871 H 140.91132 a 4.1538575,4.1538575 0 0 1 -4.16334,-4.15386 v -9.3699 a 4.1633412,4.1633412 0 0 1 4.16334,-4.16334 z"
     fill="#e6e6e6"
     id="path2214"
     style="stroke-width:0.948369" />
  <path
     d="m 405.28823,175.66641 c 0,0 0.71127,7.48264 4.59011,10.56483 a 0.15173909,0.15173909 0 0 0 0.24656,-0.13277 c -0.34141,-1.10959 -1.03371,-4.37197 -0.47418,-11.44682 0,-0.0474 -0.83457,-0.35088 -4.36249,1.01476 z"
     fill="#2f2e41"
     id="path2216"
     style="stroke-width:0.948369" />
  <path
     d="m 405.28823,175.66641 c 0,0 0.71127,7.48264 4.59011,10.56483 a 0.15173909,0.15173909 0 0 0 0.24656,-0.13277 c -0.34141,-1.10959 -1.03371,-4.37197 -0.47418,-11.44682 0,-0.0474 -0.83457,-0.35088 -4.36249,1.01476 z"
     opacity="0.2"
     id="path2218"
     style="stroke-width:0.948369" />
  <path
     d="m 410.79825,169.75808 a 29.845181,29.845181 0 0 0 -1.46049,9.21815 10.887279,10.887279 0 0 1 3.61329,-4.37199 c 0,0 2.20969,9.85356 21.14863,-4.84616 0,0 1.41307,8.77241 8.0896,10.03374 l 2.52266,-17.45947 -12.48055,-2.07694 z"
     fill="#f7a48b"
     id="path2220"
     style="stroke-width:0.948369" />
  <path
     d="m 440.23564,189.37983 0.32244,9.3699 c -1.0432,15.60067 10.43205,33.28775 10.43205,33.28775 l 7.28348,13.53323 c 6.24028,16.64389 -2.60801,26.00429 -2.60801,26.00429 8.84829,3.12014 13.01163,-7.28348 13.01163,-7.28348 1.03372,4.16334 -2.08642,7.28348 -2.08642,7.28348 a 15.828284,15.828284 0 0 0 6.17389,-2.21918 11.380431,11.380431 0 0 0 5.0548,-7.64386 33.268794,33.268794 0 0 0 -11.22869,-31.7514 c -6.24026,-4.16334 -6.24026,-12.48055 -6.24026,-12.48055 1.04319,-13.53322 -1.04321,-36.41738 -1.04321,-36.41738 -3.12014,-33.29725 -17.16549,-29.9495 -17.16549,-29.9495 -23.40575,-21.62281 -44.22246,18.50268 -44.22246,18.50268 -2.07692,6.24027 4.16335,4.16335 4.16335,4.16335 3.12013,5.19707 12.49001,-2.08642 12.49001,-2.08642 0,0 1.04321,11.44683 20.80723,-8.31719 0,0 1.04321,11.7408 6.76187,12.11067 -0.0285,0 0.89147,5.57641 -1.90621,13.89361 z"
     fill="#2f2e41"
     id="path2222"
     style="stroke-width:0.948369" />
  <ellipse
     cx="-35.272274"
     cy="476.8735"
     rx="5.7091827"
     ry="3.8598633"
     transform="rotate(-72.28)"
     fill="#f9b499"
     id="ellipse2224"
     style="stroke-width:0.948369" />
  <path
     d="m 351.45878,229.10703 a 19.488989,19.488989 0 0 0 -6.06008,-5.44365 16.577496,16.577496 0 0 0 -6.87567,-2.14331 18.967385,18.967385 0 0 1 -5.60487,-1.2803 3.51845,3.51845 0 0 1 0.30348,-6.63859 c 2.84511,-0.94836 8.14649,-1.28978 17.30774,2.07693 0,0 1.58377,0.0664 -1.53636,-2.72181 0,0 -3.79347,-3.49001 -2.3235,-6.5248 a 0.31296186,0.31296186 0 0 1 0.5216,-0.0853 16.340403,16.340403 0 0 0 5.69022,4.40992 9.2560843,9.2560843 0 0 1 3.59432,2.48471 15.761898,15.761898 0 0 1 3.46155,9.34145 z"
     fill="#f9b499"
     id="path2226"
     style="stroke-width:0.948369" />
  <circle
     cx="380.20386"
     cy="162.33234"
     r="3.1201348"
     fill="#ffc800"
     id="circle2228"
     style="stroke-width:0.948369;fill:#ffffff" />
  <circle
     cx="403.09747"
     cy="144.64525"
     r="3.1201348"
     fill="#ffc800"
     id="circle2230"
     style="stroke-width:0.948369;fill:#ffffff" />
  <circle
     cx="447.83206"
     cy="138.405"
     r="3.1201348"
     fill="#ffc800"
     id="circle2232"
     style="stroke-width:0.948369;fill:#ffffff" />
  <circle
     cx="460.32208"
     cy="143.60205"
     r="3.1201348"
     fill="#ffc800"
     id="circle2234"
     style="stroke-width:0.948369;fill:#ffffff" />
</svg>
