<?xml version="1.0" encoding="UTF-8" standalone="no"?>
<svg
   id="b9f62c1d-cda9-45a0-89e2-988caa3d4e2e"
   data-name="Layer 1"
   width="865.76"
   height="682.89"
   viewBox="0 0 865.76 682.89"
   version="1.1"
   sodipodi:docname="tim-dizajnera.svg"
   inkscape:version="1.1 (c68e22c387, 2021-05-23)"
   xmlns:inkscape="http://www.inkscape.org/namespaces/inkscape"
   xmlns:sodipodi="http://sodipodi.sourceforge.net/DTD/sodipodi-0.dtd"
   xmlns="http://www.w3.org/2000/svg"
   xmlns:svg="http://www.w3.org/2000/svg">
  <defs
     id="defs22036" />
  <sodipodi:namedview
     id="namedview22034"
     pagecolor="#505050"
     bordercolor="#eeeeee"
     borderopacity="1"
     inkscape:pageshadow="0"
     inkscape:pageopacity="0"
     inkscape:pagecheckerboard="0"
     showgrid="false"
     inkscape:zoom="0.94305084"
     inkscape:cx="433.16859"
     inkscape:cy="341.44501"
     inkscape:window-width="1920"
     inkscape:window-height="1025"
     inkscape:window-x="-8"
     inkscape:window-y="-8"
     inkscape:window-maximized="1"
     inkscape:current-layer="b9f62c1d-cda9-45a0-89e2-988caa3d4e2e" />
  <circle
     style="fill:#f9f9f9;stroke-width:2;stroke-miterlimit:4;stroke-dasharray:none"
     id="path23029"
     cx="376.96802"
     cy="329.25052"
     r="263.50647" />
  <path
     d="m 139.37099,208.27663 c 0,0 12.18462,-8.12307 5.7447,-31.94346 l 29.16258,7.65656 -4.7476,8.59876 v 9.34886 c 0,0 0.16465,2.74428 1.1343,3.47609 l 6.78752,29.90354 -7.12598,7.39127 -32.07153,-8.31518 c 0,0 -0.65863,-6.33014 0.65863,-9.23909 1.31726,-2.90894 0.45738,-16.87735 0.45738,-16.87735 z"
     fill="#f9b499"
     id="path21650"
     style="stroke-width:0.914762" />
  <polygon
     points="205.01,475.79 235.11,605.84 195.72,475.79 "
     fill="#a7a9ac"
     id="polygon21652"
     transform="matrix(0.91476115,0,0,0.91476115,-1.081436,-25.216144)" />
  <polygon
     points="125.87,470.59 114.35,470.59 92.43,638.91 "
     fill="#a7a9ac"
     id="polygon21654"
     transform="matrix(0.91476115,0,0,0.91476115,-1.081436,-25.216144)" />
  <path
     d="m 177.96476,364.47211 v 51.3181 l -4.2262,-0.23785 -65.68899,-3.7871 c 2.03991,0.14636 7.31809,0.50311 7.74802,0.558 -0.25613,0 -2.91808,-0.14636 -10.30936,-0.60375 -22.16466,-1.35383 -20.66445,-53.05614 -20.66445,-53.05614 a 98.656989,98.656989 0 0 0 -8.82745,-37.83452 c -7.8212,-21.51518 -6.11975,-42.92059 -6.11975,-42.92059 -1.82952,-23.37215 20.12475,-30.04075 30.44326,-31.87943 a 0.48482341,0.48482341 0 0 0 0.1098,0 47.018723,47.018723 0 0 1 5.05863,-0.64948 l 5.85448,11.67235 z"
     fill="#a7a9ac"
     id="path21656"
     style="stroke-width:0.914762" />
  <path
     d="m 173.73856,415.55236 -65.68899,-3.7871 c 2.03991,0.14636 7.31809,0.50311 7.74802,0.558 -0.25613,0 -2.91808,-0.14636 -10.30936,-0.60375 -22.16466,-1.35383 -20.66445,-53.05614 -20.66445,-53.05614 a 98.656989,98.656989 0 0 0 -8.82745,-37.83452 c -7.8212,-21.51518 -6.11975,-42.92059 -6.11975,-42.92059 -1.82952,-23.37215 20.12475,-30.04075 30.44326,-31.87943 -9.14762,2.02162 -26.13473,10.06237 -15.14845,42.27111 l 12.23036,26.13473 c 0,0 5.77214,12.2761 6.11975,32.67527 0,0 3.45779,43.49689 64.28027,47.23826 l 5.93679,7.13514 z"
     opacity="0.2"
     id="path21658"
     style="stroke-width:0.914762" />
  <path
     d="m 431.92076,384.53281 31.69647,159.3514 -19.27402,-160.8699 c 0,0 -2.89064,2.38753 -12.42245,1.5185 z"
     fill="#bcbec0"
     id="path21660"
     style="stroke-width:0.914762" />
  <polygon
     points="379.61,452.2 387.01,451.86 355.12,616.09 "
     fill="#bcbec0"
     id="polygon21662"
     transform="matrix(0.91476115,0,0,0.91476115,-1.081436,-25.216144)" />
  <path
     d="m 437.90329,202.11115 c 0,0 40.01165,-2.00333 42.87486,34.76092 l -19.26488,101.98672 c 0,0 3.15593,49.50687 -29.59251,45.66488 l -85.74972,3.90603 -7.87609,2.32349 -16.59376,-21.62496 15.08441,-33.18752 z"
     fill="#a7a9ac"
     id="path21664"
     style="stroke-width:0.914762" />
  <path
     d="m 431.92076,384.53281 c -2.87235,4.39086 -6.02828,5.11352 -6.02828,5.11352 1.41788,36.9472 -17.042,126.74931 -17.042,126.74931 -7.4919,8.9921 -24.69855,-1.99418 -24.69855,-1.99418 0,0 2.24116,-66.91478 1.5002,-93.89109 -0.74095,-26.9763 0,-54.66613 0,-54.66613 l -41.70396,20.96633 c 14.24284,6.98878 14.48982,64.66447 14.48982,64.66447 l 0.21954,3.23826 v 0 l 4.51893,64.66446 -27.9734,5.48857 -28.47651,-98.85824 c -9.48608,-24.21373 -7.98587,-36.70937 -7.98587,-36.70937 -5.74471,-29.70229 25.4578,-50.43993 25.4578,-50.43993 h 109.08527 c 5.89106,26.94887 2.52474,39.70064 -1.36299,45.67402 z"
     fill="#2f2e41"
     id="path21666"
     style="stroke-width:0.914762" />
  <path
     d="m 431.92076,384.53281 -7.07111,-20.92058 c -3.87859,-12.67859 -16.6761,-9.14761 -16.6761,-9.14761 -16.31933,-3.16508 -22.53971,11.37962 -22.53971,11.37962 l -41.70396,20.96633 c 14.24283,6.98878 14.48982,64.66447 14.48982,64.66447 l 0.21953,3.23826 c -4.27193,-17.96592 -14.37089,-44.65865 -14.37089,-44.65865 -11.51684,-6.24782 -7.0528,-12.31268 -7.0528,-12.31268 -0.33847,-8.09564 -8.4341,-10.19959 -8.4341,-10.19959 -17.24326,-5.62578 15.4869,-20.40832 15.4869,-20.40832 28.49481,-13.72142 33.47111,-28.26611 33.47111,-28.26611 h 55.5443 c 5.89106,26.93971 2.52474,39.69148 -1.36299,45.66486 z"
     opacity="0.2"
     id="path21668"
     style="stroke-width:0.914762" />
  <path
     d="m 457.48833,294.20016 c -5.54346,7.12598 -30.36092,3.9609 -30.36092,3.9609 -0.25614,8.44326 -4.20791,22.70438 -4.20791,22.70438 h -78.66946 l 2.99128,-2.43327 a 2.5247408,2.5247408 0 0 0 0.14635,-3.7871 c -5.92765,-5.57089 -5.43367,-16.66695 -5.43367,-16.66695 -0.17381,-13.01706 -2.10396,-16.35594 -2.10396,-16.35594 a 142.62041,142.62041 0 0 1 -13.01704,8.09564 c -26.37257,12.13888 -55.31561,-62.81664 -55.31561,-62.81664 l 2.56132,-2.62537 12.5048,-12.80665 a 1.8295223,1.8295223 0 0 1 2.4424,-0.18296 c 7.3181,5.48857 24.85406,29.8761 24.85406,29.8761 l 12.44075,-31.10188 a 29.949279,29.949279 0 0 1 11.05947,-17.51767 c 12.4682,-9.76965 30.18711,-9.51352 30.18711,-9.51352 l 28.65947,3.06445 28.26612,5.9551 a 11.590024,11.590024 0 0 1 2.20458,0.48482 19.017884,19.017884 0 0 1 8.04075,5.61663 c 10.69355,11.62662 17.20665,35.60251 17.20665,35.60251 11.61747,35.6391 5.54346,60.44742 5.54346,60.44742 z"
     fill="#0071f2"
     id="path21670"
     style="stroke-width:0.914762" />
  <path
     d="m 371.39101,160.33401 v 16.17298 c 0,0 -4.32682,4.15301 -3.78711,6.53139 l 13.61164,13.16341 h 5.56175 a 17.380462,17.380462 0 0 0 9.45863,-10.06237 v -9.59584 l -24.20457,-16.80416 z"
     fill="#f9b499"
     id="path21672"
     style="stroke-width:0.914762" />
  <path
     d="m 367.96981,181.01676 c 0,0 -7.19918,0.91476 -6.82413,6.61372 l 2.33265,17.0603 15.34969,-10.79418 -11.26072,-10.86737 c 0,0 -0.62203,-0.29272 0.40251,-2.01247 z"
     fill="#0071f2"
     id="path21674"
     style="stroke-width:0.914762" />
  <path
     d="m 389.74112,194.54607 13.72141,10.14471 -1.95758,-17.48109 c 0,0 -1.59169,-3.77797 -5.25988,-1.10686 a 17.042,17.042 0 0 1 -6.50395,8.44324 z"
     fill="#0071f2"
     id="path21676"
     style="stroke-width:0.914762" />
  <g
     opacity="0.4"
     id="g21682"
     transform="matrix(0.91476115,0,0,0.91476115,-1.081436,-25.216144)">
    <path
       d="m 403.44,225.45 c 0,0 -7.87,1 -7.46,7.23 l 2.55,18.65 16.78,-11.8 L 403,227.65 c 0,0 -0.68,-0.32 0.44,-2.2 z"
       fill="#ffffff"
       id="path21678" />
    <path
       d="m 427.24,240.24 15,11.09 -2.14,-19.11 c 0,0 -1.74,-4.13 -5.75,-1.21 a 18.63,18.63 0 0 1 -7.11,9.23 z"
       fill="#ffffff"
       id="path21680" />
  </g>
  <path
     d="m 326.833,215.48495 c -7.08941,15.70645 -5.10438,24.95469 -5.10438,24.95469 2.63452,7.53763 0,11.49855 0,11.49855 -2.95467,-3.11019 -4.78419,-3.75053 -4.78419,-3.75053 a 58.544714,58.544714 0 0 1 -1.07942,14.9472 c -4.08899,-21.83534 -20.43577,-35.06279 -20.43577,-35.06279 a 19.521003,19.521003 0 0 0 -21.31394,-3.79626 l 12.5048,-12.80665 a 1.8295223,1.8295223 0 0 1 2.44241,-0.18296 c 7.31809,5.48857 24.85405,29.8761 24.85405,29.8761 l 12.44075,-31.10188 a 29.949279,29.949279 0 0 1 11.02288,-17.51767 c -6.21123,7.16257 -10.54719,22.9422 -10.54719,22.9422 z"
     opacity="0.2"
     id="path21688"
     style="stroke-width:0.914762" />
  <ellipse
     cx="392.00974"
     cy="149.91489"
     rx="21.451151"
     ry="27.150112"
     fill="#f9b499"
     id="ellipse21690"
     style="stroke-width:0.914762" />
  <ellipse
     cx="266.41171"
     cy="296.58658"
     rx="5.1958432"
     ry="7.1991701"
     transform="rotate(-25.3)"
     fill="#f9b499"
     id="ellipse21692"
     style="stroke-width:0.914762" />
  <path
     d="m 419.45255,130.38473 c 0,3.32058 -2.00332,6.95218 -7.11684,10.82162 l -0.91475,-2.74428 c 0,0 -14.15136,-0.46653 -20.74679,-3.37547 a 4.756758,4.756758 0 0 0 1.29897,4.2262 17.069443,17.069443 0 0 1 -12.07486,-7.19002 90.46073,90.46073 0 0 1 -8.67193,10.86735 28.87901,28.87901 0 0 0 -0.70436,6.52225 c 0,0 -3.47609,-3.2474 -6.03743,-1.75634 a 3.3571734,3.3571734 0 0 0 -2.00332,2.15884 c 0,0 -19.84117,-22.24699 6.29355,-28.84243 0,0 -2.94553,-15.03866 23.19835,-11.0869 0,0 22.7867,6.72349 26.82994,17.2341 a 8.735969,8.735969 0 0 1 0.64947,3.16508 z"
     fill="#2f2e41"
     id="path21694"
     style="stroke-width:0.914762" />
  <path
     d="m 378.1511,134.64751 c 0,0 7.81206,8.80001 17.01455,8.00416 0,0 -2.06735,-1.74719 -1.08857,-3.9792 a 46.890657,46.890657 0 0 0 18.29522,2.53388 c 0,0 -0.55799,-1.93014 -0.91475,-2.74428 0,0 -13.6208,-0.3842 -20.74679,-3.37547 a 5.8819142,5.8819142 0 0 0 1.29897,4.2262 c 0,0 -6.80583,0.0914 -12.12059,-7.126 z"
     fill="#f7a48b"
     id="path21696"
     style="stroke-width:0.914762" />
  <path
     d="m 419.45255,127.70448 v 2.68025 c 0,3.32058 -2.00332,6.95218 -7.11684,10.82162 l -0.91475,-2.74428 c 0,0 -14.15136,-0.46653 -20.74679,-3.37547 a 4.756758,4.756758 0 0 0 1.29897,4.2262 17.069443,17.069443 0 0 1 -12.07486,-7.19002 90.46073,90.46073 0 0 1 -8.67193,10.86735 28.87901,28.87901 0 0 0 -0.70436,6.52225 c 0,0 -3.47609,-3.2474 -6.03743,-1.75634 a 3.3571734,3.3571734 0 0 0 -2.00332,2.15884 c 0,0 -7.83036,-17.74637 13.15427,-25.56758 0,0 -6.33016,-6.33014 6.93388,-8.4158 0,0 -3.57672,2.08566 -2.17714,5.35136 0,0 19.82288,-8.80916 38.41998,5.93679 0.23783,0.15551 0.42993,0.32932 0.64032,0.48483 z"
     opacity="0.2"
     id="path21698"
     style="stroke-width:0.914762" />
  <path
     d="m 380.37397,172.70158 c 0,0 0.61288,10.82162 15.86195,11.55343 v -7.71143 a 17.508529,17.508529 0 0 1 -15.86195,-3.842 z"
     fill="#f7a48b"
     id="path21700"
     style="stroke-width:0.914762" />
  <path
     d="m 549.20228,333.42511 33.09606,227.77553 a 3.9426205,3.9426205 0 0 0 3.89688,3.37547 v 0 a 3.933473,3.933473 0 0 0 3.91518,-4.32682 L 568.60437,345.81097 567.58898,335.7486 Z"
     fill="#d1d3d4"
     id="path21702"
     style="stroke-width:0.914762" />
  <path
     d="m 549.20228,333.42511 33.09606,227.77553 a 3.9426205,3.9426205 0 0 0 3.89688,3.37547 h 0.42079 L 558.01143,345.81097 h 10.59294 l -1.01539,-10.06237 z"
     opacity="0.2"
     id="path21704"
     style="stroke-width:0.914762" />
  <path
     d="m 562.98773,563.19482 c 0,0 -12.95302,1.41788 -14.46237,-6.56799 l 48.56467,-10.97714 7.98587,6.69606 c 0,0 4.09813,9.04698 -10.36425,10.88566 z"
     fill="#e6e7e8"
     id="path21706"
     style="stroke-width:0.914762" />
  <path
     d="m 458.26587,558.59357 c 0,0 -4.28107,5.48857 11.3339,7.63826 l 59.81623,1.94844 c 0,0 9.96175,0.83243 7.31809,-11.41622 l -13.11768,-7.04366 c 0,0 -42.73764,2.67109 -43.22247,3.4029 -0.48481,0.73182 -22.12807,5.47028 -22.12807,5.47028 z"
     fill="#e6e7e8"
     id="path21708"
     style="stroke-width:0.914762" />
  <path
     d="m 510.49874,532.14782 c 0,0 -5.85447,10.52891 -23.33556,13.93181 0,0 -32.5472,1.71975 -28.89731,12.51394 0,0 4.12558,8.12307 43.70729,2.74428 0,0 30.36093,-6.54969 34.76093,-4.5738 l 0.59459,-12.38587 -15.92599,-14.3343 z"
     fill="#0071f2"
     id="path21710"
     style="stroke-width:0.914762" />
  <path
     d="m 439.26629,262.26584 c -0.7867,10.29106 -20.57299,5.5343 -20.57299,5.5343 -15.55093,-5.26902 -42.76508,-3.65904 -42.76508,-3.65904 1.59168,6.59543 -3.65904,14.77339 -3.65904,14.77339 l -11.1052,-5.29647 c 0,0 6.46736,-6.074 4.17131,-15.04782 l 42.1339,2.5339 a 17.124328,17.124328 0 0 0 9.63243,-2.16799 15.084411,15.084411 0 0 0 4.47319,-3.90603 14.791688,14.791688 0 0 0 2.02162,-13.76715 c -3.48525,-10.163 -11.07776,-37.45033 3.10104,-48.68359 a 19.017884,19.017884 0 0 1 8.04075,5.61664 c -18.79835,24.29604 2.6894,55.92849 2.6894,55.92849 z"
     opacity="0.2"
     id="path21712"
     style="stroke-width:0.914762" />
  <polygon
     points="570.52,305.52 460.61,305.52 488.02,378.33 618.73,378.33 618.73,374.71 595.09,371.09 "
     fill="#0071f2"
     id="polygon21714"
     transform="matrix(0.91476115,0,0,0.91476115,-1.081436,-25.216144)" />
  <polygon
     points="570.52,305.52 460.61,305.52 488.02,378.33 618.73,378.33 618.73,374.71 595.09,371.09 "
     opacity="0.4"
     id="polygon21716"
     transform="matrix(0.91476115,0,0,0.91476115,-1.081436,-25.216144)" />
  <polygon
     points="491.91,364.17 582.5,364.17 564.07,311.74 471.03,311.74 "
     fill="#ffffff"
     opacity="0.52"
     id="polygon21718"
     transform="matrix(0.91476115,0,0,0.91476115,-1.081436,-25.216144)" />
  <polygon
     points="520.77,311.74 529.07,311.74 490.01,359.4 486.93,351.67 "
     fill="#ffffff"
     opacity="0.45"
     id="polygon21720"
     transform="matrix(0.91476115,0,0,0.91476115,-1.081436,-25.216144)" />
  <polygon
     points="565.68,316.33 533.67,364.17 515.25,364.17 549.64,311.74 564.07,311.74 "
     fill="#ffffff"
     opacity="0.45"
     id="polygon21722"
     transform="matrix(0.91476115,0,0,0.91476115,-1.081436,-25.216144)" />
  <path
     d="m 527.71454,312.45879 -6.61372,4.01579 a 11.279005,11.279005 0 0 1 -4.1896,1.54595 c -19.69482,2.84491 -36.59046,-19.15509 -36.59046,-19.15509 l -41.00874,-47.56759 c -5.66237,-5.66237 -2.14054,-7.22661 -2.14054,-7.22661 -3.12848,-4.50062 0.77755,-5.48856 0.77755,-5.48856 -3.90603,-3.31144 -2.74428,-3.70479 -2.74428,-3.70479 -0.57631,-4.68358 18.21288,3.4944 18.21288,3.4944 a 6.1014569,6.1014569 0 0 1 -1.6923,-5.57091 139.84868,139.84868 0 0 1 10.97713,11.05032 c 3.90603,4.69272 2.54304,11.71808 2.54304,11.71808 0.7867,5.06779 48.08899,31.40376 48.08899,31.40376 l 8.71768,16.03576 z"
     fill="#f9b499"
     id="path21724"
     style="stroke-width:0.914762" />
  <polygon
     points="538.89,327.75 562.34,341.32 565.68,355.71 561.45,355.71 "
     fill="#f7a48b"
     id="polygon21726"
     transform="matrix(0.91476115,0,0,0.91476115,-1.081436,-25.216144)" />
  <path
     d="m 522.20768,276.26168 c 0,0 -11.65406,6.31186 -10.19044,21.41457 0,0 0.64948,12.51393 16.73099,14.78254 0,0 9.55925,0.32931 12.4133,-4.29938 l -12.24866,-9.83369 -4.39084,-14.63617 z"
     fill="#0071f2"
     id="path21728"
     style="stroke-width:0.914762" />
  <path
     d="m 522.20768,276.26168 c 0,0 -11.65406,6.31186 -10.19044,21.41457 0,0 0.64948,12.51393 16.73099,14.78254 0,0 9.55925,0.32931 12.4133,-4.29938 l -12.24866,-9.83369 -4.39084,-14.63617 z"
     fill="#ffffff"
     opacity="0.4"
     id="path21730"
     style="stroke-width:0.914762" />
  <polygon
     points="414.13,365.38 418.34,366.66 417.41,336.68 414.13,336.68 "
     fill="#2f2e41"
     id="polygon21732"
     transform="matrix(0.91476115,0,0,0.91476115,-1.081436,-25.216144)" />
  <path
     d="m 408.17355,281.07333 v 30.81831 a 2.3417885,2.3417885 0 0 1 -2.35094,2.34179 H 381.3985 a 2.3509361,2.3509361 0 0 1 -2.35094,-2.34179 v -30.81831 z"
     fill="#d1d3d4"
     id="path21734"
     style="stroke-width:0.914762" />
  <path
     d="m 419.79102,292.29745 c -1.95758,-6.26611 -11.61747,-5.22329 -11.61747,-5.22329 v 4.8391 c 0,0 8.74512,-0.39335 7.57422,5.74469 0,0 -1.18003,5.09522 -7.57422,8.35177 v 4.70187 c 15.66986,-6.13805 11.61747,-18.41414 11.61747,-18.41414 z"
     fill="#d1d3d4"
     id="path21736"
     style="stroke-width:0.914762" />
  <polygon
     points="458.42,371.09 454,378.33 409.95,378.33 405.04,371.09 "
     fill="#d1d3d4"
     id="polygon21738"
     transform="matrix(0.91476115,0,0,0.91476115,-1.081436,-25.216144)" />
  <path
     d="m 408.17355,309.11076 v 2.74429 a 2.3417885,2.3417885 0 0 1 -2.35094,2.34178 H 381.3985 a 2.3509361,2.3509361 0 0 1 -2.35094,-2.34178 v -30.78172 h 1.82952 c 0,0 4.29938,26.58296 27.29647,28.03743 z"
     opacity="0.2"
     id="path21740"
     style="stroke-width:0.914762" />
  <path
     d="m 344.28663,310.19018 c 0,0 6.57713,6.52224 28.22953,8.59875 l 1.40874,2.07651 h -29.65656 l 2.93639,-2.38752 a 2.5247408,2.5247408 0 0 0 0.0732,-3.85115 10.556344,10.556344 0 0 1 -2.99128,-4.43659 z"
     opacity="0.2"
     id="path21742"
     style="stroke-width:0.914762" />
  <path
     d="m 362.70077,540.70084 c -31.83368,13.34636 -66.247,3.65904 -66.247,3.65904 -2.36923,-16.13639 19.99669,-10.06237 28.81498,-12.0474 8.8183,-1.98503 9.91601,-7.43701 9.91601,-7.43701 l 26.52807,-5.19584 z"
     fill="#0071f2"
     id="path21744"
     style="stroke-width:0.914762" />
  <path
     d="m 362.70077,540.70084 v 1.93929 c -8.38835,13.12682 -53.76966,8.8183 -53.76966,8.8183 -12.26694,-1.07027 -12.47734,-7.09855 -12.47734,-7.09855 0,0 34.41332,9.68732 66.247,-3.65904 z"
     fill="#2f2e41"
     id="path21746"
     style="stroke-width:0.914762" />
  <path
     d="m 406.80141,518.21601 v 29.54678 c -13.33721,7.04366 -21.28649,0 -21.28649,0 -11.19667,-6.72349 -20.88399,-1.34469 -20.88399,-1.34469 -3.65905,-5.48857 13.77629,-14.10562 13.77629,-14.10562 5.58919,-4.72017 8.15968,-16.53888 8.15968,-16.53888 14.18794,7.56508 20.23451,2.44241 20.23451,2.44241 z"
     fill="#0071f2"
     id="path21748"
     style="stroke-width:0.914762" />
  <path
     d="m 406.80141,547.76279 a 6.0831616,6.0831616 0 0 1 -2.80831,5.13182 38.346787,38.346787 0 0 1 -11.59918,5.01289 c -23.87526,4.08898 -27.76299,-11.4894 -27.76299,-11.4894 0,0 9.68732,-5.3788 20.88399,1.34469 0,0 7.94928,7.04366 21.28649,0 z"
     fill="#2f2e41"
     id="path21750"
     style="stroke-width:0.914762" />
  <path
     d="m 567.62557,175.16228 c 0,0 5.85447,2.33265 8.23285,5.85448 0,0 10.97713,-10.15385 34.35843,-10.53806 l -8.58961,-10.73928 -16.39251,-9.82454 z"
     fill="#f9b499"
     id="path21752"
     style="stroke-width:0.914762" />
  <path
     d="m 583.72537,155.64128 c 0,0 0.12806,14.39834 23.02453,10.5472 l -5.15925,-6.44906 z"
     fill="#f7a48b"
     id="path21754"
     style="stroke-width:0.914762" />
  <path
     d="m 567.62557,175.16228 c 0,0 8.02246,-6.34844 12.80665,0 l 1.35385,1.90271 a 38.200426,38.200426 0 0 0 -6.00997,3.95177 c 0,0 -2.25032,-3.58586 -8.15053,-5.85448 z"
     fill="#f7a48b"
     id="path21756"
     style="stroke-width:0.914762" />
  <path
     d="M 627.76197,183.48661 C 611.1682,177.27538 600.063,178.739 600.063,178.739 c 0,0 -12.30354,1.44532 -29.92184,11.6998 -0.12807,-0.91477 -0.18295,-4.57381 5.68067,-9.43119 0,0 6.18379,-6.11975 21.67984,-9.25738 0,0 17.29814,-4.4 24.41498,3.55841 z"
     fill="#0071f2"
     id="path21758"
     style="stroke-width:0.914762" />
  <path
     d="M 627.76197,183.48661 C 611.1682,177.27538 600.063,178.739 600.063,178.739 c 0,0 -12.30354,1.44532 -29.92184,11.6998 -0.12807,-0.91477 -0.18295,-4.57381 5.68067,-9.43119 0,0 6.18379,-6.11975 21.67984,-9.25738 0,0 17.29814,-4.4 24.41498,3.55841 z"
     fill="#ffffff"
     opacity="0.4"
     id="path21760"
     style="stroke-width:0.914762" />
  <path
     d="m 451.37772,239.79931 a 40.24949,40.24949 0 0 0 -16.20956,-4.87568 c -0.57631,-4.68357 18.2129,3.49439 18.2129,3.49439 a 6.1014569,6.1014569 0 0 1 -1.69232,-5.5709 c 0.91476,2.94554 3.78712,6.95219 3.78712,6.95219 0.58545,2.35094 -4.09814,0 -4.09814,0 z"
     fill="#f7a48b"
     id="path21766"
     style="stroke-width:0.914762" />
  <path
     d="m 437.90329,238.62841 a 12.760918,12.760918 0 0 1 5.89107,5.13181 12.760918,12.760918 0 0 1 -5.89107,-5.13181 z"
     fill="#f7a48b"
     id="path21768"
     style="stroke-width:0.914762" />
  <path
     d="m 437.08916,244.09869 a 8.5438691,8.5438691 0 0 1 3.15592,1.3264 8.4340978,8.4340978 0 0 1 2.479,2.36008 8.6993786,8.6993786 0 0 1 -3.15592,-1.3264 8.9189213,8.9189213 0 0 1 -2.479,-2.36008 z"
     fill="#f7a48b"
     id="path21770"
     style="stroke-width:0.914762" />
  <path
     d="m 608.57943,403.80683 -5.08607,111.96677 c 0.42079,19.9052 -6.40333,17.56341 -6.40333,17.56341 l -17.38046,0.38421 c -3.82371,-46.15885 -21.21332,-131.2042 -21.21332,-131.2042 -10.97713,-0.53971 -17.59085,0.16466 -21.58836,1.16175 v 0 c -5.28732,1.29896 -5.97339,3.09189 -5.97339,3.09189 3.38462,5.48857 4.23535,12.71518 4.23535,12.71518 l 2.1131,124.89234 c -20.78338,1.82952 -28.42164,-14.99293 -28.42164,-14.99293 l -1.33555,-4.50978 -33.02288,-109.62498 c -11.03201,-31.39459 0,-42.00583 0,-42.00583 8.48899,-14.42578 95.04369,-29.81207 95.04369,-29.81207 2.06736,11.76384 10.83077,10.97714 10.83077,10.97714 l 32.45572,3.16507 z"
     fill="#2f2e41"
     id="path21772"
     style="stroke-width:0.914762" />
  <path
     d="m 537.29209,544.37818 c -20.78338,1.82952 -28.42163,-14.99293 -28.42163,-14.99293 l -1.3447,-4.50978 c 0,0 22.38421,4.19875 19.96009,-24.93639 l -5.43368,-77.23328 c 0,0 -6.63201,-5.33306 0,-10.92225 0,0 -24.44242,-3.4029 -16.90478,-8.23285 0,0 1.93014,-0.48482 14.32515,0 l 17.45365,0.15551 c -5.28732,1.29896 -5.9734,3.0919 -5.9734,3.0919 3.38463,5.48856 4.23535,12.71517 4.23535,12.71517 z"
     opacity="0.2"
     id="path21774"
     style="stroke-width:0.914762" />
  <path
     d="m 579.72786,533.70292 c 0,0 -2.49729,-0.41164 -5.48857,7.14428 0,0 -4.96715,7.98587 -14.03243,7.55593 0,0 -16.41081,1.93929 -11.65406,8.23285 0,0 8.6262,4.09813 28.27526,-2.37838 0,0 20.06986,-6.90644 28.27527,-1.93929 0,0 -0.56715,-13.23659 -4.49147,-20.43577 0,0 -18.3867,-2.74428 -18.3867,-1.82952 0,0.91477 -2.4973,3.6499 -2.4973,3.6499 z"
     fill="#0071f2"
     id="path21776"
     style="stroke-width:0.914762" />
  <ellipse
     cx="158.02058"
     cy="174.65852"
     rx="18.569651"
     ry="26.555515"
     transform="rotate(-2.98)"
     fill="#f9b499"
     id="ellipse21782"
     style="stroke-width:0.914762" />
  <path
     d="m 135.21797,136.69658 c 0,0 -1.38128,-16.74928 31.70563,-7.50104 0,0 14.80083,3.75051 18.76174,25.56757 0,0 -0.37505,20.96633 2.57963,30.1048 a 6.2844091,6.2844091 0 0 0 1.70146,2.68025 15.55094,15.55094 0 0 1 3.98835,5.64406 7.0253656,7.0253656 0 0 1 -6.71433,9.36717 25.357179,25.357179 0 0 1 -4.66529,-0.42994 c 0,0 -2.64365,0 -2.42412,3.31143 h -9.47693 c 0,0 -1.24407,-0.44823 -1.3264,-6.61372 l 0.18296,-6.21123 c 0,0 11.04116,-0.70436 15.2948,-18.36841 a 34.760924,34.760924 0 0 0 -5.22329,-26.70187 c 0,0 -10.69355,5.43367 -15.98087,-1.17089 0,0 -0.91476,6.83326 -12.55968,16.31019 0,0 -1.14344,3.16506 0.44824,4.82993 l -3.91517,11.94678 c 0,0 6.54969,22.2287 -8.23285,28.84242 0,0 -6.17464,0.91476 -8.15968,-1.76549 a 9.440335,9.440335 0 0 0 4.18961,-3.30229 c 0,0 -11.6815,3.96092 -18.07568,-1.98503 0,0 10.1447,-0.43908 5.07693,-11.8919 0.0183,-0.0365 -20.92059,-50.50396 12.82494,-52.66279 z"
     fill="#2f2e41"
     id="path21784"
     style="stroke-width:0.914762" />
  <path
     d="m 241.2022,318.24922 h -17.63659 c -26.00667,-9.03783 -24.01248,-44.07319 -24.01248,-44.07319 -0.22869,-4.85738 -2.20458,-3.30229 -2.20458,-3.30229 -3.09189,4.18047 -3.31143,37.23994 -3.31143,37.23994 l -5.73555,0.91475 c -4.40916,1.3264 -6.83327,11.8919 -6.83327,11.8919 h -53.45865 c -31.52266,0.42994 -26.52807,-20.6736 -26.52807,-20.6736 l 3.54927,-49.205 c 0.64949,-28.86987 28.69606,-42.99379 28.69606,-42.99379 0,0 1.56425,0.70438 5.67153,0.26528 l 7.31808,10.97715 c 6.89731,12.91642 12.80666,18.02078 16.00832,19.97838 a 5.2141385,5.2141385 0 0 0 6.40333,-0.5763 c 7.17173,-7.13514 1.60083,-33.27901 1.60083,-33.27901 h 9.48608 c 33.94679,3.16506 43.41456,73.61083 43.41456,73.61083 0.66777,16.0815 22.69522,29.53763 22.69522,29.53763 -7.32723,2.40583 -5.12266,9.68732 -5.12266,9.68732 z"
     fill="#0071f2"
     id="path21786"
     style="stroke-width:0.914762" />
  <path
     d="m 160.10863,190.52113 a 15.20333,15.20333 0 0 0 9.42204,2.06736 l -0.18296,6.21123 c 0,0 0,2.06735 0.18296,3.13763 0,0 -7.24491,-1.28067 -9.42204,-11.41622 z"
     fill="#f7a48b"
     id="path21788"
     style="stroke-width:0.914762" />
  <path
     d="m 135.04417,295.12407 v -40.24949 c 0,0 8.47069,15.55093 9.7788,30.55301 0,0 -0.71352,8.70853 11.6998,11.33389 l 36.48067,11.48025 -4.70187,0.72267 -46.46072,-7.19002 c 0,0 -8.94637,4.18045 -10.50146,-2.62537 0,0 -4.0524,1.31726 -5.48857,3.8237 0,0.0274 0.71352,-7.84864 9.19335,-7.84864 z"
     opacity="0.2"
     id="path21790"
     style="stroke-width:0.914762" />
  <path
     d="m 231.75271,318.24922 h -8.1871 c -26.00667,-9.03783 -24.01248,-44.07319 -24.01248,-44.07319 -0.22869,-4.85738 -2.20458,-3.30229 -2.20458,-3.30229 0,0 4.2262,-24.91809 -5.12266,-33.23327 0.64948,0.45738 11.36134,8.11394 10.97713,26.84824 0,0 -3.31143,26.68358 12.14804,39.02371 z"
     opacity="0.2"
     id="path21792"
     style="stroke-width:0.914762" />
  <path
     d="M 268.64503,318.24922 H 241.2022 c -1.82952,-7.86694 5.05863,-9.68732 5.05863,-9.68732 a 50.677768,50.677768 0 0 1 10.06238,-0.49397 v 0 c 14.39833,0.93306 12.32182,10.18129 12.32182,10.18129 z"
     fill="#f9b499"
     id="path21794"
     style="stroke-width:0.914762" />
  <path
     d="m 268.64503,318.24922 h -1.40872 c 0.62203,-6.79668 -10.19045,-9.98919 -10.84908,-10.17214 14.33431,0.92391 12.2578,10.17214 12.2578,10.17214 z"
     fill="#f7a48b"
     id="path21796"
     style="stroke-width:0.914762" />
  <path
     d="m 194.03712,308.11368 c 17.11518,-0.71352 17.95676,12.75176 17.95676,12.75176 H 181.4683 c 0,0 2.15883,-9.62329 6.83327,-11.8919 z"
     fill="#f9b499"
     id="path21798"
     style="stroke-width:0.914762" />
  <path
     d="m 256.38723,399.06837 c 0,12.26695 -1.06112,19.6948 -2.35093,24.18628 -1.89356,6.55885 -4.23535,6.87901 -4.23535,6.87901 l -57.57506,4.34512 C 161.68202,433.56401 167.80177,419.8426 167.80177,419.8426 v -34.43161 c -57.16343,-20.19793 -40.56051,-63.51187 -40.56051,-63.51187 l 39.92933,7.59252 57.77631,9.36715 19.9052,17.06944 a 13.629941,13.629941 0 0 1 2.74429,3.14679 c 8.52556,13.75801 8.79084,39.99335 8.79084,39.99335 z"
     fill="#2f2e41"
     id="path21800"
     style="stroke-width:0.914762" />
  <path
     d="m 240.16852,544.43307 c -17.70978,5.28732 -35.42869,-21.42371 -35.42869,-21.42371 v -70.82081 c 0,-2.13139 -0.6129,-2.94553 -1.13432,-3.2474 a 0.6311852,0.6311852 0 0 0 -0.91475,0.40249 l -9.45863,31.72393 -6.5314,33.24241 a 37.971736,37.971736 0 0 0 16.09065,33.41622 h 0.064 c -16.52974,6.01913 -34.57798,-19.66735 -35.08109,-20.39917 v 0 -101.95928 c 3.74137,9.50438 24.42411,9.14762 24.42411,9.14762 l 51.06197,-3.8603 c 0,13.22745 -12.13888,46.10396 -12.13888,46.10396 l -7.44615,39.14264 c -2.14055,13.62079 16.49314,28.5314 16.49314,28.5314 z"
     fill="#f9b499"
     id="path21802"
     style="stroke-width:0.914762" />
  <path
     d="m 167.80177,454.7133 c 0,0 32.62952,-13.09024 37.74304,-18.36841 l -1.50936,12.94386 c 0,0 0.72267,0.68608 0.72267,2.8998 0,0 36.25198,-14.71851 38.52973,-21.56092 l -47.97007,3.65905 c 0,0 -22.53057,1.52765 -27.51601,-8.89148 z"
     fill="#f7a48b"
     id="path21804"
     style="stroke-width:0.914762" />
  <path
     d="m 205.05084,552.18109 c -23.12516,1.82952 -36.68192,-16.88649 -36.68192,-16.88649 l -0.56715,-7.94013 v 0 c 0.50312,0.73181 18.55136,26.41831 35.08108,20.39918 3.55843,-0.1921 4.46405,0.91476 4.49148,1.99417 a 2.497298,2.497298 0 0 1 -2.32349,2.43327 z"
     fill="#0071f2"
     id="path21806"
     style="stroke-width:0.914762" />
  <path
     d="m 241.82424,548.00064 c -23.12516,1.82952 -36.68192,-16.87735 -36.68192,-16.87735 l -0.33846,-7.94927 v 0 c 0.50312,0.73181 18.29522,26.42745 34.85239,20.39917 3.55842,-0.1921 4.47319,0.91476 4.49148,1.99418 a 2.4881503,2.4881503 0 0 1 -2.32349,2.43327 z"
     fill="#0071f2"
     id="path21808"
     style="stroke-width:0.914762" />
  <path
     d="m 254.0363,423.25465 c -1.89356,6.55885 -4.23535,6.87901 -4.23535,6.87901 l -57.57506,4.34512 C 161.68202,433.56401 167.80177,419.8426 167.80177,419.8426 v -34.43161 c -59.63329,-21.16757 -39.79212,-64.55469 -39.79212,-64.55469 0,0 -4.7659,41.23743 35.67569,50.07402 0,0 6.11975,-0.70436 5.43369,5.77215 0,0 -2.03078,6.46735 6.46735,4.7659 0,0 -10.54719,36.37091 9.50437,37.39544 0,0 10.5289,4.0158 40.7892,-3.0736 0,0 19.93265,-5.13182 28.15635,7.46444 z"
     opacity="0.2"
     id="path21810"
     style="stroke-width:0.914762" />
  <path
     d="M 775.73057,338.85879 H 32.489252 V 320.8563 H 773.62926 c 1.29201,7.93098 1.93093,13.89522 1.93093,13.89522 0,1.47277 0,2.8449 0.17042,4.10727 z"
     fill="#939598"
     id="path21844"
     style="stroke-width:1.13964" />
  <path
     d="m 659.63224,217.7993 -0.1555,3.8237 -0.2104,4.8208 -4.29022,101.97757 -37.7705,28.49481 -0.91475,0.70437 h -7.74804 l -28.15634,-3.16508 c 0,0 -10.06237,1.82952 -11.45281,-15.59668 -0.1098,-1.26237 -0.15551,-2.6345 -0.15551,-4.10727 0,0 -0.41164,-5.96424 -1.24408,-13.89522 -1.46362,-14.01415 -4.2079,-34.1389 -8.26944,-38.18214 0,0 -11.60832,25.33888 -20.06071,26.04326 0,0 -19.09107,-5.11352 -16.99626,-32.45574 a 6.6503135,6.6503135 0 0 1 0.66778,-2.40581 l 0.59459,-1.25322 c 2.40582,-5.26903 8.04989,-19.63993 11.09605,-43.95427 2.35094,-18.73432 19.7314,-27.44284 19.7314,-27.44284 a 136.77509,136.77509 0 0 1 15.84366,-10.79419 c 17.6183,-10.22703 29.92184,-11.63576 29.92184,-11.63576 0,0 11.1052,-1.46362 27.69897,4.74761 a 95.32726,95.32726 0 0 1 11.35218,5.12267 c 0,0 20.12474,4.09813 20.51809,29.15343 z"
     fill="#0071f2"
     id="path21762"
     style="stroke-width:0.914762" />
  <path
     d="m 140.11194,333.42511 -33.09606,227.77553 a 3.9426205,3.9426205 0 0 1 -3.89687,3.37547 v 0 a 3.933473,3.933473 0 0 1 -3.91518,-4.32682 l 21.51518,-214.43832 1.00623,-10.06237 z"
     fill="#d1d3d4"
     id="path21812"
     style="stroke-width:0.914762" />
  <path
     d="m 140.11194,333.42511 -33.09606,227.77553 a 3.9426205,3.9426205 0 0 1 -3.89687,3.37547 h -0.42079 L 131.3028,345.81097 h -10.58379 l 1.00623,-10.06237 z"
     opacity="0.2"
     id="path21814"
     style="stroke-width:0.914762" />
  <path
     d="m 284.40637,213.72861 -11.46196,11.75469 c 0,0 -21.60665,-32.10812 -12.57796,-31.5867 0,0 -6.88816,-9.81539 0.85988,-6.79668 0,0 5.36964,-2.02162 10.32765,5.48857 l 5.58004,7.00707 c 0,0 -1.7106,-8.38837 2.80832,-7.95843 0,0 1.07027,8.47069 2.74428,10.46487 0.0549,-0.0183 4.46404,6.42163 1.71975,11.62661 z"
     fill="#f9b499"
     id="path21816"
     style="stroke-width:0.914762" />
  <path
     d="m 261.65626,196.20179 c 2.13139,2.6528 4.13472,5.3971 6.05572,8.18712 l -0.27442,-0.21955 a 15.55094,15.55094 0 0 1 4.47317,2.6711 16.00832,16.00832 0 0 1 3.38462,3.93348 15.624121,15.624121 0 0 1 1.96674,4.7476 18.212895,18.212895 0 0 1 0.45737,5.05863 c -0.1738,-0.83243 -0.26528,-1.65572 -0.45737,-2.46985 -0.1921,-0.81414 -0.39335,-1.60998 -0.70437,-2.37838 a 18.679423,18.679423 0 0 0 -2.18628,-4.35426 17.106034,17.106034 0 0 0 -3.2474,-3.59502 16.538881,16.538881 0 0 0 -4.06154,-2.57047 l -0.19211,-0.0915 -0.0823,-0.12806 c -1.80207,-2.87235 -3.50353,-5.79044 -5.13181,-8.79085 z"
     fill="#f7a48b"
     id="path21818"
     style="stroke-width:0.914762" />
  <path
     d="m 261.22633,187.09077 a 23.088572,23.088572 0 0 1 3.73222,4.19876 22.512272,22.512272 0 0 1 2.74429,4.91226 22.493977,22.493977 0 0 1 -3.73223,-4.19876 22.869028,22.869028 0 0 1 -2.74428,-4.91226 z"
     fill="#f7a48b"
     id="path21820"
     style="stroke-width:0.914762" />
  <path
     d="m 280.59181,208.39556 c -2.36922,-1.7289 -3.44864,-8.8183 -3.44864,-8.8183 0,0 -1.71061,-8.38836 2.80831,-7.95842 -1.72889,7.95842 0.64033,16.77672 0.64033,16.77672 z"
     fill="#f7a48b"
     id="path21822"
     style="stroke-width:0.914762" />
  <path
     d="m 361.16398,273.61802 -15.95344,-9.26652 a 6.522247,6.522247 0 0 1 -3.10103,-4.15301 19.429526,19.429526 0 0 1 -0.0549,-8.23285 c 0,0 -8.23285,-5.98254 -7.02537,-7.3181 0,0 1.64657,-2.08566 10.26362,1.1526 v 0 c 1.58254,0.58545 3.37547,1.36299 5.44283,2.33265 -0.25613,-0.31103 -3.61331,-4.4 -1.78379,-6.97963 a 0.65862803,0.65862803 0 0 1 0.30188,-0.26528 0.91476115,0.91476115 0 0 1 1.26237,0.3476 13.026199,13.026199 0 0 0 6.4948,5.48857 c 0,0 6.54969,1.82952 8.31518,11.8919 -0.009,-0.0458 2.41497,7.71143 -4.16216,15.00207 z"
     fill="#f9b499"
     id="path21824"
     style="stroke-width:0.914762" />
  <path
     d="m 355.62052,250.39224 c -4.48232,1.65572 -10.06237,-4.29937 -10.33679,-4.63783 1.58254,0.58545 3.37547,1.36299 5.44282,2.33263 -0.25612,-0.31101 -3.6133,-4.4 -1.78378,-6.97963 a 0.65862803,0.65862803 0 0 1 0.30187,-0.26528 c 1.05197,3.33888 4.39085,6.49481 4.39085,6.49481 3.51268,2.13139 1.98503,3.0553 1.98503,3.0553 z"
     fill="#f7a48b"
     id="path21826"
     style="stroke-width:0.914762" />
  <path
     d="m 342.15524,251.95648 a 6.1380473,6.1380473 0 0 1 2.85405,0.30187 5.9916856,5.9916856 0 0 1 2.46986,1.46363 6.0374236,6.0374236 0 0 1 -2.85405,-0.29273 6.2386711,6.2386711 0 0 1 -2.46986,-1.47277 z"
     fill="#f7a48b"
     id="path21828"
     style="stroke-width:0.914762" />
  <ellipse
     cx="567.62555"
     cy="143.19138"
     rx="21.862791"
     ry="33.873604"
     fill="#f9b499"
     id="ellipse21830"
     style="stroke-width:0.914762" />
  <path
     d="m 549.02848,125.26206 c 0,0 5.27816,1.66488 8.30603,-1.10685 0,0 1.58254,11.2607 10.29106,9.49522 0,0 -0.34761,7.59251 6.40333,7.6657 l 3.20167,-14.52642 -9.5867,-8.61704 -13.8129,1.75634 -3.38461,2.35093 a 15.614973,15.614973 0 0 0 -1.41788,2.98212 z"
     fill="#f7a48b"
     id="path21832"
     style="stroke-width:0.914762" />
  <path
     d="m 550.42806,122.27994 a 27.909363,27.909363 0 0 0 -2.29605,5.56175 c 0,0 -7.43701,-5.09522 0,-21.81706 0,0 4.44574,-12.31268 15.55094,-6.33014 0,0 6.15634,2.1131 15.4869,1.23493 0,0 13.72142,-2.28691 16.53888,5.27817 0,0 21.2865,-1.23492 20.40832,20.58212 0,0 0.91477,39.23411 -21.11268,35.36467 0,0 -10.06237,-0.34761 -11.2607,-6.5131 0,0 0.5214,-10.64781 -4.4,-12.4499 0,0 -4.40002,2.59793 -5.80874,-3.38461 0,0 -1.40874,-10.19958 -7.39128,-8.61706 0,0 -3.33888,0.70438 -4.5738,-4.93056 l -1.38129,-5.66237 a 1.2349275,1.2349275 0 0 0 -1.98503,-0.65863 10.977134,10.977134 0 0 1 -7.77547,2.34179 z"
     fill="#2f2e41"
     id="path21834"
     style="stroke-width:0.914762" />
  <ellipse
     cx="581.92328"
     cy="145.06664"
     rx="4.71102"
     ry="6.3850331"
     fill="#f9b499"
     id="ellipse21836"
     style="stroke-width:0.914762" />
  <path
     d="m 709.79774,316.09954 a 145.54764,145.54764 0 0 0 -7.66569,55.37048 c -2.79917,46.30522 -28.21124,41.08193 -28.21124,41.08193 l -96.46155,3.14678 c -20.87486,-2.1131 -21.03952,-17.24325 -21.03952,-17.24325 a 32.931401,32.931401 0 0 1 1.14346,-11.69979 c 3.65905,-11.94679 14.1605,-13.24574 14.1605,-13.24574 a 182.99797,182.99797 0 0 0 27.71726,-10.15385 c 20.17963,-8.23285 14.90146,-22.53972 14.90146,-22.53972 l -4.87568,-59.89856 c -2.08565,-20.89315 1.39045,-34.82495 1.39045,-34.82495 8.59874,-14.71851 27.77214,-19.48442 44.69522,-20.57298 a 150.26781,150.26781 0 0 1 31.26653,1.41788 c 58.59046,3.21995 22.9788,89.16177 22.9788,89.16177 z"
     fill="#a7a9ac"
     id="path21838"
     style="stroke-width:0.914762" />
  <path
     d="m 655.57986,225.51989 c -23.82954,14.06902 -25.23826,65.95427 -25.23826,65.95427 l -3.16508,43.63411 c -1.04283,38.35594 -22.86903,40.45989 -22.86903,40.45989 -16.46569,5.48856 -36.47152,9.38545 -46.71685,11.18753 3.65904,-11.94679 14.1605,-13.24574 14.1605,-13.24574 A 182.99797,182.99797 0 0 0 599.4684,363.3561 c 20.17963,-8.23285 14.90147,-22.53972 14.90147,-22.53972 l -4.87568,-59.89856 c -2.08566,-20.89315 1.39043,-34.82495 1.39043,-34.82495 8.59876,-14.71851 27.77215,-19.48442 44.69524,-20.57298 z"
     opacity="0.2"
     id="path21840"
     style="stroke-width:0.914762" />
  <path
     d="m 659.63224,225.3095 -0.37505,1.1343 -42.079,130.48153 -0.91477,0.70436 h -7.74802 l -28.15636,-3.16507 c 0,0 -11.61746,2.1131 -11.61746,-19.7131 0,0 -3.16508,-45.73806 -9.49522,-52.0682 0,0 -11.60832,25.32972 -20.06072,26.0341 0,0 -19.09106,-5.11352 -16.99626,-32.45574 a 6.476509,6.476509 0 0 1 0.66778,-2.39666 c 0.15551,-0.32932 0.35675,-0.75011 0.58545,-1.25323 0,0 3.75967,30.14138 8.52557,18.71602 0,0 8.23285,24.57048 18.85323,-0.57631 a 91.027883,91.027883 0 0 0 11.05947,-40.0208 l 1.33554,23.78379 a 24.396679,24.396679 0 0 1 4.18046,0.76841 c 0,0 -2.85405,7.61995 0,7.80291 0,0 2.8632,-0.75925 4.39085,8.00416 0,0 8.57131,48.59211 25.14678,44.0183 0,0 4.57382,-6.0923 2.67111,-37.34054 l 1.95758,-50.84243 c 0,0 -3.2474,-20.84741 26.61955,-23.22579 l 31.26655,-2.10395 z"
     opacity="0.2"
     id="path21764"
     style="stroke-width:0.914762" />
  <path
     d="m 341.69786,257.72863 a 8.1322267,8.1322267 0 0 1 5.78129,2.22287 7.1351369,7.1351369 0 0 1 -3.11019,-0.53971 7.2449083,7.2449083 0 0 1 -2.6711,-1.68316 z"
     fill="#f7a48b"
     id="path21842"
     style="stroke-width:0.914762" />
  <circle
     cx="147.5947"
     cy="172.81136"
     r="6.6228704"
     fill="#f9b499"
     id="circle21846"
     style="stroke-width:0.914762" />
  <path
     style="fill:none;stroke:#000000;stroke-width:3;stroke-linecap:butt;stroke-linejoin:miter;stroke-miterlimit:4;stroke-dasharray:none;stroke-opacity:1"
     d="M 273.58016,570.48886 H 866.33717"
     id="path22824" />
  <polygon
     points="611.77,655.35 613.94,655.35 647.91,475.01 635.99,476.81 "
     fill="#bcbec0"
     id="polygon21780"
     transform="matrix(0.91476115,0,0,0.91476115,-1.081436,-25.216144)" />
  <polygon
     points="768.99,655.35 771.16,655.35 745.5,471.75 732.49,475.73 "
     fill="#bcbec0"
     id="polygon21778"
     transform="matrix(0.91476115,0,0,0.91476115,-1.081436,-25.216144)" />
</svg>
