<?xml version="1.0" encoding="iso-8859-1"?>
<!-- Generator: Adobe Illustrator 19.0.0, SVG Export Plug-In . SVG Version: 6.00 Build 0)  -->
<svg version="1.1" id="Layer_1" xmlns="http://www.w3.org/2000/svg" xmlns:xlink="http://www.w3.org/1999/xlink" x="0px" y="0px"
	 viewBox="0 0 387.574 387.574" style="enable-background:new 0 0 387.574 387.574;" xml:space="preserve">
<g>
	<path style="fill:#EAD788;" d="M176.88,47.684c65.76,0,119.08,53.31,119.08,119.08c0,65.76-53.32,119.08-119.08,119.08
		c-65.77,0-119.08-53.32-119.08-119.08C57.8,100.994,111.11,47.684,176.88,47.684z"/>
	<path style="fill:#F9DD53;" d="M176.88,59.722c59.112,0,107.042,47.921,107.042,107.042c0,59.112-47.93,107.042-107.042,107.042
		c-59.121,0-107.042-47.93-107.042-107.042C69.838,107.643,117.759,59.722,176.88,59.722z"/>
	<path style="fill:#88C5FC;" d="M375.47,222.064l-2.04-3.47c-16.48-27.98-28.09-58.48-35.35-90.13c-2.24-9.77-5.35-19.21-9.24-28.23
		C303.2,40.654,243.6-0.876,174.41,0.014c-89.67,1.15-162.38,73.89-163.5,163.56c-0.4,32.27,8.43,62.45,24.01,88.07
		c24.07,39.58,38.55,84.24,40.87,130.51l0.27,5.42h190.16v-56.2h29.82c17.4,0,31.34-14.41,30.78-31.8l-2.22-50.31l1.91-0.6
		l44.07-13.88C375.92,233.094,378.31,226.884,375.47,222.064z M176.88,285.844c-65.77,0-119.08-53.32-119.08-119.08
		c0-65.77,53.31-119.08,119.08-119.08c50.62,0,93.87,31.59,111.1,76.14c5.15,13.32,7.98,27.8,7.98,42.94
		c0,20.3-5.08,39.42-14.05,56.15C261.85,260.364,222.34,285.844,176.88,285.844z"/>
	<path style="opacity:0.49;fill:#F2F2F2;enable-background:new    ;" d="M370.58,234.784l-44.07,13.88l-44.6-25.75l-82.8-47.79
		l88.87-51.3l40.86-23.59c3.89,9.02,7,18.46,9.24,28.23c7.26,31.65,18.87,62.15,35.35,90.13l2.04,3.47
		C378.31,226.884,375.92,233.094,370.58,234.784z"/>
	<path style="fill:#808080;" d="M121.739,215.335h78.345c7.765,0,14.059-6.294,14.059-14.059v-52.588
		c0-7.765-6.294-14.059-14.059-14.059h-78.345c-7.765,0-14.059,6.294-14.059,14.059v52.588
		C107.68,209.041,113.974,215.335,121.739,215.335z"/>
	<polyline style="fill:#B3B3B3;" points="214.141,166.449 256.087,142.236 256.087,207.731 214.141,183.506 	"/>
	<circle style="fill:#B3B3B3;" cx="183.234" cy="112.307" r="22.323"/>
	<circle style="fill:#B3B3B3;" cx="138.589" cy="112.307" r="22.323"/>
	<path style="fill:#FFFFFF;" d="M139.52,182.484c-1.97,0-3.9-0.8-5.3-2.2s-2.2-3.33-2.2-5.3c0-1.98,0.8-3.91,2.2-5.31
		c1.4-1.39,3.33-2.19,5.3-2.19c1.98,0,3.91,0.8,5.31,2.19c1.39,1.4,2.19,3.33,2.19,5.31c0,1.97-0.8,3.9-2.19,5.3
		C143.43,181.684,141.5,182.484,139.52,182.484z"/>
	<path style="fill:#FFFFFF;" d="M182.3,182.484c-1.97,0-3.91-0.8-5.3-2.2c-1.4-1.39-2.2-3.33-2.2-5.3c0-1.98,0.8-3.91,2.2-5.31
		c1.39-1.39,3.33-2.19,5.3-2.19s3.91,0.8,5.3,2.19c1.4,1.4,2.2,3.33,2.2,5.31c0,1.97-0.8,3.91-2.2,5.3
		C186.21,181.684,184.27,182.484,182.3,182.484z"/>
</g>
<g>
</g>
<g>
</g>
<g>
</g>
<g>
</g>
<g>
</g>
<g>
</g>
<g>
</g>
<g>
</g>
<g>
</g>
<g>
</g>
<g>
</g>
<g>
</g>
<g>
</g>
<g>
</g>
<g>
</g>
</svg>
