<?xml version="1.0" encoding="UTF-8" standalone="no"?>
<!-- Created with Inkscape (http://www.inkscape.org/) -->

<svg
   xmlns:dc="http://purl.org/dc/elements/1.1/"
   xmlns:cc="http://creativecommons.org/ns#"
   xmlns:rdf="http://www.w3.org/1999/02/22-rdf-syntax-ns#"
   xmlns:svg="http://www.w3.org/2000/svg"
   xmlns="http://www.w3.org/2000/svg"
   xmlns:sodipodi="http://sodipodi.sourceforge.net/DTD/sodipodi-0.dtd"
   xmlns:inkscape="http://www.inkscape.org/namespaces/inkscape"
   width="1200"
   height="1200"
   viewBox="0 0 1200.0001 1200.0001"
   id="svg2"
   version="1.1"
   inkscape:version="0.91 r13725"
   inkscape:export-filename="/Users/macpro/Desktop/nagoveštavajući.png"
   inkscape:export-xdpi="25.4"
   inkscape:export-ydpi="25.4"
   sodipodi:docname="lajkologija.svg">
  <defs
     id="defs4" />
  <sodipodi:namedview
     id="base"
     pagecolor="#ffffff"
     bordercolor="#666666"
     borderopacity="1.0"
     inkscape:pageopacity="0.0"
     inkscape:pageshadow="2"
     inkscape:zoom="0.5"
     inkscape:cx="634.01143"
     inkscape:cy="544.90343"
     inkscape:document-units="px"
     inkscape:current-layer="g8551"
     showgrid="false"
     units="px"
     inkscape:window-width="1920"
     inkscape:window-height="1032"
     inkscape:window-x="0"
     inkscape:window-y="0"
     inkscape:window-maximized="1" />
  <metadata
     id="metadata7">
    <rdf:RDF>
      <cc:Work
         rdf:about="">
        <dc:format>image/svg+xml</dc:format>
        <dc:type
           rdf:resource="http://purl.org/dc/dcmitype/StillImage" />
        <dc:title></dc:title>
      </cc:Work>
    </rdf:RDF>
  </metadata>
  <g
     inkscape:label="Layer 1"
     inkscape:groupmode="layer"
     id="layer1"
     transform="translate(0,147.63824)">
    <g
       id="g8128"
       transform="translate(-957.85714,237.3617)">
      <g
         id="g8414"
         transform="matrix(2.2562916,0,0,2.2562916,2380.07,-2448.4088)">
        <g
           id="g8341">
          <g
             id="g8343">
            <g
               id="g8551"
               transform="translate(-6.9847579e-6,6.6247815e-6)">
              <g
                 id="g8595"
                 transform="matrix(0.22903286,0,0,0.22903286,-436.15225,1063.963)">
                <g
                   style="fill:#00bfff"
                   transform="translate(2.6592307,8.8641016)"
                   id="g8583">
                  <text
                     xml:space="preserve"
                     style="font-style:normal;font-variant:normal;font-weight:normal;font-stretch:normal;font-size:121.29001617px;line-height:125%;font-family:'Arial Rounded MT Bold';-inkscape-font-specification:'Arial Rounded MT Bold, Normal';text-align:start;letter-spacing:0px;word-spacing:0px;writing-mode:lr-tb;text-anchor:start;fill:#00bfff;fill-opacity:1;stroke:none;stroke-width:1px;stroke-linecap:butt;stroke-linejoin:miter;stroke-opacity:1"
                     x="-124.72208"
                     y="728.74854"
                     id="text8585"
                     sodipodi:linespacing="125%"><tspan
                       sodipodi:role="line"
                       id="tspan8587"
                       x="-124.72208"
                       y="728.74854">LAJKOLOGIJA</tspan></text>
                  <path
                     style="fill:#00bfff;fill-rule:evenodd;stroke:#000000;stroke-width:13.47666836;stroke-linecap:round;stroke-linejoin:round;stroke-miterlimit:4;stroke-dasharray:none;stroke-opacity:1"
                     d="m -35.572572,701.20193 61.992673,0"
                     id="path8589"
                     inkscape:connector-curvature="0" />
                  <path
                     inkscape:connector-curvature="0"
                     id="path8591"
                     d="m 670.60484,701.20193 61.99268,0"
                     style="fill:#00bfff;fill-rule:evenodd;stroke:#000000;stroke-width:13.47666836;stroke-linecap:round;stroke-linejoin:round;stroke-miterlimit:4;stroke-dasharray:none;stroke-opacity:1" />
                  <path
                     style="fill:#00bfff;fill-rule:evenodd;stroke:#000000;stroke-width:13.47666836;stroke-linecap:round;stroke-linejoin:round;stroke-miterlimit:4;stroke-dasharray:none;stroke-opacity:1"
                     d="m 137.04611,694.4192 34.8047,51.30029"
                     id="path8593"
                     inkscape:connector-curvature="0" />
                </g>
                <path
                   transform="matrix(0.44320512,0,0,0.44320512,-1054.8592,1085.1473)"
                   style="fill:none;fill-rule:evenodd;stroke:none;stroke-width:2.36552262px;stroke-linecap:butt;stroke-linejoin:miter;stroke-opacity:1"
                   d="m 2535.0049,-1134.5938 c 0,0 249.2579,-221.0795 445.1579,-307.3856 265.8286,-117.114 645.5947,35.376 652.5151,-15.0777"
                   id="path8176"
                   inkscape:connector-curvature="0"
                   sodipodi:nodetypes="csc" />
                <g
                   style="fill:#6495ed"
                   id="g8450"
                   transform="matrix(3.4670395,0,0,3.4670395,-538.62536,-434.75559)">
                  <path
                     style="fill:#6495ed"
                     inkscape:connector-curvature="0"
                     d="m 246.62948,213.79415 c -0.4456,0 -0.87264,0.18567 -1.18827,0.5013 -0.31564,0.31564 -0.48274,0.74267 -0.48274,1.18827 0,0.44561 0.18567,0.87264 0.48274,1.18828 0.31563,0.31563 0.74267,0.5013 1.18827,0.5013 0.4456,0 0.87264,-0.18567 1.18827,-0.5013 0.31564,-0.31564 0.50131,-0.74267 0.50131,-1.18828 0,-0.4456 -0.18567,-0.87263 -0.50131,-1.18827 -0.31563,-0.31563 -0.74267,-0.5013 -1.18827,-0.5013 z"
                     id="path8346" />
                  <path
                     style="fill:#6495ed"
                     inkscape:connector-curvature="0"
                     d="m 246.62948,206.47884 c -0.92834,0 -1.68958,0.76124 -1.68958,1.68958 0,0.92833 0.74267,1.68957 1.68958,1.68957 0.92834,0 1.68958,-0.74267 1.68958,-1.68957 0,-0.94691 -0.76124,-1.68958 -1.68958,-1.68958 z"
                     id="path8348" />
                  <path
                     style="fill:#6495ed"
                     inkscape:connector-curvature="0"
                     d="m 247.81775,199.64627 c -0.31563,-0.31564 -0.74267,-0.50131 -1.18827,-0.50131 -0.4456,0 -0.87264,0.18567 -1.18827,0.50131 -0.31564,0.31563 -0.48274,0.74267 -0.48274,1.18827 0,0.4456 0.18567,0.87264 0.48274,1.18827 0.31563,0.31564 0.74267,0.50131 1.18827,0.50131 0.4456,0 0.87264,-0.18567 1.18827,-0.50131 0.31564,-0.31563 0.50131,-0.74267 0.50131,-1.18827 0,-0.4456 -0.18567,-0.87264 -0.50131,-1.18827 z"
                     id="path8350" />
                  <path
                     style="fill:#6495ed"
                     inkscape:connector-curvature="0"
                     d="m 277.06042,235.42444 c 0.44561,0 0.87264,-0.18567 1.18828,-0.5013 0.31563,-0.31564 0.5013,-0.74267 0.5013,-1.18828 0,-0.4456 -0.18567,-0.87263 -0.5013,-1.18827 -0.31564,-0.31563 -0.74267,-0.5013 -1.18828,-0.5013 -0.4456,0 -0.87263,0.18567 -1.18827,0.5013 -0.31564,0.31564 -0.5013,0.74267 -0.5013,1.18827 0,0.44561 0.18566,0.87264 0.5013,1.18828 0.31564,0.3342 0.74267,0.5013 1.18827,0.5013 z"
                     id="path8352" />
                  <path
                     style="fill:#6495ed"
                     inkscape:connector-curvature="0"
                     d="m 269.74511,235.42444 c 0.92834,0 1.68958,-0.76124 1.68958,-1.68958 0,-0.92833 -0.74267,-1.68957 -1.68958,-1.68957 -0.92833,0 -1.68957,0.76124 -1.68957,1.68957 0,0.94691 0.76124,1.68958 1.68957,1.68958 z"
                     id="path8354" />
                  <path
                     style="fill:#6495ed"
                     inkscape:connector-curvature="0"
                     d="m 262.4298,235.42444 c 0.44561,0 0.87264,-0.18567 1.18828,-0.5013 0.31563,-0.31564 0.5013,-0.74267 0.5013,-1.18828 0,-0.4456 -0.18567,-0.87263 -0.5013,-1.18827 -0.31564,-0.31563 -0.74267,-0.5013 -1.18828,-0.5013 -0.4456,0 -0.87263,0.18567 -1.18827,0.5013 -0.31563,0.31564 -0.5013,0.74267 -0.5013,1.18827 0,0.44561 0.18567,0.87264 0.5013,1.18828 0.31564,0.31563 0.74267,0.5013 1.18827,0.5013 z"
                     id="path8356" />
                  <path
                     style="fill:#6495ed"
                     inkscape:connector-curvature="0"
                     d="m 216.19853,235.42444 c 0.44561,0 0.87264,-0.18567 1.18828,-0.5013 0.31563,-0.31564 0.5013,-0.74267 0.5013,-1.18828 0,-0.4456 -0.18567,-0.87263 -0.5013,-1.18827 -0.31564,-0.31563 -0.74267,-0.5013 -1.18828,-0.5013 -0.4456,0 -0.87263,0.18567 -1.18827,0.5013 -0.31563,0.31564 -0.48274,0.74267 -0.48274,1.18827 0,0.44561 0.18567,0.87264 0.48274,1.18828 0.31564,0.3342 0.74267,0.5013 1.18827,0.5013 z"
                     id="path8358" />
                  <path
                     style="fill:#6495ed"
                     inkscape:connector-curvature="0"
                     d="m 221.82427,233.75343 c 0,0.92834 0.74267,1.68958 1.68957,1.68958 0.92834,0 1.68958,-0.76124 1.68958,-1.68958 0,-0.92834 -0.76124,-1.68958 -1.68958,-1.68958 -0.92834,0 -1.68957,0.76124 -1.68957,1.68958 z"
                     id="path8360" />
                  <path
                     style="fill:#6495ed"
                     inkscape:connector-curvature="0"
                     d="m 229.64088,234.94171 c 0.31563,0.31563 0.74267,0.5013 1.18827,0.5013 0.44561,0 0.87264,-0.18567 1.18828,-0.5013 0.31563,-0.31564 0.5013,-0.74268 0.5013,-1.18828 0,-0.4456 -0.18567,-0.87264 -0.5013,-1.18827 -0.31564,-0.31564 -0.74267,-0.50131 -1.18828,-0.50131 -0.4456,0 -0.87264,0.18567 -1.18827,0.50131 -0.31564,0.31563 -0.48274,0.74267 -0.48274,1.18827 0,0.4456 0.1671,0.87264 0.48274,1.18828 z"
                     id="path8362" />
                  <path
                     style="fill:#6495ed"
                     inkscape:connector-curvature="0"
                     d="m 222.43697,210.9163 c 0.4456,0 0.87264,-0.18567 1.18827,-0.5013 0.31564,-0.31564 0.50131,-0.74268 0.50131,-1.18828 0,-0.4456 -0.18567,-0.87264 -0.50131,-1.18827 -0.31563,-0.31564 -0.74267,-0.50131 -1.18827,-0.50131 -0.4456,0 -0.87264,0.18567 -1.18827,0.50131 -0.31564,0.31563 -0.50131,0.74267 -0.50131,1.18827 0,0.4456 0.18567,0.87264 0.50131,1.18828 0.29707,0.3342 0.74267,0.5013 1.18827,0.5013 z"
                     id="path8364" />
                  <path
                     style="fill:#6495ed"
                     inkscape:connector-curvature="0"
                     d="m 227.6171,216.09643 c 0.42704,0 0.85407,-0.1671 1.18827,-0.5013 0.64984,-0.64984 0.64984,-1.72671 0,-2.37655 -0.64983,-0.64984 -1.72671,-0.64984 -2.37654,0 -0.64984,0.64984 -0.64984,1.72671 0,2.37655 0.31563,0.3342 0.74267,0.5013 1.18827,0.5013 z"
                     id="path8366" />
                  <path
                     style="fill:#6495ed"
                     inkscape:connector-curvature="0"
                     d="m 232.77866,221.27656 c 0.44561,0 0.87264,-0.18567 1.18828,-0.48274 0.31563,-0.31563 0.5013,-0.74267 0.5013,-1.18827 0,-0.4456 -0.18567,-0.87264 -0.5013,-1.18827 -0.31564,-0.31564 -0.74267,-0.50131 -1.18828,-0.50131 -0.4456,0 -0.87263,0.18567 -1.18827,0.50131 -0.31563,0.31563 -0.5013,0.74267 -0.5013,1.18827 0,0.4456 0.18567,0.87264 0.5013,1.18827 0.31564,0.29707 0.76124,0.48274 1.18827,0.48274 z"
                     id="path8368" />
                  <path
                     style="fill:#6495ed"
                     inkscape:connector-curvature="0"
                     d="m 270.46922,211.49187 c 0.31563,-0.31564 0.5013,-0.74267 0.5013,-1.18828 0,-0.4456 -0.18567,-0.87263 -0.5013,-1.18827 -0.31564,-0.31563 -0.74267,-0.5013 -1.18828,-0.5013 -0.4456,0 -0.87263,0.18567 -1.18827,0.5013 -0.31563,0.31564 -0.5013,0.74267 -0.5013,1.18827 0,0.44561 0.18567,0.87264 0.5013,1.18828 0.31564,0.31563 0.74267,0.5013 1.18827,0.5013 0.42704,0 0.87264,-0.18567 1.18828,-0.5013 z"
                     id="path8370" />
                  <path
                     style="fill:#6495ed"
                     inkscape:connector-curvature="0"
                     d="m 265.28909,214.29545 c -0.64984,-0.64984 -1.72671,-0.64984 -2.37655,0 -0.64984,0.64984 -0.64984,1.72671 0,2.37655 0.3342,0.3342 0.76124,0.5013 1.18827,0.5013 0.42704,0 0.85408,-0.1671 1.18828,-0.5013 0.64984,-0.66841 0.64984,-1.72671 0,-2.37655 z"
                     id="path8372" />
                  <path
                     style="fill:#6495ed"
                     inkscape:connector-curvature="0"
                     d="m 258.92068,218.97428 c -0.4456,0 -0.87263,0.18567 -1.18827,0.5013 -0.31563,0.31564 -0.5013,0.74267 -0.5013,1.18827 0,0.44561 0.18567,0.87264 0.5013,1.18828 0.31564,0.31563 0.74267,0.5013 1.18827,0.5013 0.44561,0 0.87264,-0.18567 1.18828,-0.5013 0.31563,-0.31564 0.5013,-0.74267 0.5013,-1.18828 0,-0.4456 -0.18567,-0.87263 -0.5013,-1.18827 -0.31564,-0.3342 -0.74267,-0.5013 -1.18828,-0.5013 z"
                     id="path8374" />
                  <path
                     style="fill:#6495ed"
                     inkscape:connector-curvature="0"
                     d="m 210.35,253.21141 0,32.54756 c 0,1.72671 1.41107,3.13778 3.13779,3.13778 l 11.5114,0 c 1.15114,0 2.17231,-0.63127 2.71074,-1.55961 1.68958,1.61531 3.99186,2.61792 6.51694,2.61792 l 29.03844,0 c 6.4241,0 10.50879,-3.36059 11.2329,-9.22769 l 3.89902,-24.82378 c 0.0186,-0.0928 0.0186,-0.1671 0.0186,-0.25993 0,-5.21726 -4.25179,-9.45049 -9.45049,-9.45049 l -14.68632,0 0,-10.58306 c 0,-4.45603 -1.29967,-7.68665 -3.88046,-9.56189 -4.06612,-2.98925 -9.67329,-1.28111 -9.91465,-1.20684 -0.70554,0.2228 -1.16971,0.87264 -1.16971,1.59674 l 0,11.86417 c 0,9.35766 -10.86156,12.55114 -11.30717,12.68111 -0.2228,0.0557 -0.40847,0.1671 -0.57557,0.29707 -0.57557,-0.72411 -1.46677,-1.18828 -2.45081,-1.18828 l -11.5114,0 c -1.70815,-0.0186 -3.11922,1.39251 -3.11922,3.11922 z m 18.58534,1.00261 c 0.55701,-0.14854 13.77655,-3.99186 13.77655,-15.91173 l 0,-10.50879 c 1.44821,-0.2228 3.93616,-0.35277 5.73713,0.96547 1.65245,1.22541 2.50652,3.52769 2.50652,6.85114 l 0,12.27264 c 0,0.92834 0.76124,1.68957 1.68957,1.68957 l 16.35733,0 c 3.32346,0 6.0342,2.67362 6.08991,5.97851 l -3.88046,24.71237 c 0,0.0186 0,0.0371 0,0.0557 -0.5013,4.17753 -3.17492,6.29414 -7.90945,6.29414 l -29.057,0 c -3.36059,0 -6.0899,-2.72932 -6.0899,-6.0899 l 0,-26.29056 c 0.24137,0.0557 0.51987,0.0557 0.7798,-0.0186 z m -15.22475,-0.77981 11.06579,0 0,32.10196 -11.06579,0 c 0,0 0,-32.10196 0,-32.10196 z"
                     id="path8376" />
                </g>
                <g
                   transform="translate(0,5.3184613)"
                   style="fill:#000000"
                   id="g8576">
                  <text
                     sodipodi:linespacing="125%"
                     id="text8468"
                     y="728.74854"
                     x="-124.72208"
                     style="font-style:normal;font-variant:normal;font-weight:normal;font-stretch:normal;font-size:121.29001617px;line-height:125%;font-family:'Arial Rounded MT Bold';-inkscape-font-specification:'Arial Rounded MT Bold, Normal';text-align:start;letter-spacing:0px;word-spacing:0px;writing-mode:lr-tb;text-anchor:start;fill:#000000;fill-opacity:1;stroke:none;stroke-width:1px;stroke-linecap:butt;stroke-linejoin:miter;stroke-opacity:1"
                     xml:space="preserve"><tspan
                       y="728.74854"
                       x="-124.72208"
                       id="tspan8470"
                       sodipodi:role="line">LAJKOLOGIJA</tspan></text>
                  <path
                     inkscape:connector-curvature="0"
                     id="path8548"
                     d="m 137.04611,694.4192 34.8047,51.30029"
                     style="fill:#000000;fill-rule:evenodd;stroke:#000000;stroke-width:13.47666836;stroke-linecap:round;stroke-linejoin:round;stroke-miterlimit:4;stroke-dasharray:none;stroke-opacity:1" />
                </g>
              </g>
            </g>
          </g>
        </g>
        <g
           id="g8378" />
        <g
           id="g8380" />
        <g
           id="g8382" />
        <g
           id="g8384" />
        <g
           id="g8386" />
        <g
           id="g8388" />
        <g
           id="g8390" />
        <g
           id="g8392" />
        <g
           id="g8394" />
        <g
           id="g8396" />
        <g
           id="g8398" />
        <g
           id="g8400" />
        <g
           id="g8402" />
        <g
           id="g8404" />
        <g
           id="g8406" />
      </g>
    </g>
  </g>
</svg>
